/* XPM */
static char *_9ce1247d3854e07c8e3194dd5838b56954UsSmqdl7TgFbY[] = {
/* columns rows colors chars-per-pixel */
"64 64 247 2 ",
"   c #294803",
".  c #364E0F",
"X  c #2D5400",
"o  c #365908",
"O  c #365915",
"+  c #2C6500",
"@  c #366603",
"#  c #3B7405",
"$  c #396517",
"%  c #3E7011",
"&  c #374E23",
"*  c #445D11",
"=  c #466E08",
"-  c #497202",
";  c #4A7E0A",
":  c #477904",
">  c #537D0B",
",  c #496916",
"<  c #536C1E",
"1  c #497816",
"2  c #557B18",
"3  c #495C2F",
"4  c #486626",
"5  c #557D22",
"6  c #557627",
"7  c #4B643B",
"8  c #526B3A",
"9  c #4E7433",
"0  c #5B793C",
"q  c #4E7027",
"w  c #6B7C33",
"e  c #6A7C57",
"r  c #667746",
"t  c #448202",
"y  c #4B8507",
"u  c #518505",
"i  c #578909",
"p  c #4D9104",
"a  c #569402",
"s  c #5A980A",
"d  c #558213",
"f  c #5A8915",
"g  c #599618",
"h  c #448311",
"j  c #639A0A",
"k  c #638A1B",
"l  c #6A951C",
"z  c #659918",
"x  c #759C1D",
"c  c #5FA517",
"v  c #68A709",
"b  c #6DB308",
"n  c #6CA41C",
"m  c #69A615",
"M  c #76A71B",
"N  c #78B71B",
"B  c #74B712",
"V  c #568425",
"C  c #5E8937",
"Z  c #5F9339",
"A  c #538B22",
"S  c #688925",
"D  c #699827",
"F  c #729D27",
"G  c #688936",
"H  c #6B9837",
"J  c #769B37",
"K  c #748B32",
"L  c #6BA625",
"P  c #76AA29",
"I  c #74B425",
"U  c #7AB728",
"Y  c #7CAD32",
"T  c #75A638",
"R  c #7CB833",
"E  c #6EA736",
"W  c #7DC41B",
"Q  c #7CC426",
"!  c #7FC030",
"~  c #6D894A",
"^  c #77884A",
"/  c #799845",
"(  c #758756",
")  c #7B9356",
"_  c #6C865C",
"`  c #7BAA41",
"'  c #788D65",
"]  c #80AD1C",
"[  c #829D3A",
"{  c #85BA29",
"}  c #84A939",
"|  c #88B537",
" . c #89AE34",
".. c #8AC619",
"X. c #8DD41D",
"o. c #83C42A",
"O. c #88CA29",
"+. c #92C929",
"@. c #8BD327",
"#. c #94D32C",
"$. c #93D728",
"%. c #8CCB34",
"&. c #88C637",
"*. c #95CA37",
"=. c #8FD133",
"-. c #91D334",
";. c #95D43B",
":. c #9BDB3A",
">. c #9AD639",
",. c #A4DE33",
"<. c #9CE33F",
"1. c #A2E03F",
"2. c #879B4B",
"3. c #889957",
"4. c #87A848",
"5. c #8BB644",
"6. c #89B747",
"7. c #93BA46",
"8. c #86A558",
"9. c #93AB52",
"0. c #95A85A",
"q. c #8DB255",
"w. c #9AB957",
"e. c #91AC49",
"r. c #A4BD5A",
"t. c #869968",
"y. c #889979",
"u. c #909D7B",
"i. c #8DA766",
"p. c #98A96F",
"a. c #98B466",
"s. c #95A777",
"d. c #9BB676",
"f. c #8AA774",
"g. c #A3B56A",
"h. c #A1AA79",
"j. c #A6BB78",
"k. c #8FC742",
"l. c #95CA45",
"z. c #9AD646",
"x. c #95C451",
"c. c #A4D544",
"v. c #A7CA58",
"b. c #A2D657",
"n. c #A7C64E",
"m. c #A8EA4B",
"M. c #9EC465",
"N. c #9EC17D",
"B. c #A9C868",
"V. c #B1CF6A",
"C. c #ABD166",
"Z. c #B8D569",
"A. c #A9C578",
"S. c #B1CC78",
"D. c #B3D57C",
"F. c #B8D97B",
"G. c #ACD674",
"H. c #C7E176",
"J. c #8E9B84",
"K. c #95A585",
"L. c #8FA783",
"P. c #A7B686",
"I. c #ABB899",
"U. c #B6BA9B",
"Y. c #A9BCA5",
"T. c #B5BCAC",
"R. c #A9C787",
"E. c #B7C98B",
"W. c #BCD788",
"Q. c #AEC595",
"!. c #BBCC9B",
"~. c #B6C899",
"^. c #BBDB94",
"/. c #B9D597",
"(. c #BDE58D",
"). c #BCCAA6",
"_. c #BED8A6",
"`. c #BAC9B5",
"'. c #C4D787",
"]. c #C6DA9A",
"[. c #C0CE9D",
"{. c #C8E687",
"}. c #CDF58F",
"|. c #D5F38A",
" X c #C8E597",
".X c #D6EC9B",
"XX c #DBF799",
"oX c #CBEC91",
"OX c #E1FB9D",
"+X c #C4D3AB",
"@X c #C7D9A7",
"#X c #CADEBA",
"$X c #C7D9B4",
"%X c #D3DEB8",
"&X c #C4C9A9",
"*X c #C9E4A5",
"=X c #D4EBAB",
"-X c #D7F6A4",
";X c #CAE3B8",
":X c #DBEDBC",
">X c #D5E9B7",
",X c #DAF4B7",
"<X c #E6FFA8",
"1X c #E7FCB9",
"2X c #F2FFBB",
"3X c #F5FFB6",
"4X c #D4DCC8",
"5X c #D2D7CC",
"6X c #D9E8C7",
"7X c #DDF4CA",
"8X c #DDEDD3",
"9X c #E5FBC3",
"0X c #ECFFC4",
"qX c #E9F9CA",
"wX c #F2FFCB",
"eX c #FAFFCB",
"rX c #F5FFC4",
"tX c #E4EAD8",
"yX c #F8EFDD",
"uX c #ECFDD6",
"iX c #EDFEDC",
"pX c #E6F6D8",
"aX c #F5FFD3",
"sX c #FBFFD4",
"dX c #F4FEDD",
"fX c #FBFFDC",
"gX c #FBF2D8",
"hX c #E8EFCD",
"jX c #E9EAE5",
"kX c #ECF2E3",
"lX c #ECFBE3",
"zX c #EAFAEB",
"xX c #F4FEE3",
"cX c #FBFFE4",
"vX c #F4FEEB",
"bX c #FCFFEC",
"nX c #F3F5EB",
"mX c #EFFFF9",
"MX c #F4F5F4",
"NX c #F5FDF3",
"BX c #FCFEF4",
"VX c #F4F3FD",
"CX c #FBF5FE",
"ZX c #F5FDFC",
"AX c #FFFFFE",
"SX c #FCF6F4",
"DX c #EFEFF8",
/* pixels */
"AXAXAXAXAXAXAXAXAXAXAXAXAXAXAXAXbXcXcXxXdXuXsXfXbXCXAXVXAXMXbXbXBXAXAXCXAXAXBXAXAXAXAXAXAXAXAXAXAXAXAXAXAXAXAXAXAXAXAXAXAXAXAXAX",
"AXAXAXAXAXAXAXAXAXAXBXAXAXAXAXAXyXU.t.f.f.( h.gXyXSXAXVXZXNXcXbXSXAXAXAXAXAXBXAXAXAXAXAXAXAXAXAXAXAXAXAXAXAXAXAXAXAXAXAXAXAXAXAX",
"AXAXAXAXAXAXAXAXAXBXBXBXBXAXAXAXcXs.4 9 4   r fXbXBXkX`.#X$X@X$XtXBXAXAXAXAXAXAXAXAXAXAXAXAXAXAXAXAXAXAXAXAXAXAXAXAXAXAXAXAXAXAX",
"BXBXCXAXAXAXAXAXBXBXbXBXBXBXAXBXcXE.G Z V $ ^ cXcXyXI.8 9 4 4 3 5XMXAXBXAXAXAXAXAXAXAXAXAXAXAXAXAXAXAXAXAXAXAXAXAXAXAXAXAXAXAXAX",
"BXBXAXAXAXCXAXAXBXBXbXbXBXBXAXBXdX^.H E g = ~ cXbXbX/.C Z 1 @ . 6XBXAXBXAXAXAXAXAXAXAXAXAXAXAXAXAXAXAXAXAXAXAXAXAXAXAXAXAXAXAXAX",
"BXBXAXAXAXCXCXAXBXBXBXBXBXBXBXBXfX^.D R c # 0 xXbXcX^.H E g = , pXAXAXAXAXAXAXAXAXAXAXAXAXAXAXAXAXAXAXAXAXAXAXAXAXAXAXAXAXAXAXAX",
"BXnXnXBXBXNXNXBXAXAXAXAXBXBXBXbXcX XL o.m t 0 vXBXcXD.z I s : q xXAXAXAXAXAXBXAXAXAXAXAXAXAXAXAXAXAXAXAXAXAXAXAXAXAXAXAXAXAXAXAX",
"BXtXtXdXcXcXbXBXAXAXAXAXAXBXBXbXdX=XY O.B f 0 pXBXcXF.n O.v : 6 xXBXBXAXAXAXBXAXAXAXAXAXAXAXAXAXAXAXAXAXAXAXAXAXAXAXAXAXAXAXAXAX",
"BXbX&XP.=XeXsXcXZXZXZXAXAXAXBXxXbX=Xk.-.N z 9 tXnXfX{.m :.v u 6 xXBXAXAXAXAXAXAXAXAXAXAXAXAXAXAXAXAXAXAXAXAXAXAXAXAXAXAXAXAXAXAX",
"SXBXsXE.0. XeXaXvXZXZXAXAXCXBXbXbX:Xk.;.O.l 9 tXBXuXC.{ O.b l 6 xXBXAXAXAXAXAXAXAXAXAXAXAXAXAXAXAXAXAXAXAXAXAXAXAXAXAXAXAXAXAXAX",
"AXBXcX1Xa.0.].9XvXZXZXZXAXAXBXBXBX9X7.*.=.l 4 6XxXfXZ.{ #.N f G xXBXAXAXAXAXAXAXAXAXAXAXAXAXAXAXAXAXAXAXAXAXAXAXAXAXAXAXAXAXAXAX",
"AXBXfXsX2Xa.2.^.uXvXZXZXCXAXAXSXBXqX5.*.=.z < %XcX1Xv.%.:.{ ; ~ xXBXAXAXAXAXAXAXAXAXAXAXAXAXAXAXAXAXAXAXAXAXAXAXAXAXAXAXAXAXAXAX",
"AXAXBXcXfX,Xd.i.E.:XcXbXBXAXAXCXBXwX6.*.%.n 5 ].sXw T z.-.I g G vXAXAXAXAXAXAXAXAXAXAXAXAXAXAXAXAXAXAXAXAXAXAXAXAXAXAXAXAXAXAXAX",
"AXCXAXBXlXxX9Xj.8.D.1XsXcXBXAXAXBXqX4.&.o.m 2 g.3.< 5.%.O.U g C bXAXAXAXAXAXAXAXAXAXAXAXAXAXAXAXAXAXAXAXAXAXAXAXAXAXAXAXAXAXAXAX",
"AXDXAXAXVXNXdX,XB.w.V.OXsXcXVXAXBX:XT R N m d G * D.b.U O.Q y G bXAXBXAXAXAXAXAXAXAXAXAXAXAXAXAXAXAXAXAXAXAXAXAXAXAXAXAXAXAXAXAX",
"MXAXAXVXAXZXlXaX<Xw.J F.eXdXjXDXBX:XE R I P V < A.2XR R Q L f / cXBXbXbXBXAXAXZXBXBXBXAXAXAXAXAXAXAXAXAXAXAXAXBXBXBXAXAXAXAXAXAX",
"AXAXAXAXAXBXBXxXfX,Xp.) P.aXdX+XcXP.T P E / 3 t.sX-X5.L I P d 4.fXcX].@XBXZXVXZXvXiXvXAXCXCXAXCXCXZXAXAXAXBXBXNXBXNXNXNXZXAXAXAX",
"AXAXAXBXBXNXbXvXpXcXqXs.t./.=X].fXP.= : @ $ & U.sXW.5.5.| Y S 2.fXfXW.A.7XNXZXlX^..X,XpXAXCXCXAXAXZXAXZXNXNXNXBXNXNXBXBXAXAXCXVX",
"AXAXAXAXAXBXBXBXbXpXxX:X) t.>X9X>XE.d n i 2 4 [.eX9.: u # = , ( bXvXE.9.D.0XwX{.| M S j.ZXAXnXBXNXZXZXZXAXZXZXZXZXZXZXZXAXAXAXAX",
"AXAXAXAXAXBXNXvXxXbXcXdX:X) ~ 9X+XE.D M a z / W.3X7.i j f 1 * s.NXvXW.e.w.XX<Xx.{ *.7.A.iXNXcXqXcXcXcXbXbXBXNXZXAXAXAXZXBXBXBXBX",
"AXAXAXAXMXjX5X5X4XbXiXuXfX>Xt.i.@Xa.L v a u } r.Z.| j s g @   ).ZXNX Xq.4.(.-X6.b.| 6.^.uXxXwX3XOXXXoX'.].@X%X%X6XtXkXMXBXBXAXAX",
"AXAXAXAXBXjX5X5XT.y.K.I.~.qXwXs.@X) R @.W t k e.v.c.=.U L % . iXZXZX*X4.J G.oXq.5.} W.wXpX~.a.e.r.v.Z.{.XX<X2XeXsXfXcXxXkXkXMXAX",
"AXAXAXAXAXAXBXnXvXvX4XI.t.( ( ' !.8.U W B : - V.n.c.m.m.l.E , 6XZXZX;X/ K C.(.T T }.1XQ.L.).1X2XaXaXeX2X<X|.H.Z.r.B.S.E.$X6XnXAX",
"AXAXBXBXBXAXAXBXBXBXBXbXcXpX+Xs.p.a.%.W W j - |.|.c.c.<.z.b.4.0XzXZX>X/ K C.D.G oX X/.#XvXdX1X2X].~.j.a.0.0.w.w.'..X2XsXcXbXBXNX",
"AXAXAXAXAXAXAXAXBXBXBXBXbXbXbXcXaXM.o.@.Q z , -X<X*.+.:.-.*.| oXaXfX2XS S {./ d.*X:XdXxX;Xj.4.} [ [ 4.8.d.~.6XvXZXZXAXAXAXAXBXNX",
"AXAXAXAXAXAXAXAXAXBXBXBXBXBXbXcXaXB.%.-.o.D < =XOX| +.$.o.{ { Z.rXfXrX9.K 9.2.E.wX>XI.K.u.p.g.B.V.'.-X1XuXxXNXZXVXVXVXCXAXAXBXBX",
"AXAXAXAXAXAXAXAXAXAXBXBXBXBXBXbXaXD.l.;.&.L q *XXX| -.$.b v M e.bXjXcXp.w 9.2..Xg.j.~.6XbXbXbXuXxXxXxXxXxXxXxXcXbXbXbXBXBXBXBXAX",
"AXAXAXAXAXAXAXAXAXAXAXAXAXBXBXbXfXD.&.:.%.D 6  XXX| >.#.v a z K tXAXnXP.^ g.'.A.j.,XfXcXlXtXvXNXvXxXdXdXaXaXwX0XsXsXfXcXbXBXAXAX",
"BXAXAXAXAXAXAXAXAXAXAXAXAXAXBXBXcXR.R :.;.z 2  XXX| >.-.m u T / ).MXNXI.e >X~.~.cXxXxXxXxXxXxX7X XF.M.q.w.V.{.-X1XwXfXbXBXAXCXVX",
"BXBXAXAXAXAXAXAXAXAXAXAXAXAXAXBXcXR.P ;.;.n 2 W.{.| >.-.I d q.j.t.bXlXY.J.`.vXvXvXxXdX9X].A.i./ }  . .} } } J / ~ t.~.8XBXAXAXAX",
"BXBXAXAXAXAXAXAXAXAXAXAXAXAXAXBXvX/.Y %.>.I d r.Z. .>.%.Y 1 d.>X) 0XdXJ.`.pXvXvXpX_.a./ D D D F l l l S S K 2.i.+X>XkXBXAXAXAXCX",
"AXAXAXAXAXAXAXAXAXAXAXAXAXAXAXBXxX@X| %.;.{ k e.v. .;.&.T , P.wXG rX0Xt.vXvX8XL._ 0 q 5 S f 2 2 S K 2.a.A.*X9XfXxXbXBXAXAXCXAXAX",
"AXAXAXAXAXAXAXAXAXAXAXAXAXAXAXBXBX!.D m s f o 0.B.} l.l.5.V 3.eX/ 1X^.*X;Xy._ 7 7 8 r ~ ) s.Q.).7XpXxXbXbXbXBXBXBXBXAXAXAXAXAXAX",
"AXAXAXAXAXAXAXAXAXAXAXAXAXAXAXBXbX~.d u t :   i.F.} &.R D , 3.rX8.W.N.R.& 6X7X7X6XpXiXxXvXBXNXZXNXAXAXAXAXAXAXAXAXAXAXAXAXAXAXAX",
"AXAXAXAXAXAXAXAXAXAXAXAXAXAXAXBXBX;XS s s ; X d.4.- i y @ o d.sXd.i.R.8 L.iXvXvXlXxXvXbXBXNXNXMXAXAXAXAXAXAXAXAXAXAXAXAXAXAXAXAX",
"AXAXAXAXAXAXAXAXAXAXAXAXAXAXAXAXBX6XH n L y X a.w.: s p + o Q.cXs.) e ' vXNXzXvXNXNXBXNXZXAXAXAXAXAXAXAXAXAXAXAXAXAXAXAXAXAXAXAX",
"AXAXAXAXAXAXAXAXAXAXAXAXAXAXAXAXNX7XH I R i X q.V.z I g % O +XcX).7 _ iXvXZXZXZXZXZXNXNXNXCXCXAXCXBXAXAXAXAXAXAXAXAXAXAXAXAXAXAX",
"AXAXAXAXAXAXAXAXAXAXAXAXAXAXAXAXAXuX` R o.g = 4.7.i I g 1 $ #XbX#X3 6XNXNXzXZXZXAXBXBXAXAXAXAXAXAXAXAXAXAXAXAXBXAXAXAXAXAXAXAXAX",
"AXAXAXAXAXAXAXAXAXAXAXAXAXAXAXAXBXuX` o.U m : J n.I %.n A $ #XvXJ.J.lXNXBXZXMXZXNXBXNXAXAXAXAXAXAXAXAXAXAXAXAXBXAXAXAXAXAXAXAXAX",
"AXAXAXAXAXAXAXAXAXAXAXAXAXAXAXAXBXuX6.z.O.N i l *.N =.c g $ ;XbXy.pXBXBXMXZXAXAXAXBXBXNXAXAXAXAXAXAXCXBXAXAXAXAXAXAXAXAXAXAXAXAX",
"AXAXAXAXAXAXAXAXAXAXAXAXAXAXAXAXNXdXx.%.=.U j i %.N @.Q g % >XhXK.bXbXBXBXMXAXAXAXBXBXBXAXAXAXAXAXAXAXAXAXAXAXAXAXAXAXAXAXAXAXAX",
"AXAXAXAXAXAXAXAXAXAXAXAXAXAXAXAXBXfXv.-.#.o.j i +...@.Q g % =X$XI.bXBXBXBXMXAXAXBXBXBXBXBXAXAXAXAXAXAXAXAXAXAXAXAXAXAXAXAXAXAXAX",
"AXAXAXAXAXAXAXAXAXAXAXAXAXAXAXAXBXfXC.&.=.o.z i { +.X.@.a : *XP.).bXBXBXBXBXAXBXBXBXBXBXBXBXAXAXAXAXAXAXAXAXAXAXAXAXAXAXAXAXAXAX",
"AXAXAXAXAXAXAXAXAXAXAXAXAXAXAXAXAXcXG.&.z.;.F i ] #.X.@.s y  Xt.%XbXBXBXAXAXAXZXBXBXBXBXBXBXAXAXAXAXAXAXAXAXAXAXAXAXAXAXAXAXAXAX",
"AXAXAXAXAXAXAXAXAXAXAXAXAXAXAXAXAXcXF.| z.z.F > M >.$.$.v u S.) hXBXBXBXAXAXAXCXAXBXBXBXBXBXAXAXAXAXAXAXAXAXAXAXAXAXAXAXAXAXAXAX",
"AXAXAXAXAXAXAXAXAXAXAXAXAXAXAXAXCXnX'.Y z.b.} S x *.$.@.v u 4.^ dXBXAXAXAXAXAXCXAXAXBXBXAXAXAXAXAXAXAXAXAXAXAXAXAXAXAXAXAXAXAXAX",
"AXAXAXAXAXAXAXAXAXAXAXAXAXAXAXAXAXBX-XT 5.x./ K l *.#.@.m u S 0.cXBXAXAXCXAXAXCXAXAXAXAXAXAXAXAXAXAXAXAXAXAXAXAXAXAXAXAXAXAXAXAX",
"AXAXAXAXAXAXAXAXAXAXAXAXAXAXAXAXAXBX=X5 d y o X D l.z.;.| D K E.bXSXAXAXCXAXAXCXAXAXAXAXAXAXAXAXAXAXAXAXAXAXAXAXAXAXAXAXAXAXAXAX",
"AXAXAXAXAXAXAXAXAXAXAXAXAXAXAXAXCXAXvX~ k s y + V H ; ; 5 . P.cXBXAXAXAXAXAXAXAXAXAXAXAXAXAXAXAXAXAXAXAXAXAXAXAXAXAXAXAXAXAXAXAX",
"AXAXAXAXAXAXAXAXAXAXAXAXAXAXAXAXBXBXBX) l j p + 1 Z 1 1 < . I.bXBXAXAXAXAXAXAXAXAXAXAXAXAXAXAXAXAXAXAXAXAXAXAXAXAXAXAXAXAXAXAXAX",
"AXAXAXAXAXAXAXAXAXAXAXAXAXAXAXBXBXBXcX8.n b a # h D g f , O !.bXBXAXAXAXAXAXAXAXAXAXAXAXAXAXAXAXAXAXAXAXAXAXAXAXAXAXAXAXAXAXAXAX",
"AXAXAXAXAXAXAXAXAXAXAXAXAXAXAXBXBXbXxXa.M B v # y L I z - , =XcXBXAXAXAXAXAXAXAXAXAXAXAXAXAXAXAXAXAXAXAXAXAXAXAXAXAXAXAXAXAXAXAX",
"AXAXAXAXAXAXAXAXAXAXAXAXAXAXAXBXBXxXxXA.M ..b t p L U M - , >XxXBXAXAXAXAXAXAXAXAXAXAXAXAXAXAXAXAXAXAXAXAXAXAXAXAXAXAXAXAXAXAXAX",
"AXAXAXAXAXAXAXAXAXAXAXAXAXAXAXAXBXvXxXR.U $.B p p I o.I > , >XvXZXAXAXAXAXAXAXAXAXAXAXAXAXAXAXAXAXAXAXAXAXAXAXAXAXAXAXAXAXAXAXAX",
"AXAXAXAXAXAXAXAXAXAXAXAXAXAXAXAXZXNXNX/. .>.Q a g &.%.{ f 6 ;XNXZXAXAXAXAXAXAXAXAXAXAXAXAXAXAXAXAXAXAXAXAXAXAXAXAXAXAXAXAXAXAXAX",
"AXAXAXAXAXAXAXAXAXAXAXAXAXAXAXAXAXMXNX/.} 1.o.s z &.%.{ D 6 ;XNXZXAXAXAXAXAXAXAXAXAXAXAXAXAXAXAXAXAXAXAXAXAXAXAXAXAXAXAXAXAXAXAX",
"AXAXAXAXAXAXAXAXAXAXAXAXAXAXAXAXZXNXNX@X7.*.-.s s k.>.{ f 6 ;XNXZXAXAXAXAXAXAXAXAXAXAXAXAXAXAXAXAXAXAXAXAXAXAXAXAXAXAXAXAXAXAXAX",
"AXAXAXAXAXAXAXAXAXAXAXAXAXAXAXAXvXvXxX=X7.c.c.m m &.#.+.L 5 _.vXZXAXAXAXAXAXAXAXAXAXAXAXAXAXAXAXAXAXAXAXAXAXAXAXAXAXAXAXAXAXAXAX",
"AXAXAXAXAXAXAXAXAXAXAXAXAXAXAXBXbXcXxX,X .*.*.v N %.$...m d ^.xXNXAXAXAXAXAXAXAXAXAXAXAXAXAXAXAXAXAXAXAXAXAXAXAXAXAXAXAXAXAXAXAX",
"AXAXAXAXAXAXAXAXAXAXAXAXAXAXAXBXcXfXcX0X} *.c.U m O.,...j d ^.xXBXAXAXAXAXAXAXAXAXAXAXAXAXAXAXAXAXAXAXAXAXAXAXAXAXAXAXAXAXAXAXAX",
"AXAXAXAXAXAXAXAXAXAXAXAXAXAXAXBXbXcXbXwX[ | 7.Y F { 1.>.M 2 R.xXNXAXAXAXAXAXAXAXAXAXAXAXAXAXAXAXAXAXAXAXAXAXAXAXAXAXAXAXAXAXAXAX",
"AXAXAXAXAXAXAXAXAXAXAXAXAXAXAXBXBXBXBXxXj.B.B.M.q.J { *.P , d.vXZXAXAXAXAXAXAXAXAXAXAXAXAXAXAXAXAXAXAXAXAXAXAXAXAXAXAXAXAXAXAXAX",
"AXAXAXAXAXAXAXAXAXAXAXAXAXAXAXAXAXAXAXAXuXwXaXaX/.8.7.5.4.~ Y.zXZXAXAXAXAXAXAXAXAXAXAXAXAXAXAXAXAXAXAXAXAXAXAXAXAXAXAXAXAXAXAXAX",
"AXAXAXAXAXAXAXAXAXAXAXAXAXAXAXAXAXAXCXCXbXdXdXdXiX,X<X}.-X7XmXmXZXAXAXAXAXAXAXAXAXAXAXAXAXAXAXAXAXAXAXAXAXAXAXAXAXAXAXAXAXAXAXAX"
};
