/* XPM */
static char *_a1ca226c71242d2ff74ad7b49f55456VuC1r6GHotCF3YSl[] = {
/* columns rows colors chars-per-pixel */
"64 64 235 2 ",
"   c #B15E56",
".  c #BD7B58",
"X  c #B7776B",
"o  c #CD484C",
"O  c #CB4249",
"+  c #D4474B",
"@  c #D9584A",
"#  c #CA4951",
"$  c #D74C55",
"%  c #CF5353",
"&  c #D35C54",
"*  c #DC5C56",
"=  c #DC535D",
"-  c #DA5758",
";  c #E15C5B",
":  c #E15755",
">  c #DD625C",
",  c #C17254",
"<  c #D7795B",
"1  c #E26C5C",
"2  c #E7635F",
"3  c #E3755D",
"4  c #D35763",
"5  c #E95A67",
"6  c #CA6B6A",
"7  c #DA676D",
"8  c #DD6E67",
"9  c #DC7769",
"0  c #CC7C71",
"q  c #DE797D",
"w  c #D46F75",
"e  c #E46262",
"r  c #E36D69",
"t  c #EC6867",
"y  c #F06F6A",
"u  c #E47563",
"i  c #E47A65",
"p  c #E77769",
"a  c #F2746D",
"s  c #F37469",
"d  c #E36E78",
"f  c #EB6D76",
"g  c #E57C79",
"h  c #F57974",
"j  c #B9AE78",
"k  c #E1855C",
"l  c #D9856D",
"z  c #D88C76",
"x  c #CF9C71",
"c  c #DA9978",
"v  c #CD8F69",
"b  c #EA8467",
"n  c #E68869",
"m  c #E69467",
"M  c #E88976",
"N  c #F98877",
"B  c #EA927C",
"V  c #E69978",
"C  c #F29C74",
"Z  c #F59B7C",
"A  c #F89478",
"S  c #CEAB73",
"D  c #D8B07F",
"F  c #C6B077",
"G  c #EFAA6F",
"H  c #E4A27C",
"J  c #EBA17A",
"K  c #EEA97F",
"L  c #F9A47C",
"P  c #E0B97E",
"I  c #F4B476",
"U  c #FBB67C",
"Y  c #DE7480",
"T  c #ED7B84",
"R  c #BBB090",
"E  c #BCA788",
"W  c #DD8D84",
"Q  c #DA9A87",
"!  c #EA8787",
"~  c #FD8D81",
"^  c #ED9382",
"/  c #EE9A83",
"(  c #EC9C8C",
")  c #E7958A",
"_  c #FE9580",
"`  c #F89988",
"'  c #ED8C95",
"]  c #EA9291",
"[  c #ED9B95",
"{  c #E59C95",
"}  c #F09494",
"|  c #FB9E94",
" . c #F49B99",
".. c #FB9799",
"X. c #F78992",
"o. c #CBAE8E",
"O. c #D7A589",
"+. c #CCB58A",
"@. c #CBBB8C",
"#. c #C5BB85",
"$. c #D5B286",
"%. c #D5B48B",
"&. c #D7B888",
"*. c #D8AB97",
"=. c #CABD97",
"-. c #DEB495",
";. c #DCBB9B",
":. c #D5BA95",
">. c #E7A283",
",. c #ECA382",
"<. c #EEAB87",
"1. c #EAA389",
"2. c #ECAA8D",
"3. c #E4AA8A",
"4. c #F3A384",
"5. c #FEA384",
"6. c #F6AC85",
"7. c #F8AC84",
"8. c #F3AB8D",
"9. c #F9A68C",
"0. c #EDB18D",
"q. c #E8BC8D",
"w. c #F2BB82",
"e. c #FFB38D",
"r. c #F8B88B",
"t. c #E3A495",
"y. c #EDA394",
"u. c #EAAB93",
"i. c #E3A39B",
"p. c #EEA49C",
"a. c #E8AC99",
"s. c #F6A395",
"d. c #FFA694",
"f. c #F4AE95",
"g. c #F5A39D",
"h. c #FDAD9A",
"j. c #F9A798",
"k. c #ECB193",
"l. c #E3BA93",
"z. c #E7B59A",
"x. c #F3B394",
"c. c #FCB395",
"v. c #F3B59C",
"b. c #FCB49C",
"n. c #F4BA9B",
"m. c #FEB99C",
"M. c #FBBA96",
"N. c #F996A3",
"B. c #DFBAA3",
"V. c #D4BCA2",
"C. c #E8ABA7",
"Z. c #F9A4A2",
"A. c #FEADAD",
"S. c #F9ACA6",
"D. c #EBB9A7",
"F. c #F0B3A4",
"G. c #FBB3A4",
"H. c #F1BDA3",
"J. c #FEBCA3",
"K. c #F6B3AC",
"L. c #FDB1AC",
"P. c #F8BBAF",
"I. c #FCBCB1",
"U. c #FAB9B8",
"Y. c #B5C68E",
"T. c #BBC48E",
"R. c #B3CA8F",
"E. c #B9CB8F",
"W. c #AFCB90",
"Q. c #B6C692",
"!. c #BBC693",
"~. c #B6CB93",
"^. c #B9CA94",
"/. c #BCC499",
"(. c #BBCB9A",
"). c #B6CA99",
"_. c #B8D096",
"`. c #C3C68D",
"'. c #C3C593",
"]. c #C9C594",
"[. c #C2C994",
"{. c #C3C69A",
"}. c #CCC49B",
"|. c #C2CA9A",
" X c #CBCB9C",
".X c #D4C69C",
"XX c #D2CA9D",
"oX c #DACD9C",
"OX c #F5C38E",
"+X c #FEC388",
"@X c #E5C39C",
"#X c #E7C598",
"$X c #FDC394",
"%X c #F8C79B",
"&X c #E9D49E",
"*X c #F9D29C",
"=X c #CCC7A1",
"-X c #D4CBA4",
";X c #DCCCAA",
":X c #D4C5A4",
">X c #D8D6A7",
",X c #CBD5A0",
"<X c #E3CCA3",
"1X c #E7C4AA",
"2X c #E4CDAA",
"3X c #E9CCAA",
"4X c #E8C6A6",
"5X c #FDC5A3",
"6X c #F5CBA4",
"7X c #F3C3AC",
"8X c #FEC3AB",
"9X c #FDCAAA",
"0X c #F8C8A6",
"qX c #E6DDAF",
"wX c #E8D4A8",
"eX c #FCD3A9",
"rX c #FFDBAD",
"tX c #F9D6A6",
"yX c #E9CAB5",
"uX c #FDC5BB",
"iX c #F6C9B7",
"pX c #EAD3B3",
"aX c #FFD5B3",
"sX c #FED9B5",
"dX c #FFD6BA",
"fX c #F3D5B8",
"gX c #FFE3AB",
"hX c #FDE3BA",
"jX c #FFEABD",
"kX c #F3E2B6",
"lX c #FCC8C8",
"zX c #FFCBD1",
"xX c #FED9D7",
"cX c #FED2C7",
"vX c #FFDDE1",
/* pixels */
"~.~.~.~.~.~.~.~.~.~.~.~.~.~.~.~.~.~.~.~.~.~.~.~.~.~.~.~.~.~.~.~.~.~.~.~.~.~.~.~.~.~.~.~.~.~.~.~.~.~.~.~.~.~.~.~.~.~.~.~.~.~.~.~.",
"~.~.~.~.~.~.~.~.~.~.~.~.~.~.~.~.~.~.~.~.~.~.~.~.~.~.~.~.~.~.~.~.~.~.~.~.~.~.~.~.~.~.~.~.~.~.~.~.~.~.~.~.~.~.~.~.~.~.~.~.~.~.~.~.",
"~.~.~.~.~.~.~.~.~.~.~.~.~.~.~.~.~.~.~.~.~.~.~.~.~.~.~.~.~.~.~.~.~.~.~.~.~.~.~.~.~.~.~.~.~.~.~.~.~.~.~.~.~.~.~.~.~.~.~.~.~.~.~.~.",
"~.~.~.~.~.~.~.~.~.~.~.~.~.~.~.~.~.~.~.~.~.~.~.~.~.~.~.~.~.~.~.~.~.~.~.~.~.~.~.~.~.~.~.~.~.~.~.~.~.~.~.~.~.~.~.~.~.~.~.~.~.~.~.~.",
"~.~.~.~.~.~.~.~.~.~.~.~.~.~.~.~.~.~.~.~.~.~.~.~.~.~.~.~.~.~.~.~.~.~.~.~.~.~.~.~.~.~.~.~.~.~.~.~.~.~.~.~.~.~.~.~.~.~.~.~.~.~.~.~.",
"~.~.~.~.~.~.~.~.~.~.~.~.~.~.~.~.~.~.~.~.~.~.~.~.~.~.~.~.~.~.~.~.~.~.~.~.~.~.~.~.~.~.~.~.~.~.~.~.~.~.~.~.~.~.~.~.~.~.~.~.~.~.~.~.",
"~.~.~.~.~.~.~.~.~.~.~.~.~.~.~.~.~.~.~.~.~.~.~.~.~.~.~.~.~.~.~.~.~.~.~.~.~.~.~.~.~.~.~.~.~.~.~.~.~.~.~.~.~.~.~.~.~.~.~.~.~.~.~.~.",
"~.~.~.~.~.~.~.~.~.~.~.~.~.~.~.~.~.~.~.~.~.~.~.~.~.~.~.~.~.~.~.~.~.~.~.~.~.~.~.~.~.~.~.~.~.~.~.~.~.~.~.~.~.~.~.~.~.~.~.~.~.~.~.~.",
"~.~.~.~.~.~.~.~.~.~.~.~.~.~.~.~.~.~.~.~.~.~.~.~.~.~.~.~.~.~.~.~.~.~.~.~.~.~.~.~.~.~.~.~.~.~.~.~.~.~.~.~.~.~.~.~.~.~.~.~.~.~.~.~.",
"~.~.~.~.~.~.~.~.~.~.~.~.~.~.~.~.~.~.~.~.~.~.~.~.~.~.~.~.~.~.~.~.~.~.~.~.~.~.~.~.~.~.~.~.~.~.~.~.~.~.~.~.~.~.~.~.~.~.~.~.~.~.~.~.",
"~.~.~.~.~.~.~.~.~.~.~.~.~.~.~.~.~.~.~.~.~.~.~.~.~.~.~.~.~.~.~.~.~.~.~.~.~.~.~.~.~.~.~.~.~.~.~.~.~.~.~.~.~.~.~.~.~.~.~.~.~.~.~.~.",
"~.~.~.~.~.~.~.~.~.~.~.~.~.~.~.~.~.~.~.~.~.~.~.~.~.~.~.~.~.~.~.~.~.~.~.~.~.~.~.~.~.~.~.~.~.~.~.~.~.~.~.~.~.~.~.~.~.~.~.~.~.~.~.~.",
"~.~.~.~.~.~.~.~.~.~.~.~.~.~.~.~.~.~.~.~.~.~.~.~.~.~.~.~.~.~.~.~.~.~.~.~.~.~.~.~.~.~.~.~.~.~.~.~.~.~.~.~.~.~.~.~.~.~.~.~.~.~.~.~.",
"~.~.~.~.~.~.~.~.~.~.~.~.~.~.~.~.~.~.~.~.~.~.~.~.~.~.~.~.~.~.~.~.~.~.~.~.~.~.~.~.~.~.~.~.~.~.~.~.~.~.~.~.~.~.~.~.~.~.~.~.~.~.~.~.",
"~.~.~.~.~.~.~.~.~.~.~.~.~.~.~.~.~.~.~.~.~.~.~.~.~.~.~.~.~.~.~.~.~.~.~.~.~.~.~.~.~.~.~.~.~.~.~.~.~.~.~.~.~.~.~.~.~.~.~.~.~.~.~.~.",
"~.~.~.~.~.~.~.~.~.~.~.~.~.~.~.~.~.~.~.~.~.~.~.~.~.~.~.~.~.~.~.~.~.~.~.~.~.~.~.~.~.~.~.~.~.~.~.~.~.~.~.~.~.~.~.~.~.~.~.~.~.~.~.~.",
"^.~.~.~.~.~.~.~.~.~.~.~.~.~.~.~.~.R.~.~.~.~.~.~.~.~.^.~.~.~.~.~.~.~.~.~.^.^.Q.^.~.R.~.~.~.~.~.~.~.~.~.~.~.~.~.~.~.~.~.~.~.~.~.~.",
"~.~.~.~.~.~.~.~.~.~.~.~.~.~.~.~.R.~.~.~.(.Y.~.~.~.~.~.~.~.~.Q.^.~.~.~.(.~.^.^.~.R.~.~.~.~.~.^.~.~.~.~.~.~.~.~.~.~.~.~.~.~.~.~.~.",
"~.~.~.~.~.~.~.~.~.~.~.~.~.~.~.~.~.~.).).Q.(.~.~.~.~.~.~.~.~.^.~.~.~.^.Q.~.W.~.~.~.~.~.~.~.~.^.^.~.~.~.~.~.~.~.~.~.~.~.~.~.~.~.~.",
"~.~.~.~.~.~.^.~.~.~.~.~.~.~.~.~.~.~.)././.{.!.!.Q.^.~.~.^.Q.^.^.~.~.!.|.^.~.~.Q.Q.Q.!.|.Q.^.^.~.~.~.~.~.~.~.~.~.~.~.~.~.~.~.~.~.",
"~.~.~.~.~.~.~.~.~.~.~.~.~.~.~.~.Q.).Q.!.=X}..X.X}.{.(.(.!.|.{.(.~.~./.=X:X;X;X-XXX X.XXX X[.Q.^.~.~.~.~.~.~.~.~.~.^.^.^.~.~.~.~.",
"~.~.~.~.~.~.~.~.~.~.~.~.~.~.~.~.(.!.|.XXo.O.-.z.B.V.:X=.:.E V.R !. X;XyXB.D.1X1XpX3XpX3X2X-X X!.!.~.~.~.~.~.~.~.~.~.~.~.~.~.~.~.",
"~.~.~.~.~.~.~.~.~.~.~.~.~.~.~.~.~./.;X*.Q 0 6 ! { i.F.Q X t.i.*.1X3Xa.i.F.P.C.uX7X7Xa.z.eX;.%.2X{.~.~.~.~.~.~.~.~.~.~.~.~.~.~.~.",
"~.~.~.~.~.~.~.~.~.~.~.~.~.~.~.~.~.|.1Xt.y.s.! q ] g.g.[ ) z   G.aXO.y.g.L.p.K.K.t.F.H.dXsX6Xn.-. X~.~.~.~.~.~.~.~.~.~.~.~.~.~.^.",
"~.~.~.~.~.~.~.~.~.^.^.~.^.~.~.~.~. X4XH.v.u.y.p.) [ [ ( >.,.< e.r.c ( g. .S.L.t.n.aXhXjXjXrXk.3.].~.~.~.~.~.~.^.~.~.~.~.~.~.~.^.",
"~.~.~.~.~.~.~.~.~.^.^.^.^.~.~.~.~.[.<Xl.n.k.u.x.S.y.y.( >.$Xm k $X4.^ }  .A.g.p.5XeXtXtX*X*X<.O..XQ.~.~.~.~.^.Q.~.~.~.~.~.~.^.^.",
"~.~.~.~.~.~.~.~.~.Q.^.~.~.~.~.~.R.!.XX%.c ,.<.0.f.G.G.y.1.4.n 3 A < ! ' Z.S.[ { k.6XrXgXgXtX4.v +.'.^.~.~.~.~.~.~.~.~.~.~.~.~.~.",
"~.~.~.~.~.~.~.~.~.~.~.~.~.~.~.Y.!.'..X@XH V J K 8.8.b.b.s.^ _ 3 & & T w } [  .G.8X5X$X$XOXOX6.c +.[.^.~.~.~.~.~.~.~.~.~.~.~.~.~.",
"~.~.~.~.~.~.~.~.~._.~.~.^.Q.T. X.X;.;.H.J.,.V m C C 7.c.9.9 & e & & 7 Y ' ] | d.5.L C L U r.%X#X`.^.~.~.~.~.^.^.^.~.~.~.~.~.~.~.",
"~.~.~.~.~.~.~.~.~.~.~.^.!.-XqXpX4XH.v.3.1.>.7.5.C C C 5.5.u o O - % 4 d g ` i b b k k m m m q.&XoX[.T.^.~.~.~.^.^.~.~.~.~.~.~.~.",
"~.~.~.~.^.~.~.~.~.~.Q. XqXkXsX0Xn.m.J.m.2.2.f.h.d.d.N u N s : + : * # f N N b < < m V 6.OX%X%Xl.l.6X<X].Y.~.~.~.~.~.~.~.~.~.~.~.",
"~.~.~.~.^.~.~.~.~.Y. XkXsX0X5X2.c z z 1.x.n.f.( M 8 p 1 @ @ : + - ; o = ; 1 N 5.5.c.5X9XeXhXsX9X2.0.#X<XXX!.~.~.~.~.~.~.~.~.~.~.",
"~.~.~.~.^.^.^.~.~.[.qX%X2.z z >.1.u.f.c.M.x.4.` i 3 u > * ; ; - e = + + $ : y a y N d.h.d.c.n.x.3.0.x.0.l.@.].T.~.~.~.~.~.~.~.~.",
"~.~.~.~.~.^.^.~.R.>X<Xv z 9.J.8X8XJ.8Xm.V J 4.Z A 5._ b N h h t % # = = 5 5 t t t 2 r 9 g ^ 8.M.$X$X6.H 3.$.@.'.^.~.~.~.~.~.~.~.",
"~.~.~.~.~.~.~.~.R.,X<Xl.5X9X9XJ.G.G.( M Z Z A A A N M B B ` h = 4 T X.T d f r a a y e * r M B J I U I w.*X&.j [.^.~.~.~.~.~.~.~.",
"^.~.~.~.~.~.~.~.~.Y.'.oX<X4X@X-.O.O.Q c V V / / M M / h.G.| 7 4 N.' N.U.A...! 8 r a a t > ~ J.e.G I +Xw.P F #.!.^.~.~.~.~.~.~.~.",
"^.^.~.~.~.~.~.~.~.^.Q.Q.!.[.{.'. X X}.@.:.+.O.O.u.p.G.L.Z.] 6 } zXzXC.U.U.F.v.l i h h s t p _ m.7.$Xw.S #.`.!.~.~.~.~.~.~.~.~.~.",
"~.~.~.~.~.~.~.~.~.(.~.~.~.~.~.^.~.~.^.^.!.'.=.1XuXK.{ S.A.] Z.U.lXvXzXC.iX1X;.-.c V B n M l , . x D $.#.`.^.R.~.~.~.~.~.~.~.~.~.",
"~.~.~.~.~.~.~.~.^.~.~.~.~.~.^.~.~.~.~.~.R.T.-XfX8Xt.K.lXZ.] S.K.U.xXvXlXyXyX=.'.XX@.%.$.$.%.+.#.'.'.'.[.^.R.^.~.~.~.~.~.~.~.^.^.",
"~.~.~.~.~.~.~.~.~.~.^.~.Q.^.^.Q.~.~.~.~._.Y.>XpXa.G.uXuXg.W p.I.C.lXxXxXfXpX|.~.~.^.'.].'.'.[.^.~.~.~.~.~.^.~.^.~.~.~.~.~.~.^.^.",
"~.~.~.^.^.~.~.~.~.~.~.~.~.~.~.~.~.~.~.~.~.^. X2XF.I.I.F.z Q v.8XP.uXcXfXyX-X!.~.~.^.!.!.!.^.^.~.~.~.~.~.~.~.~.~.~.~.~.~.~.~.~.~.",
"~.~.~.~.^.~.~.~.~.~.~.~.~.~.~.~.~.~.~.~.~.~.|.-XD.H.H.H.dX5X5X0X7XiXiXpX-X'.^.~.~.~.^.^.~.~.~.~.~.~.~.~.~.~.~.~.~.~.~.~.~.~.~.~.",
"~.~.~.~.~.~.~.~.~.~.~.~.~.~.~.~.~.~.~.~.R.~.^.(. X}.2XfXeXeXrXtX@XwX;X X!.Q.|.Q.~.~.~.~.~.~.~.~.~.~.~.~.~.~.~.~.~.~.~.~.~.~.~.~.",
"~.~.~.~.~.~.~.~.~.~.~.~.~.~.~.~.~.~.~.~.R.~.~.~.^.^.'. XoXwX&X&XoX].!.!.^.^.Q.~.~.~.~.~.~.~.~.~.~.~.~.~.~.~.~.~.~.~.~.~.~.~.~.~.",
"^.~.~.~.~.~.~.~.~.~.~.~.^.^.^.~.^.^.~.~.~.~.~.~.^.^.Q.^.!.T.T.T.!.Q.(.^.Q.^.~.~.^.^.~.~.~.~.^.^.^.~.~.~.~.~.~.~.~.~.~.~.~.~.~.~.",
"^.^.~.~.~.~.~.~.~.~.~.~.^.^.~.~.!.^.^.~.~.~.^.~.~.~.~.~.~.~.~.~.~.~.~.~.~.~.~.~.^.~.~.~.).~.^.^.^.~.~.~.~.~.~.~.~.~.~.~.~.~.~.~.",
"~.~.~.~.~.~.~.~.~.~.~.~.~.~.~.~.~.~.~.~.~.~.~.~.~.~.~.~.~.~.~.~.~.~.~.~.~.~.~.~.~.~.~.~.~.~.~.~.~.~.~.~.~.~.~.~.~.~.~.~.^.^.~.~.",
"~.~.~.~.~.~.~.~.~.~.~.~.~.~.~.~.~.~.~.~.~.~.~.~.~.~.~.~.~.~.R.~.~.~.~.~.~.~.~.~.~.~.~.~.~.~.~.~.~.~.~.~.~.~.~.~.~.~.~.~.^.^.~.~.",
"~.~.~.~.~.~.~.~.~.~.~.~.~.~.~.~.~.~.~.~.~.~.~.~.~.~.~.~.~.~.~.~.~.~.~.~.~.~.~.~.~.~.~.~.~.~.~.~.~.~.~.~.~.~.~.~.~.~.~.~.~.~.~.~.",
"~.~.~.~.~.~.~.~.~.~.~.~.~.~.~.~.~.~.~.~.~.~.~.~.~.~.~.~.~.~.~.~.~.~.~.~.~.~.~.~.~.~.~.~.~.~.~.~.~.~.~.~.~.~.~.~.~.~.~.~.~.~.~.~.",
"~.~.~.~.~.~.~.~.~.~.~.~.~.~.~.~.~.~.~.~.~.~.~.~.~.~.~.~.~.~.~.~.~.~.~.~.~.~.~.~.~.~.~.~.~.~.~.~.~.~.~.~.~.~.~.~.~.~.~.~.~.~.~.~.",
"~.~.~.~.~.~.~.~.~.~.~.~.~.~.~.~.~.~.~.~.~.~.~.~.~.~.~.~.~.~.~.~.~.~.~.~.~.~.~.~.~.~.~.~.~.~.~.~.~.~.~.~.~.~.~.~.~.~.~.~.~.~.~.~.",
"~.~.~.~.~.~.~.~.~.~.~.~.~.~.~.~.~.~.~.~.~.~.~.~.~.~.~.~.~.~.~.~.~.~.~.~.~.~.~.~.~.~.~.~.~.~.~.~.~.~.~.~.~.~.~.~.~.~.~.~.~.~.~.~.",
"~.~.~.~.~.~.~.~.~.~.~.~.~.~.~.~.~.~.~.~.~.~.~.~.~.~.~.~.~.~.~.~.~.~.~.~.~.~.~.~.~.~.~.~.~.~.~.~.~.~.~.~.~.~.~.~.~.~.~.~.~.~.~.~.",
"~.~.~.~.~.~.~.~.~.~.~.~.~.~.~.~.~.~.~.~.~.~.~.~.~.~.~.~.~.~.~.~.~.~.~.~.~.~.~.~.~.~.~.~.~.~.~.~.~.~.~.~.~.~.~.~.~.~.~.~.~.~.~.~.",
"~.~.~.~.~.~.~.~.~.~.~.~.~.~.~.~.~.~.~.~.~.~.~.~.~.~.~.~.~.~.~.~.~.~.~.~.~.~.~.~.~.~.~.~.~.~.~.~.~.~.~.~.~.~.~.~.~.~.~.~.~.~.~.~.",
"~.~.~.~.~.~.~.~.~.~.~.~.~.~.~.~.~.~.~.~.~.~.~.~.~.~.~.~.~.~.~.~.~.~.~.~.~.~.~.~.~.~.~.~.~.~.~.~.~.~.~.~.~.~.~.~.~.~.~.~.~.~.~.~.",
"~.~.~.~.~.~.~.~.~.~.~.~.~.~.~.~.~.~.~.~.~.~.~.~.~.~.~.~.~.~.~.~.~.~.~.~.~.~.~.~.~.~.~.~.~.~.~.~.~.~.~.~.~.~.~.~.~.~.~.~.~.~.~.~.",
"~.~.~.~.~.~.~.~.~.~.~.~.~.~.~.~.~.~.~.~.~.~.~.~.~.~.~.~.~.~.~.~.~.~.~.~.~.~.~.~.~.~.~.~.~.~.~.~.~.~.~.~.~.~.~.~.~.~.~.~.~.~.~.~.",
"~.~.~.~.~.~.~.~.~.~.~.~.~.~.~.~.~.~.~.~.~.~.~.~.~.~.~.~.~.~.~.~.~.~.~.~.~.~.~.~.~.~.~.~.~.~.~.~.~.~.~.~.~.~.~.~.~.~.~.~.~.~.~.~.",
"~.~.~.~.~.~.~.~.~.~.~.~.~.~.~.~.~.~.~.~.~.~.~.~.~.~.~.~.~.~.~.~.~.~.~.~.~.~.~.~.~.~.~.~.~.~.~.~.~.~.~.~.~.~.~.~.~.~.~.~.~.~.~.~.",
"~.~.~.~.~.~.~.~.~.~.~.~.~.~.~.~.~.~.~.~.~.~.~.~.~.~.~.~.~.~.~.~.~.~.~.~.~.~.~.~.~.~.~.~.~.~.~.~.~.~.~.~.~.~.~.~.~.~.~.~.~.~.~.~.",
"~.~.~.~.~.~.~.~.~.~.~.~.~.~.~.~.~.~.~.~.~.~.~.~.~.~.~.~.~.~.~.~.~.~.~.~.~.~.~.~.~.~.~.~.~.~.~.~.~.~.~.~.~.~.~.~.~.~.~.~.~.~.~.~.",
"~.~.~.~.~.~.~.~.~.~.~.~.~.~.~.~.~.~.~.~.~.~.~.~.~.~.~.~.~.~.~.~.~.~.~.~.~.~.~.~.~.~.~.~.~.~.~.~.~.~.~.~.~.~.~.~.~.~.~.~.~.~.~.~."
};
