/* XPM */
static char *_12513ec31a049ed8b7be159b0615c70lqXI4eJt3MGF0X8u[] = {
/* columns rows colors chars-per-pixel */
"64 64 256 2 ",
"   c #000C03",
".  c #010A05",
"X  c #05150A",
"o  c #181A07",
"O  c #011C14",
"+  c #0C1B13",
"@  c #091713",
"#  c #141E13",
"$  c #271D06",
"%  c #18240B",
"&  c #0C251C",
"*  c #0A2619",
"=  c #132315",
"-  c #192819",
";  c #1A331A",
":  c #282805",
">  c #362809",
",  c #252818",
"<  c #352B16",
"1  c #263319",
"2  c #37361B",
"3  c #2D3609",
"4  c #0C2C23",
"5  c #092A24",
"6  c #1B2D22",
"7  c #152C24",
"8  c #0D3329",
"9  c #133225",
"0  c #14342C",
"q  c #1B342C",
"w  c #1C3B2D",
"e  c #1A3625",
"r  c #143B32",
"t  c #1B3C33",
"y  c #183732",
"u  c #0C3730",
"i  c #2A2D22",
"p  c #233C2D",
"a  c #293726",
"s  c #373928",
"d  c #223C35",
"f  c #283C34",
"g  c #353A30",
"h  c #46341A",
"j  c #502E05",
"k  c #443B26",
"l  c #553D24",
"z  c #64390C",
"x  c #324815",
"c  c #1B4536",
"v  c #17492B",
"b  c #294629",
"n  c #3A462A",
"m  c #375325",
"M  c #234334",
"N  c #2A4334",
"B  c #25443A",
"V  c #2B453B",
"C  c #2C4C3C",
"Z  c #274A3A",
"A  c #334C3C",
"S  c #374936",
"D  c #2A5339",
"F  c #36553B",
"G  c #2A522D",
"H  c #386A3A",
"J  c #4C4C13",
"K  c #6B5213",
"L  c #47442A",
"P  c #56452B",
"I  c #4A592C",
"U  c #56582B",
"Y  c #484934",
"T  c #554A34",
"R  c #475837",
"E  c #585738",
"W  c #675637",
"Q  c #775738",
"!  c #6B512C",
"~  c #46672B",
"^  c #496438",
"/  c #596438",
"(  c #506B2D",
")  c #6F6A33",
"_  c #73671E",
"`  c #1E5344",
"'  c #2A4B43",
"]  c #364D45",
"[  c #2B5347",
"{  c #335344",
"}  c #3A5445",
"|  c #3C5B4C",
" . c #36574A",
".. c #355B54",
"X. c #3A6957",
"o. c #346C50",
"O. c #3B7162",
"+. c #2C6254",
"@. c #465948",
"#. c #545A44",
"$. c #435D52",
"%. c #52564A",
"&. c #6C5943",
"*. c #486348",
"=. c #586648",
"-. c #476557",
";. c #566A59",
":. c #57755A",
">. c #517657",
",. c #666849",
"<. c #797B47",
"1. c #676B57",
"2. c #6B7456",
"3. c #757758",
"4. c #736F4B",
"5. c #597866",
"6. c #4A7564",
"7. c #6E786A",
"8. c #8D6D34",
"9. c #915D28",
"0. c #8D754C",
"q. c #877C6C",
"w. c #AD7F42",
"e. c #6B843B",
"r. c #3B8B50",
"t. c #4E9149",
"y. c #72875B",
"u. c #518967",
"i. c #7B846A",
"p. c #698977",
"a. c #798977",
"s. c #708E6F",
"d. c #6CA171",
"f. c #938B35",
"g. c #A58537",
"h. c #C69535",
"j. c #E8C63D",
"k. c #DFC43F",
"l. c #8A8A57",
"z. c #969758",
"x. c #928D4D",
"c. c #AF9053",
"v. c #B5AA55",
"b. c #878967",
"n. c #8A956A",
"m. c #969768",
"M. c #878B74",
"N. c #879478",
"B. c #979875",
"V. c #928A6E",
"C. c #A9976C",
"Z. c #9BA775",
"A. c #98A46D",
"S. c #B8A765",
"D. c #A7AA75",
"F. c #A8B67A",
"G. c #B9B779",
"H. c #B1AA6D",
"J. c #9FAE5D",
"K. c #C79A4C",
"L. c #DABC55",
"P. c #D0AF4E",
"I. c #E3BB4B",
"U. c #E6BC57",
"Y. c #C7BB69",
"T. c #D7BC69",
"R. c #C6B977",
"E. c #CFAE6E",
"W. c #E6B66F",
"Q. c #C0996E",
"!. c #BBC479",
"~. c #DDC555",
"^. c #D7CF54",
"/. c #E7C649",
"(. c #F3C94C",
"). c #E4C454",
"_. c #ECCC5C",
"`. c #E8C756",
"'. c #F6CC53",
"]. c #ECD55A",
"[. c #F3D45B",
"{. c #F6D959",
"}. c #F7E558",
"|. c #F5E24F",
" X c #DAC668",
".X c #C9C578",
"XX c #D8C577",
"oX c #DBD578",
"OX c #D2CF70",
"+X c #E8C767",
"@X c #F3CB67",
"#X c #ECDB6B",
"$X c #EBD568",
"%X c #F3DD6B",
"&X c #F4D865",
"*X c #E7C977",
"=X c #E9D776",
"-X c #F6DA78",
";X c #F8CC78",
":X c #EBE268",
">X c #F6E667",
",X c #EBE678",
"<X c #F5E373",
"1X c #F9E679",
"2X c #F6F579",
"3X c #EDF275",
"4X c #7A9685",
"5X c #849786",
"6X c #959489",
"7X c #98AA86",
"8X c #8FA889",
"9X c #B7B984",
"0X c #AFAD8B",
"qX c #A19984",
"wX c #CBBA8C",
"eX c #B9C590",
"rX c #A9D0A3",
"tX c #C6C988",
"yX c #C9D48A",
"uX c #D8D786",
"iX c #C7C796",
"pX c #D7D696",
"aX c #D5CE91",
"sX c #E6CC84",
"dX c #E7D888",
"fX c #F8D986",
"gX c #E9D895",
"hX c #F7D18B",
"jX c #DAE58F",
"kX c #E9E888",
"lX c #FDE48B",
"zX c #FBEB8B",
"xX c #F7E886",
"cX c #EDF689",
"vX c #F7F789",
"bX c #E7E698",
"nX c #FAEA96",
"mX c #EDF595",
"MX c #FBFD9B",
"NX c #F8F996",
"BX c #D5D2AA",
"VX c #EBD8A7",
"CX c #D9E7AD",
"ZX c #EAE7A7",
"AX c #F6EAA8",
"SX c #F4FCA3",
"DX c #FBFEA3",
"FX c #F8F7A9",
"GX c #F8ECB1",
"HX c #F8FAB8",
"JX c #ECF2AE",
"KX c #FEFECA",
"LX c #FCFBC4",
"PX c #F9F1CE",
"IX c #FCFCE3",
"UX c #DAEEC2",
/* pixels */
"7X7X6X5X4Xp.p.5.N.Z.0XeXD.B.BXPXVXhX*XW.W.U.U.U.U.@X@X`.1X#X%X2X2X2XvXvXMXMXDXDXSXSXSXMXNXvXvXvXvXkXZXHXHXMX3X,X,XxXlX-X@X_.`.U.",
"7X7X6XM.7.7.p.p.N.N.n.iXiX9XBXVXgXsX*X*X+X+X+XU.+X@X+X+X$X<X<X:X<X2XvXvXvXNXMXDXDXSXMXMXNXvXvXvXxXkXAXHXHXMX3X3X,XxXlX-X@X_.`.U.",
"F.F.0XqX5Xa.p.5.5X6X2.b.n.9XGXVXgXsX*X*X+X+X+X+XU.U.+X-X+X1X1X<X2XvXvXMXMXDXDXDXDXDXMXMXNXvXvXvXxXnXGXHXFXmX3X3XxXxXfX;X_.`.U.I.",
"F.F.9X0X0X8Xa.5.5X0X7.b.y.F.ZXGXgXsXXXT.+X+X+X+X;X+X;X-X-X#X#X1XxXcXcXMXNXMXMXMXDXMXMXMXNXvXvXvXmXAXHXHXSXmX3X,XxXxX-X@X_.`.I.I.",
".X!.G.G.0X7X4X7.7.6X1.B.3.<.G.gXgXsXsXsX*X*X*X*X+X+X*XP.=X=X=XxXNXmXmXDXmXmXNXMXMXMXMXMXNXvXvXvXnXGXHXHXSXkXkXkXzXxX%X_././.I.I.",
"OXoX.XR.D.B.i.7.q.6X7.6Xb.<.R.gXsXsXgXgXfX*X*X*XXX*X*Xf.XXkXNXmXmXSXSXSXoXkXmXDXMXMXMXMXMXMXvXNXFXHXHXFXmXkXkXxXzX1X&X/././.I.L.",
"OXoXdXuX.XD.b.2.7.6X1.M.b.l.R.R.sXsXgXlXfX*XXXXXXXsXaX_ ) f.x.e.z.J.J.J.x.uXSXmXMXMXMXMXMXMXNXSXHXHXHXSXmXcXkXzXxX-X[./.j./.).).",
"OXoX=XdXjXyXF.n.qX0X3.M.m.<.R.sXsXsXsXhX*XT.T.XXsXaXaX<.3 3 3 x x m x J ( jXHXSXSXSXMXSXDXSXSXFXKXLXFXmXmXcXzXzXxX-X[./.k./.).`.",
"uXoX=XdXkXbXjXpXiX0XV.V.V.l.wXgXT.sX*X*X=X*Xc.aXaXaXBX3.3 x x m m m ~ ~ ( JXJXHXHXyXSXSXFXFXFXHXKXHXSXmXmXcXzXzXzX+X`.'./.I._.%X",
"uXuXuXdXkXkXjXjXpXaX0X0XB.l.H.R.sX*X*X*X*XsXv.x.pXBXBXy.b b G G H H ^ ~ ( CXHXHXpXyXJXHXHXHXHXHXLXHXSXmXvXvXzXzX-X_.(.(./.).$X%X",
"pXuXuXdXkXkXjXbXbXZXaXiX9Xm.D.H.sX*X;X*X*XdX.XK m.D.7X2.S N F D F H ^ ^ :.eXCXCXz.yXHXHXHXHXKXLXHXHXNXNXvXzXzXxX&X[.[.`.`.$X<X-X",
"pXpXpXuXuXuXjXkXbXAXZXZXpXtXiXwXsX*XhXsXsXgXgX! U ,.1.;.*.| -.X.-.>.>.:.y.n.Z.l.) pXHXHXLXHXKXHXHXFXMXNXvXvXxX1X[.{.[.).+X-XxX,X",
"yXpXpXpXuXuXuXjXkXnXbXbXZXZXGXVXgXhXhXsXgXgXZX0.: L n @.@.A | } F | *.*.^ R E J <.HXKXLXKXLXKXHXHXSXNXvXvXxX1X%X[.&X&X).*XlXzX,X",
"eXyXpXpXpXyXyXuXdXdXkXbXZXJXHXGXGXAXgXsXAXgXZXm.: 2 , 1 a - e ; * ; - ; 1 3 2 J m.KXKXLXKXKXKXHXFXMXvXvXvXxX<X&X{.}.@X+XfXnXzX,X",
"!..XaXaXaXiXyXyXuXuXoXuXjXZXJXGXHXGXAXVXGXZXZXG.: 2 1 , 1 ; ; ; b ; ; 1 1 3 L ) 0XPXLXLXKXKXHXHXDXNXvXvXxX1X%X[.}.{._.*XnXAXxXcX",
"F.F.eXeXeXeXtXyXuXuXuXuXjXbXZXGXGXZXHXGXAXZXJXiX2 n n a n N a b b b b n n L E V.wXIXPXKXKXLXJXSXMXvXvX2X1X1X%X{.}.{.`.=XAXFXxXxX",
"8X8X7X7X7XF.F.F.tXtXuXpXpXbXZXZXJXHXJXbXpXZXpXCXI 1 F A b A N D c v G G m x E b.BXIXIXPXKXHXSXmXcXvX2X2X>X&X{.{.{.].$X1XnXnXzXxX",
"8X8X8XN.B.A.Z.Z.F.eXtXpXpXgXbXbXZXbXFXFXAXtXpXCX^ ; M v 9 M e e v v v v b x R 3.PXIXPXKXHXFXmXNXcX2X2X>X}.{.{.{.[.$X#XxXNXzXxX=X",
"5X5X5XN.N.N.n.n.m.D.9XyXuXdXkXkXFXZXAXGXGX9X9XUX5.| X.+.+.O.X.X.6.6.>.>.:.u.s.8XIXPXBXKXHXSXmXcXcX3X3X>X}.}.{.{.$X#XxXnXNXzX#X$X",
"N.N.N.N.a.a.i.b.n.B.D.G..XoX,X,XgXGXZXAXGXpX,.,.*. .X.O.X.O.O.6.5.5.5.p.p.p.s.d.7XZ.pXFXDXmXNXcX2X3X>X}.}.|.{.[.+X-XnXNXnX-X_.~.",
"N.N.N.M.i.i.i.i.N.V.m.H.Y.oX:X<XdXdXdXnXAXGX) : a a N B M M M b ; a a a N N b x J e.NXNXvX2X3X2X2X3X>X}.|.|.{.].$XlXAXnXlX$X/.k.",
"Z.B.n.n.b.i.i.a.N.M.b.z.S. X#X#XxXv.Y.gXgXGXD.: 1 - = = - - = % , - - = - - , 3 J J.DXMX3XvX^.3X2X>X}.}.|.|.{.$X-XlXnXlX=X)./.j.",
"G.F.F.F.D.B.M.M.N.M.b.z.S.XX*X=X=Xv.f.dXbXpXG.% 3 1 % = 1 1 1 , 1 - = * - - - 2 U G.mXkXvX3X^.3X>X>X}.}.}.{.&X%XlXnXlX;X+X/./.j.",
"!.eXtXpXiX0XB.B.V.V.V.z.S.T.*X*X=XoXK .XbXZXiXI n R F } } F R @.-.$.| *.-.*.*.=.2.CXHXbXMXP.^.2X>X}.}.}.}.&X%X-XnXlX-X+XU././.(.",
"A.D.eXtXZXtXZ.m.n.D.m.c.S.T.W.*X=X=X_ _ D.eXrX*.X.o.X.X.O.O.O.6.6.5.6.6.u.u.u.u.d.rXCXCX.Xf.,X>X>X}.>X>X&X#X1XzXzX-X+X`.`.(.(.(.",
"m.m.D.A.eXiXz.D.l.x.z.S.E.*XW.*X XoXz.J ( m G v D ` ` ` +.o.o.o.6.6.6.r.r.r.r.u.d.4XZ.n.x.f.1X>X>X}.&X#X-XxXzXzX1X&X_.`.(.(.(./.",
"N.i.b.B.Z.m.) tXx.8.S.Q.v.T.*X+X X=XS.J I m b D v v v v D D o.o.o.o.H H r.r.r.t.d.d.n.l.8.v.<X{.>X>X:X,XxXNXNXxX&X[.(.(.(.(.`.I.",
"a.7.7.i.y.) U G.x.x.T.T.c.K.;XL.K.=X XJ J I G F b b v G G G H H H ^ H t.t.t.t.y.y.y.l.x.K P.&X>X#X1XxXzXNXNXzX%X[.'.(.(.(.(.`.I.",
"7.4X1.Y E U W ) ) 8.E.hXK.g.@XK.h.-XT.J J I R F F R R R ^ I ^ ^ ~ ~ H ~ ~ ~ ( ) ) ) 8._ K L.].>X#XzXMXNXzXzX<X_.[.'.(.(.(.`.`.).",
"7.a.%.1 n 2 E ! ! Q w.hXE.8.T.K.h.U.c.K > 3 n n #.=.R / / I / ^ ^ ( ~ ~ ^ I I / W K K K 8.-X%X$XlXNXDXNXxX:X$X].[.'.'.'.(.`.`.).",
"p.:.S s 2 2 P W ! Q Q Q.c.8.K.K.h.P.E.c.$ o , S S S a S n b m m n L n S S S S R ,.U J J g.fXfXlXAXAXnXkX,X#X].].'.'.'.'.'.`.).).",
"a.=.b 1 2 E T P P &.Q 0.8.8.c.c.g.w.c.c.j k i f N V ; b n 1 S S n k g g V V V F R U ) 8.E.fXlXnXAXnXdX,X<X:X].].'.'.'.'.'._.`.`.",
"i.#.n g s s k P &.! Q Q l Q C.0.0.l 8.Q._ $ n V ' { a n L s S @.%.T s g ] N } *.=.E ! 8.hXfX-XzX<X<X<X:X&X&X].].{.{.'.'.[.@X+X+X",
"7.#.s a g g s < l P W Q l l W P s k z c.8.> L $.X.-.@.E E E %.7.7.1.#.1.1.*.5.N.B.l.8.c.fX-X-X#X>X>X>X&X&X>X>X&X{.[.[.[.@X@X@X@X",
"1.#.g a s g s < k l l l l h l l T W j K w.z 2 a 0 0 a : > 2 i g i s , < 2 s n L P ! 9.E.fX;X1X:X:X#X#X&X<X<X>X&X{.[.[.{.&X&X@X@X",
"s s s , , # $ , < > h P W l P < T l j j c.8.< + 4 & n > > k , i o 1 2 2 < L k > j z w.;X-X@X#X:X:X#X#X-X1X1X%X].&X&X&X{.&X&X_.`.",
"s n s g g , , s k < P W P h T < < > z 9.E.Q.L - 9 - Y < > L , i 1 1 2 L h T P ! 9.9.K.;X;X<X].:X<X-X#X-XxX1X<X$X%X>X&X].]._._.`.",
"1.#.s i i , , k T h W T h < &.Y < h j c.E.wXE a p 6 Y 2 < T s n 2 2 L P h Q ! ! 9.9.W.hX;X1X:X2X1X-X=X-XxXxX1X<X%X%X].)./.)._._.",
"1.=.g , s i i Y < < P P L L 1.#.k h j c.S.aX,.1 p 6 S s < L k L 2 L T T h 4.Q K 9.9.hXfX-X-X3X2X#X$X$X=XfXxX-X-X#X#X$X~.~.)._._.",
"1 g i , i i , s $ $ > $ s s ;.=.Y L 0.x.C.pXE 1 p e S n 2 L k k L 2 L E h &.Q 9.9.8.W.hXfX=XxX,X X X X=XdXdX=X X*X=X#X_.~.`.`.).",
"i s , # # , , 2 < k 2 2 s R S 7.a L 0Xl.m.wX,.; N e p #.L 2 2 k L k 2 T E 4.Q Q 0.8.E.AXgXnXkXoX$X,X=X XY.Y.v.f.v.oX=X=X+XL.).).",
"@.%.g s # , o $ #.3.,.Y s a A ;.:.#.b.3.m.m.E b N Z *.i.#.n n E L k T T E ,.E W 4.0.C.G.tX.XG..X X$XOXoXY.x.x.v.Y.dXdX=X+X).@X+X",
"i a = , # , o < T ,.,.n 1 ; V { 5.;.R n I I R *.-.-.-.;.=.i.M.b.q.q.M.=.E =.U U L U / U / 4.) _ f.OXoXuX.XS.G.R.Y.dXdX*X X+X+XL.",
"1 - # - - , , 2 , L 1.s = 9 w 0 6.p.:.R ^ R F S D { C A S 7.M.b.q.V.M.Y n =.,.R #.n R =.^ ,.2.U f.kXoXuXtXG.G.z.z.S.XX*X*X@X@XU.",
"a - - # , , i , 2 #.6XY X * 4 8 c p.p.F S F b A p.| c  .@.;.3.b.3.q.2.R =.2.M.1.=.a b >.5.;.7.2.z.dX.XpXaXD.m.z.H.S.XX=X$X+XU.I.",
"- + + + - , i , < L 3.a   e r c r -.5.D A *.F ;.4XX.0 M S =.2.4.4.3.E =.y.2.i.=.@.*.D D X.-.-.=.l.uXR.iXiXD.n.D.iXR.uX=X+XI.I.I.",
"- ; 6 a = a , o o o % % * M ' ` +...[ { -.5.p - M | -. .N =.3.4.3.2./ y.i.N.M.3.R 7.X.c ` +...A U tXG.D.B.B.b.m.D.z..X*X~.).`.(.",
"* p a S + g - o , , X a p t c c ` X.[ .. .| e 9 e { -.| N =.3.4.,.2.=.=.:.N.M.7.;.5.-.X.[ ` X.{ 2 D.D.l.n.0Xb.B.l.x..X=X~.`./.I.",
"* * 6 } - a - # # - = V ' y c u ' ` u Z '  .Z [ Z c B w w $.;.;.;.;.@.-.;.;.;.;.N  .-...X.Z y w ; 3.A.z.n.V.V.B.H.Y. X X$X+X).).",
"* * q } 6 a - = @ - + 7 B y 5 5 r c r c c c c Z c r C Z Z -.;.-.;.;.$.-.;.| | | M -.6.{ -.| M | S y.A.z.m.B.B.C.R.OX=X,X1X$X`._.",
"O * q ] 6 - = = @ 6 & & d t & 5 u r c r r 8 r Z c r Z C { -.-.-.-.-.{ -.;.A | | } ;.p.{ | Z { | S 3.D.J.D.C.D.C.gXzXzX1X-X+X+X<X",
"X * 9 A 6 = # = + 7 p & q d 5 5 8 y c u r 8 c [ ' c c t Z | | $.$.-.V -.;.M $.| -.$.p.5.C 9 { N a 2.9XG.G.C.G.S.gXxX#X_.L.P.L.%X",
"O 4 7 V q @ + # + + f 7 & y 8 * 4 0 t 5 u 8 c [ ..' t 9 M  .| | | | Z | -.e C M A } -.5X} 9 V b 1 ,.9X.XR.S.R.S. X X~.~.L.P.I.@X",
"O 4 4 f q X X X @ @ f p O 4 0 O 8 y y 4 8 8 t ' [ [ c 8 c |  .|  . .C | ;.p V p M A | 5.p.p f S s E m.R.Y.R.R.E.T.+X`.`._.).U.@X",
"O 5 O q q X X . X # a p & & 9 O 4 y y 0 8 0 y c B [ ' u c  . .|  .D { } 6.A } C A N | A 5X} N f g s 4.tXY.XXT.Y. X+X`.).).`.U.+X",
"O 4 O q d @ @ X   - - 6 7 * & O O 0 0 0 4 0 0 t y [ [ u t [ { | | D D M -.A } A  .N N A ;.a.N a a - / aX.XXXT.*XL.+X_.`._.@X@X+X",
"O & & 7 f @ + + @   # 6 & X 6   X 4 4 & 0 0 0 u y B [ t t [ { { C C C N N w Z N $.V $.] A p.@.7 f a 2 G.bX X X X+X=X<X<X&X$X;XfX",
"* 7 & 7 f @ @ @ @ # +   +   + + X & & O & 5 5 0 t c ' y y ' [ ' { { C Z C w Z p N V N } N -.} f q 6 1 D.AXoX=X=X-X1X1X1X<X-XfXfX",
"X + + - a @   . X +     X   X     X X X O * 4 9 0 0 y 4 w { { ' { C Z N { M V w e A p $.A f ] $.d q , n.HXkXxXxXlXxX1X1X1X1XxXfX",
"= - - a g =   .       + + = 6   * & * * 9 w w 9 9 4 0 4 q ' ' ' Z N M M ' M B e e { f } $.q A $.] d 1 <.FXNXzXzXlXfX-X<X<X1XxXfX",
"1 1 - - a -       @ = a - 6 p - p p f p p d w & 4 4 e 9 0 B B V B M M t V w B w t V ' f -.f d f ] V a / bXzX1XlXlXlX-X<X>X>X-XfX",
"- - o X % -       a 6 6 6 * - A p N ] V w w w e & * 9 9 w V B V B B B c B q B t d w ' 9 $.] q 7 ' A S U uXxX-X-XfXfX-X%X].].#X=X",
"% , % o - g + X X a - 6 6 = * N N N A V w M C M 9 * & 9 w V M V M B B M ' t V d d d B q ]  .d q t ] #.U S.1X#X-XfXfX-X$X].].$X$X",
"% 1 , % - S X   # = = A N p e 6 N e ; - * w M 4 N 9 9 9 w M q w t d M d ' d ' d t B q d B ] d d q ] #.J c.=X$X$XfX;X$X].].{.&X#X"
};
