/* XPM */
static char *_f5f6e21ba304097cb7c2649f45dfa47p4h01PE3YU2DQLXl[] = {
/* columns rows colors chars-per-pixel */
"64 64 222 2 ",
"   c #4E2501",
".  c #4E2B0C",
"X  c #4B2B05",
"o  c #512401",
"O  c #552803",
"+  c #532B0C",
"@  c #5A2B0D",
"#  c #53270C",
"$  c #4F2B10",
"%  c #522C11",
"&  c #5E3113",
"*  c #6B340B",
"=  c #683508",
"-  c #753B0E",
";  c #7B3D0D",
":  c #643414",
">  c #6E3915",
",  c #6C3717",
"<  c #733B15",
"1  c #7B3B14",
"2  c #723D1A",
"3  c #733712",
"4  c #7E4C0D",
"5  c #7C4112",
"6  c #8B4D0F",
"7  c #8A4D15",
"8  c #844615",
"9  c #845310",
"0  c #995215",
"q  c #954E18",
"w  c #A15414",
"e  c #A35B1C",
"r  c #AF5D14",
"t  c #94641C",
"y  c #A3631E",
"u  c #AE6119",
"i  c #924D23",
"p  c #945120",
"a  c #9A5421",
"s  c #985828",
"d  c #A05B24",
"f  c #A56420",
"g  c #AC6F2B",
"h  c #AF792F",
"j  c #BB7627",
"k  c #B47533",
"l  c #CD7E2B",
"z  c #C77C29",
"x  c #BB7D40",
"c  c #AF803A",
"v  c #C3862A",
"b  c #DD952B",
"n  c #DD9B2D",
"m  c #D7922D",
"M  c #C78338",
"N  c #D68B37",
"B  c #CC9539",
"V  c #CA9638",
"C  c #D49536",
"Z  c #DC9533",
"A  c #DB9C34",
"S  c #DB953A",
"D  c #D49A39",
"F  c #DD9C3B",
"G  c #D39538",
"H  c #E2972D",
"J  c #E39B2D",
"K  c #E89B2F",
"L  c #E08F36",
"P  c #E49532",
"I  c #E59C32",
"U  c #E99D34",
"Y  c #E79D3B",
"T  c #E99D3B",
"R  c #DDA02F",
"E  c #DEA631",
"W  c #DBA43E",
"Q  c #D9A63D",
"!  c #E4A32F",
"~  c #EAA32F",
"^  c #E5A333",
"/  c #EAA334",
"(  c #E4AB35",
")  c #E9AC36",
"_  c #E3A33A",
"`  c #EAA33A",
"'  c #E4AC3A",
"]  c #EBAD3B",
"[  c #EBB137",
"{  c #E6B13B",
"}  c #EBB33D",
"|  c #EDBB3F",
" . c #F0B83F",
".. c #F1B43F",
"X. c #F0A337",
"o. c #AB8E42",
"O. c #B1954D",
"+. c #B19444",
"@. c #B78B44",
"#. c #BFA657",
"$. c #BAB36F",
"%. c #BDBC79",
"&. c #CD9B41",
"*. c #CB9E49",
"=. c #D69949",
"-. c #D0924D",
";. c #E69E45",
":. c #CAA14F",
">. c #DDA443",
",. c #DDA844",
"<. c #DCA54C",
"1. c #DBAB4C",
"2. c #D4A54B",
"3. c #DDB64F",
"4. c #DCBC4F",
"5. c #C8A856",
"6. c #D4AA54",
"7. c #DCAD53",
"8. c #D4AA57",
"9. c #CEB153",
"0. c #DBB553",
"q. c #D3B35B",
"w. c #DDBC5B",
"e. c #D9B95C",
"r. c #E4A242",
"t. c #EAA445",
"y. c #E3AC42",
"u. c #EEAC44",
"i. c #E7A84B",
"p. c #E5B344",
"a. c #ECB541",
"s. c #EEBB44",
"d. c #E4B44A",
"f. c #EBB64A",
"g. c #EBBB4B",
"h. c #E3BA4D",
"j. c #F2B543",
"k. c #F2BB45",
"l. c #F3BD49",
"z. c #FABC4B",
"x. c #EDAB55",
"c. c #E4AA54",
"v. c #E2BC54",
"b. c #EABD53",
"n. c #ECBB5D",
"m. c #E7BA59",
"M. c #F3BB5D",
"N. c #F3B756",
"B. c #C7AE65",
"V. c #CAB668",
"C. c #D4B562",
"Z. c #D9B563",
"A. c #D3BE63",
"S. c #D5BC6B",
"D. c #DABA69",
"F. c #D9BB66",
"G. c #CDBF76",
"H. c #D9BE73",
"J. c #D3BF74",
"K. c #EAB863",
"L. c #BEC47C",
"P. c #EEC44B",
"I. c #EEC84B",
"U. c #F3C246",
"Y. c #F4C44C",
"T. c #F9C44D",
"R. c #F4C94E",
"E. c #F9C84F",
"W. c #E3C255",
"Q. c #EDC253",
"!. c #E4C25D",
"~. c #EBC35A",
"^. c #F4C451",
"/. c #FAC651",
"(. c #F2C856",
"). c #CEC36D",
"_. c #DDC363",
"`. c #D5C46C",
"'. c #DAC46C",
"]. c #D4C061",
"[. c #CDC475",
"{. c #C5C67D",
"}. c #CCC47C",
"|. c #CAC87C",
" X c #C5C97F",
".X c #D4C474",
"XX c #D2C37C",
"oX c #DBC47C",
"OX c #D4CA7C",
"+X c #DACA78",
"@X c #E2C564",
"#X c #E1C369",
"$X c #E4C975",
"%X c #BEC784",
"&X c #BFC986",
"*X c #B6C58D",
"=X c #BCC68A",
"-X c #B5CB8E",
";X c #BCC98D",
":X c #AFCC92",
">X c #B6C793",
",X c #BAC791",
"<X c #B6CB93",
"1X c #B9CA93",
"2X c #B4CB99",
"3X c #B9CA99",
"4X c #BAD197",
"5X c #C4C785",
"6X c #CAC684",
"7X c #C4C985",
"8X c #CBCA83",
"9X c #C2C78A",
"0X c #C1C989",
"qX c #C2CA8B",
"wX c #CBCA8B",
"eX c #D2CA84",
"rX c #DACC83",
"tX c #D0CC8A",
"yX c #D5C481",
"uX c #C2CC91",
"iX c #CBCE91",
"pX c #E1CA84",
/* pixels */
"<X<X<X<X<X<X<X<X<X<X<X<X<X<X<X<X<X<X<X<X<X<X<X<X<X<X<X<X<X<X<X<X<X1X<X<X3X<X<X-X-X-X<X<X1X<X<X<X<X<X<X<X<X<X<X<X<X<X<X<X<X<X<X<X",
"<X<X<X<X<X<X<X<X<X<X<X<X<X<X<X<X<X<X<X<X<X<X<X<X<X<X<X<X<X<X<X<X<X<X<X<X3X<X<X<X<X<X<X<X1X1X<X<X<X<X<X<X<X<X<X<X<X<X<X<X<X<X<X<X",
"<X<X<X<X<X<X<X<X<X<X<X<X<X<X<X<X<X<X<X<X<X<X<X<X<X<X<X<X<X<X<X<X<X<X<X<X<X<X<X<X<X<X<X<X1X1X<X<X<X<X<X<X<X<X<X<X<X<X<X<X<X<X<X<X",
"<X<X<X<X<X<X<X<X<X<X<X<X<X<X<X<X<X<X<X<X<X<X<X<X<X<X<X<X<X<X<X<X<X<X<X<X<X<X<X<X<X<X<X<X1X1X<X<X<X<X<X<X<X<X<X<X<X<X<X<X<X<X<X<X",
"<X<X<X<X<X<X<X<X<X<X<X<X<X<X<X<X<X<X<X<X<X<X<X<X<X<X<X<X<X<X2X2X<X<X<X<X<X<X<X<X<X<X<X<X<X1X<X<X<X<X<X<X<X<X<X<X<X<X<X<X<X<X<X<X",
"<X<X<X<X<X<X<X<X<X<X<X<X<X<X<X<X<X<X<X<X<X<X<X<X<X<X<X<X<X<X<X1X0X&X-X<X1X<X<X<X<X<X<X<X<X<X<X<X<X<X<X<X<X<X<X<X<X<X<X<X<X<X<X<X",
"<X<X<X<X<X<X<X<X<X<X<X<X<X<X<X<X<X<X<X<X<X<X<X<X<X<X<X<X<X<X1X0X[.V.%.qX,X,X1X<X<X<X<X<X<X<X<X<X<X<X<X<X<X<X<X<X<X<X<X<X<X<X<X<X",
"<X<X<X<X<X<X<X<X<X<X<X<X<X<X<X<X<X<X<X<X<X<X<X<X<X<X<X<X<X;X0X}.C.#.$.qX,X>X1X2X<X<X<X<X<X<X<X<X<X<X<X<X<X<X<X<X<X<X<X<X<X<X<X<X",
"<X<X<X<X<X<X<X<X<X<X<X<X<X<X<X<X<X<X<X<X<X<X<X<X<X<X<X<X-X0XeXV.+.B.iX1X3X<X<X<X<X<X<X<X<X<X<X<X<X<X<X<X<X<X<X<X<X<X<X<X<X<X<X<X",
"<X<X<X<X<X<X<X<X<X<X<X<X<X<X<X<X<X<X<X<X<X<X<X<X1X<X2X<X1X%XrX#.o.oX9X1X<X<X<X<X<X<X<X<X<X<X<X<X<X<X<X<X<X<X<X<X<X<X<X<X<X<X<X<X",
"<X<X<X<X<X<X<X<X<X<X<X<X<X<X<X<X<X<X<X<X<X<X<X<X<X<X<X<X<X=XwXB.O.pX9X1X<X<X<X<X<X<X<X<X<X<X1X<X<X<X<X<X<X<X<X<X<X<X<X<X<X<X<X<X",
"<X<X<X<X<X<X<X<X<X<X<X<X<X<X<X<X<X<X<X<X<X<X<X<X<X-X1X1X<X1XqX}.O.oX9X<X<X<X<X<X<X<X<X<X<X1X1X1X<X<X<X<X<X<X<X<X<X<X<X<X<X<X<X<X",
"<X<X<X<X<X<X<X<X<X<X<X<X<X<X<X<X<X<X<X<X<X<X<X<X-X-X,X3X2X3X;XwXO.XXqX2X2X<X<X<X<X<X<X<X<X<X<X<X<X<X<X<X<X<X<X<X<X<X<X<X<X<X<X<X",
"<X<X<X<X<X<X<X<X<X<X<X<X<X<X<X<X<X<X<X<X<X<X<X<X<X1X<X>X3X>XqXyX:.B.iX1X<X<X<X<X<X<X<X<X<X<X<X<X<X<X<X<X<X<X<X<X<X<X<X<X<X<X<X<X",
"<X<X<X<X<X<X<X<X<X<X<X<X<X<X<X<X<X<X<X<X<X<X<X<X<X1X2X<X1X0XJ.q.<.V }.uX1X1X<X<X<X<X<X<X<X<X<X<X<X<X<X<X<X<X<X<X<X<X<X<X<X<X<X<X",
"<X<X<X<X<X<X<X<X<X<X<X<X<X<X<X<X<X<X<X<X1X;X;X=X7X5X7X7X{.+Xq.V A v 5.OX6X6X5X9X=X;X;X<X<X<X<X<X<X<X<X<X<X<X<X<X<X<X<X<X<X<X<X<X",
"<X<X<X<X<X<X<X<X<X<X<X-X-X<X<X<X<X<X1X1X;X&X|.[.`.'.@X@X!.~.Q.Y.Y.^.b.d.1.7.Z.S.XX8X0X-X<X<X<X<X2X2X<X<X<X<X1X<X<X<X<X<X<X<X<X<X",
"<X<X<X1X<X<X<X2X<X<X<X<X<X<X<X<X1X;X=X7X8XOX'.@X~.Q.g.g.s.s.s.s.a.} } ( ^ _ r.<.*.5.G.tX=X*X<X<X2X2X<X1X<X1X<X<X<X<X<X<X<X<X<X<X",
"<X<X<X;X1X1X<X2X<X<X<X<X1X<X<X<X*X0XOX'.w.d.d.y.y.' ' ' ( ( ( ( ( E ^ R n n n A A C V :.H.eX0X1X<X2X4X<X1X<X<X<X<X<X<X<X<X<X<X<X",
"<X<X<X<X1X1X<X2X<X<X1X,X;X9X0X7X8XOX_.3.p.} ..k.k.k.l.l.l.T.T.T.U.k.l.k.j.] / / / / ` F 2.D.+X|.8X9X=X;X1X1X<X2X<X<X<X<X<X<X<X<X",
"1X1X<X<X<X<X<X<X<X<X<X;X6X.X'._.!.W.W.Q.Y.T.T.U.Y.Y.Y.Y.Y.Y.Y.U.Y.T././.z.j.] / / / ^ _ _ W >.1.7.Z.J.6X9X1X<X<X<X<X<X<X<X<X<X<X",
"1X1X<X<X2X<X<X<X<X1XqX8X'.@X~.^.U.Y.Y.U.U.k.| k.s.s.s.s.s.s.k.k.k.s.s.a.} ] / / / / / ^ / / / U _ B *.B.yXwX;X<X<X<X<X<X<X<X<X2X",
"<X<X<X<X<X2X<X<X<XuXOX@X~.Q.l.l.k.s.a.} ] [ [ ) ( ( ' ' _ ^ ^ ! ^ E R n n J K K I H J J H H H H b Z C G &.D.wX<X<X<X1X<X<X<X<X<X",
"<X<X-X-X<X<X1X1X1X8X#Xb.s.} } ) ( ( ( ( ( ( ( [ } } } a.a.j.j.j.j.a.a.} ] ] / ^ ^ ^ / I I I I I H I b Z m &.XX=X1X<X;X;X<X<X<X<X",
"-X-X-X-X1X<X1X,X9XrXv.{ ( ( } } s.s.k.k.l.U.Y.Y.Y.Y.T.T.T.T.T.Y.Y.Y.Y.U.l.Y.s.a.] / / / / / ` ` / / ` ^ I D Z.rX9X<X;X;X1X<X<X<X",
"-X-X<X<X1X=XwXeX.X_.d.s.U.U.U.U.Y.Y.Y.Y.Y.Y.Y.Y.Y.Y.Y.U.Y.Y.Y.Y.Y.Y.Y.Y.Y./.U.k.j.] / / / / ` ` / / ^ ^ / _ c.Z.XXwX=X;X<X<X1X<X",
"<X<X<X<X,XtX$Xe.v.P.Y.Y.Y.Y.Y./.Y.Y.Y.Y.Y.U.U.U.Y.U.U.U.Y.Y.Y.Y.U.Y.Y.Y.Y.Y.l.k.} ] / / ^ ^ ^ / ` ` ^ ^ / / ` r.1.Z.tX,X>X2X<X<X",
"<X2X2X*XwXoX0.P.U.Y.T.U.s.k.l.s.k.k.s.s.s.s.k.k.k.s.s.s.s.s.s.s.k.k.a.s.s.a.} ] / / ^ / / ` / / ` ` / / ^ / / / ` D S.wX,X<X<X1X",
"2X2X<XuX.Xw.Q.Y.U.k.k.k. . .j.j.a.a.u.] ] ] ] ] _ ^ ^ ^ ^ ^ _ ^ ^ ^ ^ ^ J J J J n n n n H H J U U I U U U I U / ^ A &.H.wX1X1X<X",
"2X2X<X7X'.m.P.s.s.} a.} ) ( ( ( ^ ^ ^ ^ ^ ^ ^ ^ ^ ^ ^ ^ ^ ^ ^ ^ ^ ^ ^ / / I ` u.t.t.t.t.t.Y T I J H H H I H H b b A C 8.wX<X1X-X",
"<X<X-XqX.X0.f.{ ] ) ( ( ( { } } } } } a.s.s.s.k.k.k.k.k.k.k.k.k.s.U.k.f.N.M.K.=.-.x k k M =.;.t.` ` / / / / / I I Z C 8.iX2X<X<X",
"<X1X1XL.+X~.' a.} k.k.l.U.U.Y.U.U.U.U.Y.Y.Y.Y.Y.Y.Y.Y.Y.Y.Y.U.U.U.s.f.n.7.h 4 = = * * - ; 6 f j S ` I / ! / ` ` ` ` F K.wX<X<X-X",
">X1X;X8X_.d.s.U.Y.Y.Y.Y.Y.Y.Y.Y.Y.Y.Y.Y.Y.Y.Y.Y.Y.Y.Y.Y.Y.U.U.s.s.p.K.@.=   o @ @ @ @ : < - ; q e N Y / / / / ` ` ` ` 1.XXqX1X<X",
"3X*XqX[.3.l.U.Y.Y.Y.Y.I.Y.Y.Y.Y.Y.Y.Y.Y.Y.Y.Y.Y.Y.Y.Y.Y.U.k.k.s.p.M.c     + % . % % + # : > < 1 a w l T ^ ^ ` / / / / W S.6X;X1X",
">XqX{.V.h.U.Y.Y.Y.Y.^.Y.Y.R.Y.Y.Y.Y.R.Y.Y.I.Y.Y.Y.Y.Y.Y.k.s.k.s.f.*.O O + $ . % $ % + + # : 2 3 8 a u Z ` / ^ ^ / / / W 5.}.;X<X",
"1X;X7X).4.P.T.Y.Y.Y.^.Y.Y.Y.Y.Y.I.I.I.I.I.I.Y.Y.Y.Y.Y.Y.k.s.k.f.n.t o % . % . . % % . . + & 2 > 1 s 0 l ` ^ ^ ^ / / ^ Q S.6X=X<X",
"-X-X;X8X].h.Y.U.U.Y.I.I.I.I.Y.R.Y.Y.Y.Y.Y.Y.Y.Y.Y.Y.Y.Y.U.s.k.p.m.4 o % . X + + % % . + + & < - ; p 0 j ` ^ / / / ` ,.e.eX;X<X<X",
"1X<X<X=X+X!.{ k.U.Y.Y.Y.R.Y.U.Y.Y.Y.Y.Y.Y.Y.Y.Y.Y.Y.Y.Y.U.s.s.p.m.9 O # + + + . + % + + @ : < - 8 d w z ` / / / / I >.$X5X<X<X<X",
"1X<X>X=X.Xw.' ( ] } } k.k.U.U.U.U.U.Y.Y.Y.Y.Y.Y.Y.Y.Y.Y.Y.U.l.f.M.h = @ o # + + % + # @ : 2 < 1 p 0 r L U U U U I P Z 8.wX<X<X<X",
"1X<X3XqX[.m.^.k.} ] ) ( ( ( ( ( ) ) ) { { } } } } a.} a.a.a.a.a.f.c.6 * : @ @ # # @ : , 2 3 1 i a w l P U J P P I I S 2.5X<X<X1X",
"1X<X<X;X.Xw.Q.R.Y.P.U.s.a.a.} } ) ) ( ( ( ( ^ ^ ^ ^ ^ ^ ^ ^ ^ ^ A i.=.6 - < , , > 2 2 3 - 8 p 0 e M Y / ` / ` / / _ >.C.wX<X<X<X",
"1X<X<X;X|.`.W.P.(.Y.Y.Y.T.T.Y.l.U.l.l.l.l.l.k.k.k.k.k.j.j.j.j.j.j.y.N.<.g 7 8 5 5 - 5 7 7 6 e g N ;.` / ^ ^ / / ^ Q 8.rX=X<X<X<X",
"2X<X1X;XqX8X`.w.b.Y.U.U.Y.U.Y./.Y.Y.Y.Y.Y.Y.Y.Y.Y.Y.Y.Y.Y.Y.Y.Y.Y.s.) f.N.<.M g f y y f j v S r.` / / / ^ ` ` ` Q 9.eX=X1X<X<X<X",
"2X<X1X1X1XqX6X.XF.b.s.k.Y.Y.Y.Y.Y.Y.Y.Y.Y.Y.Y.Y.Y.Y.Y.Y.Y.Y.Y.Y.U.U.| } a.f.N.N.x.x.i.t.t.t.` / / ~ / / ^ _ W <.q.OX=X<X<X<X<X<X",
"1X1X<X<X-X;X,XqXwX+X0.' { } s.k.s.k.l.U.U.Y.Y.Y.Y.Y.Y.Y.Y.Y.Y.Y.Y.Y.U.k.l.j.u.u.t.` Y ` ` ` ` / / / / / X._ 7.oX6X0X1X<X1X<X<X<X",
"1X<X2X<X<X<X<X1X,X6XF.h.a.} ( ( ) { { { } } a.a.s.s.s.s.s.s.s.s.s.| a.[ ] ] / ^ / / / / / / U I I I I I b B S.6X,X1X>X1X<X<X4X-X",
"<X2X2X<X<X<X<X-X<X;X[.@X^.T.l.s.a.} } } { ) ( ( ( ( ( ( ( ( ( ( ( ^ ^ ^ I ^ ^ / ^ I J ^ / U I U U U I A D 5.}.;X1X2X1X1X<X<X<X2X",
"2X<X<X<X<X<X-X-X:X-X7X`.!.Q.~.(./.Y.U.l.l.k.k.k.k.k.k.k.a.} } } } ] ] / / / / / / / / ^ / ` ` ` r.r.>.1.Z.XX%X1X2X2X<X1X1X<X<X2X",
"<X<X<X<X<X<X<X<X<X<X;X7X}..X`._.~.^././.Y.T.Y.Y.Y.Y.Y.Y.U.U.U.U.T.T.l.] ^ ^ / / / / / / ` ` _ >.6.q.S.XX6X;X<X2X2X<X<X1X<X<X<X<X",
"<X<X<X<X<X<X<X<X2X2X<X1X=X7X{.[.`._.!.m.g.l.Y.Y.Y.Y.Y././.E.T.T.T.k.j.] ] ^ / / / / ` _ >.7.w.D..X}.6XqX1X<X2X<X2X<X<X1X<X<X<X<X",
"<X<X<X<X1X1X<X<X<X<X<X<X;X=X&X&X0X7X[.A.0.d.] ) ] ] ) ' { ) ) ( ) ^ ^ n I I K K I I D &.5..XwX0X7X0X=X;X<X<X<X<X<X<X<X<X1X<X<X<X",
"<X<X<X<X1X1X1X1X<X<X<X<X<X<X;X<X2X<X0X|.`._.m.b.f.f.f.f.p.p.] ] ( ( ' _ _ _ F C D &.6.S.eX0X-X<X-X-X<X<X<X2X<X<X<X<X-X<X<X<X<X<X",
"<X<X<X<X1X1X1X1X<X<X<X<X<X<X<X<X<X<X<X-X&X7X|..X'._.!.~.~.~.Q.Q.^.N.f.y.,.2.6.5.V.[.8X0X=X1X1X<X<X<X<X<X<X<X<X<X<X-X<X<X<X<X<X<X",
"<X<X<X<X<X<X1X1X<X<X<X<X<X2X2X<X<X<X<X<X<X<X;X&X X[.).S.A.A.e.q.9.q.q.F.D..XXXeXwXqX1X<X<X<X<X<X2X2X2X<X<X<X<X<X<X<X<X<X<X<X<X<X",
"<X<X<X<X<X<X<X<X<X<X<X<X<X<X<X<X<X<X<X<X<X<X1X1X;X;X;X0X9X9X7X0X7X5X9XwXqX9X=X;X;X<X<X<X<X<X3X2X<X<X1X1X1X1X<X<X<X<X<X<X<X<X<X<X",
"<X<X<X<X<X<X<X<X<X<X<X<X<X<X<X<X1X1X1X1X<X<X<X<X<X<X<X<X<X<X<X<X<X<X1X<X<X<X1X<X<X<X<X<X<X<X<X<X<X<X<X<X1X1X1X1X<X<X2X2X<X<X<X<X",
"1X<X<X<X2X<X<X<X<X<X<X<X<X<X1X1X1X1X1X<X<X<X<X<X<X<X<X<X<X<X<X<X<X<X<X<X<X<X1X<X<X<X<X<X<X<X<X1X<X<X<X<X<X<X<X<X2X2X2X<X<X<X<X;X",
"1X<X<X<X<X2X2X<X<X<X<X<X<X<X<X<X1X<X<X<X<X<X<X<X<X<X<X<X<X<X<X<X<X<X<X<X<X<X<X<X<X<X<X<X<X<X1X1X<X<X<X<X<X<X<X<X2X2X<X<X<X1X<X-X",
"1X1X<X<X<X<X<X<X<X<X<X<X<X<X<X<X<X<X<X<X<X<X<X<X<X<X<X<X<X<X<X<X<X<X<X<X<X<X<X<X<X2X2X<X<X<X1X<X<X<X<X<X<X<X<X<X<X<X<X<X<X<X<X<X",
"1X<X<X<X<X<X<X<X<X<X<X<X<X<X<X<X<X<X<X<X<X<X<X2X<X<X<X<X<X<X<X<X<X<X<X<X<X<X<X<X<X2X<X<X<X<X<X<X<X<X<X<X<X<X<X<X<X<X<X<X<X<X<X<X",
"<X<X<X<X<X<X<X<X<X<X<X<X<X<X<X<X<X<X<X<X<X<X<X<X<X<X<X<X<X<X<X<X<X<X<X<X<X<X<X<X<X<X<X<X<X<X<X<X<X<X<X<X<X<X<X<X<X<X<X<X<X<X<X<X",
"<X<X<X<X<X<X<X<X<X<X<X<X<X<X<X<X<X<X<X<X<X<X<X<X<X<X<X<X<X<X<X<X<X<X<X<X<X<X<X<X<X<X<X<X<X<X<X<X<X<X<X<X<X<X<X<X<X<X<X<X<X<X<X<X",
"2X2X<X<X<X<X<X<X<X<X<X<X<X<X<X<X<X<X<X<X<X<X<X<X<X<X<X<X<X<X<X<X<X<X<X<X<X<X<X<X<X<X<X<X<X<X<X<X<X<X<X<X<X<X<X<X<X<X<X<X<X<X<X<X",
"2X2X2X<X<X<X<X<X<X<X<X<X<X<X1X<X<X<X<X<X1X1X1X<X<X<X2X2X<X<X1X1X<X<X<X<X<X<X<X<X<X<X<X<X<X<X2X<X<X<X<X<X<X<X<X<X<X<X<X<X<X<X3X3X"
};
