/* XPM */
static char *_2e76f0f2711437ccb2eb1606b159e57upn5NDx4yGCFLtrk[] = {
/* columns rows colors chars-per-pixel */
"64 64 245 2 ",
"   c #030201",
".  c #0A0300",
"X  c #0D0A02",
"o  c #140200",
"O  c #1B0300",
"+  c #150D05",
"@  c #1B0A02",
"#  c #160D08",
"$  c #1A1309",
"%  c #1D1813",
"&  c #0E100D",
"*  c #240B00",
"=  c #280B01",
"-  c #370C00",
";  c #241403",
":  c #2D1402",
">  c #2D1904",
",  c #29150A",
"<  c #25170C",
"1  c #321D0B",
"2  c #361906",
"3  c #231A13",
"4  c #2A1D13",
"5  c #321F10",
"6  c #3D230E",
"7  c #36230C",
"8  c #2C231C",
"9  c #292518",
"0  c #342313",
"q  c #3C2A1C",
"w  c #362618",
"e  c #2D2109",
"r  c #2C2A25",
"t  c #292824",
"y  c #372B23",
"u  c #3C342A",
"i  c #3C3A37",
"p  c #43220C",
"a  c #48280D",
"s  c #5A2805",
"d  c #452914",
"f  c #4C321C",
"g  c #46361D",
"h  c #573519",
"j  c #653715",
"k  c #422F27",
"l  c #473628",
"z  c #543925",
"x  c #483B34",
"c  c #613F24",
"v  c #67431C",
"b  c #5A422A",
"n  c #49443A",
"m  c #5C4B3C",
"M  c #574636",
"N  c #65462B",
"B  c #654B37",
"V  c #76583C",
"C  c #6D5037",
"Z  c #4A4945",
"A  c #554B42",
"S  c #5B524A",
"D  c #5C5A54",
"F  c #675748",
"G  c #715B49",
"H  c #635A52",
"J  c #705F55",
"K  c #746148",
"L  c #686359",
"P  c #776659",
"I  c #6E6E66",
"U  c #776B63",
"Y  c #7E7669",
"T  c #7B7874",
"R  c #835431",
"E  c #AB723D",
"W  c #825B46",
"Q  c #8A6748",
"!  c #966B4A",
"~  c #856A54",
"^  c #866B57",
"/  c #8C745B",
"(  c #987458",
")  c #976D4F",
"_  c #AB7344",
"`  c #A4744A",
"'  c #AD7A4B",
"]  c #AB7746",
"[  c #B2774B",
"{  c #B37B4C",
"}  c #B57A46",
"|  c #AC7B54",
" . c #A37C5C",
".. c #AC7E5B",
"X. c #A37854",
"o. c #B37C52",
"O. c #B67E55",
"+. c #816F64",
"@. c #877668",
"#. c #987C66",
"$. c #947F75",
"%. c #887D75",
"&. c #A27E62",
"*. c #BB824B",
"=. c #B5804C",
"-. c #AC835D",
";. c #A68159",
":. c #B58153",
">. c #BB8454",
",. c #B4835B",
"<. c #BB855A",
"1. c #BD895C",
"2. c #B88857",
"3. c #AF814F",
"4. c #8A837A",
"5. c #99887A",
"6. c #9E856F",
"7. c #A38365",
"8. c #AA876A",
"9. c #BB8B63",
"0. c #B28B6B",
"q. c #BB8C69",
"w. c #B58864",
"e. c #AB916F",
"r. c #B9936A",
"t. c #A48A76",
"y. c #B18E76",
"u. c #BB997D",
"i. c #B99776",
"p. c #C2864F",
"a. c #C48B54",
"s. c #C38B5B",
"d. c #CA8E5B",
"f. c #C48855",
"g. c #CD945C",
"h. c #CC9255",
"j. c #D1945C",
"k. c #C48C63",
"l. c #C88E65",
"z. c #C69365",
"x. c #CA9264",
"c. c #C3946C",
"v. c #CB966C",
"b. c #C4996C",
"n. c #CB9869",
"m. c #D49965",
"M. c #CC9974",
"N. c #CA9C7B",
"B. c #C49976",
"V. c #D39C7D",
"C. c #C7A37A",
"Z. c #D2A37B",
"A. c #888783",
"S. c #988C84",
"D. c #9A9287",
"F. c #969796",
"G. c #A79789",
"H. c #B49B86",
"J. c #A79D95",
"K. c #AC9688",
"L. c #BEA583",
"P. c #A8A198",
"I. c #B6A79A",
"U. c #A9A7A3",
"Y. c #B8ADA6",
"T. c #BBB4AA",
"R. c #BAB9B5",
"E. c #C59E82",
"W. c #C89F81",
"Q. c #C3A384",
"!. c #C9A587",
"~. c #D1A68A",
"^. c #D2B295",
"/. c #C1B6AB",
"(. c #C7B9AA",
"). c #C8BBB3",
"_. c #D1BEB0",
"`. c #E1AC8C",
"'. c #E0C49F",
"]. c #CCC3BB",
"[. c #CBC3B9",
"{. c #DBCBBC",
"}. c #D6C7B9",
"|. c #DFD4BE",
" X c #E4D5BF",
".X c #D5CBC5",
"XX c #DAD3C7",
"oX c #DBD9D4",
"OX c #C8C9C1",
"+X c #E0CFC4",
"@X c #E3DACC",
"#X c #E6D8CD",
"$X c #E6DCD6",
"%X c #F1DEDA",
"&X c #E9E2CD",
"*X c #ECE4D4",
"=X c #EBE4DB",
"-X c #E8E6DA",
";X c #F4EBD5",
":X c #FBECD4",
">X c #F4E4DB",
",X c #F5ECDC",
"<X c #FAEDDC",
"1X c #F6E5D6",
"2X c #F5F4DD",
"3X c #FDF3DD",
"4X c #FFFADB",
"5X c #FBF2D4",
"6X c #E6E5E3",
"7X c #EBE5E2",
"8X c #EDECE5",
"9X c #ECEDEC",
"0X c #E5E8EB",
"qX c #F4EDE3",
"wX c #FBECE4",
"eX c #F2EDEB",
"rX c #F8EAE9",
"tX c #EDF2ED",
"yX c #E3F2EF",
"uX c #F4F3E4",
"iX c #FDF4E3",
"pX c #FEFAE5",
"aX c #F4F4EC",
"sX c #FAF5EC",
"dX c #FFFCEC",
"fX c #F4F9EF",
"gX c #EDEDF2",
"hX c #E8EBF2",
"jX c #F4EEF3",
"kX c #F8EFF4",
"lX c #ECF3F4",
"zX c #EEF9F4",
"xX c #EFF6FB",
"cX c #EEF8FD",
"vX c #F5F5F5",
"bX c #FAF4F3",
"nX c #F4F9F4",
"mX c #FEFCF3",
"MX c #F4F4FB",
"NX c #FBF5FB",
"BX c #F6FBFD",
"VX c #FFFDFA",
"CX c #FFFFFD",
"ZX c #FEFEFF",
"AX c #FDFCFC",
/* pixels */
"vXvXvXvXvXvXvXvXvXvXvXvXvXvXvXvXvXvXvXvXvXvXvXvXvXvXvXvXvXvXvXvXvXvXvXvXvXvXvXvXvXvXvXvXvXvXvXvXvXvXvXvXvXvXvXvXvXvXvXvXvXvXvXvX",
"vXvXvXvXvXvXvXvXvXvXvXvXvXvXvXvXvXvXvXvXvXvXvXvXvXvXvXvXvXvXvXvXvXvXvXvXvXvXvXvXvXvXvXvXvXvXvXvXvXvXvXvXvXvXvXvXvXvXvXvXvXvXvXvX",
"vXvXvXvXvXvXvXvXvXvXvXvXvXvXvXvXvXvXvXvXvXvXvXvXvXvXvXvXvXvXvXvXvXvXvXvXvXvXvXvXvXvXvXvXvXvXvXvXvXvXvXvXvXvXvXvXvXvXvXvXvXvXvXvX",
"vXvXvXvXvXvXvXvXvXvXvXvXvXvXvXvXvXvXvXvXvXvXvXvXvXvXvXvXvXvXvXvXvXvXvXvXvXvXvXvXvXvXvXvXvXvXvXvXvXvXvXvXvXvXvXvXvXvXvXvXvXvXvXvX",
"vXvXvXvXvXvXvXvXvXvXvXvXvXvXvXvXvXvXvXvXvXvXvXvXvXvXvXvXvXvXvXvXvXvXvXvXvXvXvXvXvXvXvXvXvXvXvXvXvXvXvXvXvXvXvXvXvXvXvXvXvXvXvXvX",
"vXvXvXvXvXvXvXvXvXvXvXvXvXvXvXvXvXvXvXvXvXvXvXvXvXvXvXvXvXvXvXvXvXvXvXvXvXvXvXvXvXvXvXvXvXvXvXvXvXvXvXvXvXvXvXvXvXvXvXvXvXvXvXvX",
"vXvXvXvXvXvXvXvXvXvXvXvXvXvXvXvXvXvXvXvXvXvXvXvXvXvXvXvXvXvXvXvXvXvXvXvXvXvXvXvXvXvXvXvXvXvXvXvXvXvXvXvXvXvXvXvXvXvXvXvXvXvXvXvX",
"vXvXvXvXvXvXvXvXvXvXvXvXvXvXvXvXvXvXvXvXvXvXvXvXvXvXvXvXvXvXvXvXvXvXvXvXvXvXvXvXvXvXvXvXvXvXvXvXvXvXvXvXvXvXvXvXvXvXvXvXvXvXvXvX",
"vXvXvXvXvXvXvXvXvXvXvXvXvXvXvXvXvXvXvXvXvXvXvXvXvXvXvXvXvXvXvXvXvXvXvXvXvXvXvXvXvXvXvXvXvXvXvXvXvXvXvXvXvXvXvXvXvXvXvXvXvXvXvXvX",
"vXvXvXvXvXvXvXvXvXvXvXvXvXvXvXvXvXvXvXvXvXvXvXvXvXvXvXvXvXvXvXvXvXvXvXvXvXvXvXvXvXvXvXvXvXvXvXvXvXvXvXvXvXvXvXvXvXvXvXvXvXvXvXvX",
"vXvXvXvXvXvXvXvXvXvXvXvXvXvXvXvXvXvXvXvXvXvXvXvXvXvXvXvXvXvXvXvXvXvXvXvXvXvXvXvXvXvXvXvXvXvXvXvXvXvXvXvXvXvXvXvXvXvXvXvXvXvXvXvX",
"vXvXvXvXvXvXvXvXvXvXvXvXvXvXvXvXvXvXvXvXvXvXvXvXvXvXvXvXvXvXvXvXvXvXvXvXvXvXvXvXvXvXvXvXvXvXvXvXvXvXvXvXvXvXvXvXvXvXvXvXvXvXvXvX",
"vXvXvXvXvXvXvXvXvXvXvXvXvXvXvXvXvXvXvXvXvXvXvXvXvXvXvXvXvXvXvXvXvXvXvXvXvXvXvXvXvXvXvXvXvXvXvXvXvXvXvXvXvXvXvXvXvXvXvXvXvXvXvXvX",
"vXvXvXvXvXvXvXvXvXvXvXvXvXvXvXvXvXvXvXvXvXvXvXvXvXvXvXvXvXvXvXvXvXvXvXvXvXvXvXvXvXvXvXvXvXvXvXvXvXvXvXvXvXvXvXvXvXvXvXvXvXvXvXvX",
"vXvXvXvXvXvXvXvXvXvXvXvXvXvXvXvXvXvXvXvXvXvXvXvXvXvXvXvXvXvXvXvXvXvXvXvXvXvXvXvXvXvXvXvXvXvXvXvXvXvXvXvXvXvXvXvXvXvXvXvXvXvXvXvX",
"vXvXvXvXvXvXvXvXvXvXvXvXvXvXvXvXvXvXvXvXvXvXvXvXvXvXvXvXvXvXvXvXvXvXvXvXvXvXvXvXvXvXvXvXvXvXvXvXvXvXvXvXvXvXvXvXvXvXvXvXvXvXvXvX",
"bXvXbXvXvXvXvXvXvXvXvXvXvXNXNXvXeXmXbXvX9XCXvXMXCX0XBXlXxXMXBXlXMXgXgXMXBXgXCXlXMXNX9XNXaXeXmXeXbXvX9XvXBXBXMXBXvXvXvXvXvXbXbXbX",
"bXbXbXbXvXvXvXvX9XNXCXvX9XgXvXvXVXeXCXvXCXR.F.CX0XCXCXvXvXCXbXCXCXCXCXBXvXvXgXvX9XvXvXaXCXVXbXaX6XCXCX9X9XvXvXlXvXvXvXvXvXbXbXbX",
"vXvXvXvXvXvXvXvXvX9XvXNXCXvXlX9XbXeXU.8XU.i Z F.].VXbX7X=X=X}.XX{.XX#X$X=XVXeXVXCXvXCXCX9X6X9XVXbXvXvXvXAXvXtXBXvXvXvXvXvXvXbXbX",
"vXvXvXvXvXvXvXvXNXNXvXvXvXvXBXvXCXU.t t 8 i 4.r 8 x q 0 , : : 2 : : 1 0 , k x S 4.T.U.i R.CXnXvXeXeXeXvXNXnXvXnXvXvXvXvXvXvXvXvX",
"vXvXvXvXvXvXvXvXvXvXvXvXvX9XvXBXVXT.D A.A.D .X@X; M ^ ^ #.#.&.( 8.( ( ) ~ P J $ . + . A.t Z R.vXVXVXsXeXbXvXaXfXvXvXvXvXvXvXvXvX",
"vXvXvXvXvXvXvXvX9XCXCX0XvXCX6XF.r   A.bXbXmXuXmX+.O 1 ~ 7.) ( X.! X...( ( #.K.M U X i L P.Z   Z T .XVXbXeXbXmXbXvXvXvXvXvXvXvXvX",
"vXvXvXvXvXvXvXvXCX8XvXCXoXL &   L .XP.I mXoXqXG.{.H.B O N 8.Q X.X.) )  .8.#.B ; ).).].U.VXU.  t r 8 S ).mXmX=XeXbXbXvXvXvXvXvXvX",
"vXvXvXvXvXvXvXvXeXCX6XT X   T aXdX-X$ D.qXn @XI.m m }.H.O h ( Q ) &.7.~ f = 1 5.,XuXqXmX7XaXU.Z 4 S n 3 S XXmXsXsXbXbXvXvXvXvXvX",
"vXBX0XCX9XvXvX7XCXR.r   % OXVXuXdXD.L dXiXL S.iX5.*X#XdX(.* B ~ ~ ~ C = B _.iXS.u mXmXqX=XL H XXP.o n S.u < J.mXrXmXeXvXvXCX9XBX",
"lXBXvXtXCXvX8XVXJ.% 8 3 -XmX-XuXdX;X2X,X,X9 4.mXqXmXqX,XmXY.. P M ; ; G.dX,X}.. .XD.Y.@Xw I.D.4.pX#X< y J.J o @.mXqXbXeXVXvXvXBX",
"lXBXlXvXNXvXVXJ.# H 3 ].dX,XmXuXpX3XpXiXdX@.Y.mXsXsXmXsX8XL X   $ D.u 8 [.mX+ S.dXn 4.dXG.J.dXdX>XmX#X; M 5.+., @.mXsXbXNXgXBXMX",
"ZX9XtXCX8XVX7X$ U x L mXqXdX,XiX;XdX3X,X<XdXmXsX8X8XnXVXVXZ T r n L $XZ D.$XZ qXmXH J.dXiX3XiXiXpX<XdX}.o P 5.P O ].bXbXvXvXBXMX",
"CX0XVXaXeXVXU u 5.< {.dXdX@XpXdXdX;X<XdXdX=XsXuXfXVX8XoXI r oX-X$XXXqXD.  I $X-X*XmXdXdXiXdX&XiXdXiX<XdX+.; $.t.m l mX8XbXBXMXMX",
"tXbXbXaXbXqXy U P w iX1XpXdXiX3X2XpXiX;XdXqXmXuXmXR.n $ A R.mXuXmXsXmXqXY.u + P.*X@XdX>X<XdXiXdXpX*X2XdX X* G t.5., #XsXbXBX9XBX",
"9XVX9XVXbX$X8 U F k dX<XdXpX;XpXdXdX<XdXiXqXmXsXI X T &XdX/.[.dX/.,X#XG.mXmXG.. %.=X@X>XdX<XpXiXpXpXdX*XpXz z +.@.q I.VXkXBXgXMX",
"CX9XbXbXmX$X+ 4.F q dX<XiX5X3XpX2X<XdXdXsXmX8Xn 8 &XmXmXT.w XXiXU L dXw P mXmX].+ P <X@X<XiX3XiXpXiXpX:XpX0 m $.t.O J.VXeXNXCXvX",
"ZXeXkXNXCX.X3 H U ; :X3X2X4XdXuXiXpXdXdXuXuXn n bXbXaXfXS.T VXsXY.8 iX{.F ,XpXdXXX  G.>X|.3X3X3X3XpXpX3XpXg M @.%.. P.VXeXVXkXbX",
"kXkXZXbXCXoXX 8 Y 0 (.dXiXiXuXuXiXiXdX*XmXL u fXaXVXaXmXsX=XmXmX[.8 *XpXdXiXiXiXdXT.X ).@X5X:X3XpX&XpXiX X> G @.l . U.VXeXbXbXeX",
"vXvXNX9XbXoX% x M M q dX1XqXmXdXiXpXdXiX(.< @XdX>XpXiX<XdXdX1XdXiX/.pX<XiXpXiX<X,XmXS n <X}.:XpXmXmX>XdX5.@ / B w 3 P.mXbXvXVXbX",
"bXvXvXaXmXoXu D.@ l O G.mXwXeXbXdX1X>X<X^ S dX1XpX3XpX3X:X3X:X4XpXdXiXpX;XiX,XdXmXsXoX$ /.#X1XdXsXeXmX/.* > f O +.l J.mXVX9XvXtX",
"nXtXnXnXVX.Xu I.K.* * O $.VXVXVXsXsX1X>Xm G.iXdXdX<X3XpX5X4X4X5X5X;XiX3XdXiXiXdXmX-XVXx %.#X#X>XbXkXT., z : O #.H.q G.mXfXtXzXlX",
"zXzXzXaXmX.Xq K.t.Q.z * O k S..X%XmXwX>Xx /.mX>X<XpX;X3X4X5X4X5XpXpXdX&X3XiXdXqXaXqXVXA P >XpXsXY.x O = 2 a y.y.t.; P.mXtXAXBXzX",
"zXnXtX8XmXXXd u.) 0.~.W z o o @ y k H H 3 [.-XmXuXmXsXuXpX2X2XdXuXpXiXdX3XiX5XdXuXmXmXU n K.M 1 o , = p W ~.0. .u.6 I.mXtXnXlXyX",
"lXzXvXfXmX{.d Q.B.! ..N.i.( z O o 4 3 y . T.mX8XsX8XuXuXuXdXsX,XqXmX2X<X3XiX3X<XpXqXsXF @ * O = : d W E.N.X.,...E.a G.dXnXzXzXBX",
"lXBXnXaXmX{.f i.q.9.<.' | B.N.7.G w 7 , @ P @XmXdXmXmXmXmXmXmXmXmXmXdXpXiXpXdXdXdX<X{.7 o : a N ( i.!.c.] _ s.M.0.p K.mXeXBXhXcX",
"BXMXvXaXmX{.2 !.,.x.x.>.{ ' ,.c.C.e.7.Q h d d 1 B K $.K.I.(._._.{.{.}.(.H.6.~ F M 1 ; g K 7.i.C.c.9.' _ p.m.x.' ..p H.mXkXCXZXBX",
"BXBXgXCXsX+Xf 0.` >.>.a.j.>.] ' 3.9.b.b.C.r.;.;.V C c h p p p a 1 6 6 p a z N B / / z L.!.i.X.3.' { *.a.j.h.{ ' ~.2 S.VXkXjXMXxX",
"jXvXMXNXsX%Xd u.q.<.{ *.h.g.g.a.} *.] E >.2.1.b.Z.Z.N.M.B.B.N.N.E.Q.Q.E.W.!.~.!.^.7.a i.Q X.9.:.>.g.m.h.p.} :.c.&.: ).VX9XjXBXMX",
"MXgXCX9XVXsX0 H.u.w.<.>._ } g.g.j.h.h.a.*.{ { [ ' o.>.1.k.k.s.<.-.w.w.9.,.,.| X. . .h B.r.b.2.n.x.g.*.E *.z.9.;.( 0 #XbXZXMXMXZX",
"NXvXvXvXAXmX4.l !.8.-.1.1.>.*._ a.*.g.m.d.d.x.s.s.<.O.{ [ [ [ { :.:.{ ' { :.1.9.c.X.h ! R -.v.1.{ _ *.s.>.,.0.e.C F qXaXZXvX9XvX",
"nXnX9XZXnXvXeXy 5.u.0.| k.v.s.s.{ ' { >.<.1.z.n.z.z.x.n.n.x.x.d.g.g.g.g.j.g.x.z.Z.q.- j C | O.` 1.:.x.n.| | 0.t.; /.VXnX9XZXZXtX",
"vX9XCX0XZXMXbX].@ t.^. .| ,.,.v.x.x.>.O.<.o._ o.:.:.:.>.1.s.s.s.a.a.a.p.p.>.>.:.O.| s q.q.w.k.v.v.9.,.` X.!.#.@ J.mX-XvXZXvX9XCX",
"MXvXvXvXvXvXbXsX[.; B ^.i.-.-.` } p.j.g.d.d.d.f.>.O.{ { { [ { [ [ [ [ [ [ o.o.o.9.<.s `.V.9.,.9.` | -.0.^.V O I.sXvXvXvXvXMXMXMX",
"MXMXvXvXvXvXvXbXmX>Xl 6 8.i.C.9.s._ E } f.f.f.d.m.x.x.l.l.l.x.x.k.k.k.z.v.v.M.M.c.k.s R s j | ..r.i.i.e.7 7 {.sXbXvXvXvXMXMXMXMX",
"vXvXvXvXvXvXvXvX8XmXmX5.> f ~ Q.c.v.c.,.| ' o.O.] ' O.<.s.s.<.>.>.f.s.s.1.:.' ` ,.| - v Q r.C.u.Q./ b : @.dXsXmXvXvXMXMXvXvXvXvX",
"vXvXvXvXvXMXMXvXCX6XeXmXwXS.q : V &.Q.!.N.B.r.w.q.9.,.| | ' o.o.=.{ } ] ' 3.2.w.B. .j '.L.L.( V 1 0 @.+XmXmX8XvXvXMXMXvXvXvXvXvX",
"fXfXvXvXvXvXMXMX0XCXvXNXNXNXVXT.A q > l P t.H.E.E.E.N.N.N.M.M.v.z.z.b.C.C.C.C.C.Q.e.6 K b g e m J.sXbXCXZX0XCXlXMXMXMXvXvXvXvXvX",
"uXfXfXvXvXvXxXxXBXhXMX0XhXNXjXCXVXqX/.@.x 5 5 d b N V Q (  .7.7.7.-.;.( Q V N b g 0 ; M L P.qXmXCXkXvXgXvXBXxXBXxXxXvXvXvXfXfXfX",
"uXuXfXvXvXvXMXMXlXMXBXCXCXMXgXvXgXNXCXVXVXsX.XP.@.P B z d 6 p p d d 6 d z B P +.D..XeXbXCXCXZX9XgXZXMXMXlXxXZXhXMXMXvXvXvXvXfXfX",
"sXsXfXvXvXvXvXMXBXBXlXlXlXvXvXvXBXlXlXvXvXaXmXVXVXmXmXdXsXiXwX<X>XrXwXbXmXVXZXCXCXCXMXBXjXMXBXBXMXBXgXZXBX0XBXBXMXvXvXvXvXbXsXsX",
"sXsXbXbXbXvXvXvXvXvXvXvXvXvXvXvXvXvXvXvXvXvXvXvXvXvXaXvXbXbXvXbXNXBXNXNXMXMXvXvXMXMXMXMXMXMXMXvXvXvXvXvXvXvXvXvXvXvXvXbXbXbXbXbX",
"bXbXbXbXbXbXbXvXvXvXvXvXvXfXfXvXvXvXvXvXvXvXvXvXvXvXMXMXMXMXMXMXMXMXMXMXMXMXMXvXvXvXMXbXbXbXbXbXvXfXvXvXvXvXvXvXvXbXbXbXbXbXbXbX",
"bXbXbXbXbXbXbXbXbXvXfXfXfXuXsXuXvXvXvXvXvXvXvXMXMXMXxXxXxXcXMXcXcXcXcXcXMXzXvXvXvXvXvXsXsXsXsXsXsXuXsXfXfXfXvXbXbXbXbXbXbXbXbXbX",
"bXMXMXMXbXbXbXbXbXsXsXsXsXsXsXsXfXvXvXvXvXvXvXvXMXMXxXxXxXxXxXxXcXcXzXzXvXvXnXfXfXfXfXsXsXsXiXiXsXsXsXsXsXsXbXbXbXbXbXbXbXbXbXbX",
"MXMXvXvXvXvXbXbXbXbXbXbXsXsXsXsXvXvXvXvXvXvXvXvXvXMXMXMXMXMXMXMXvXvXvXvXvXvXnXfXfXfXfXsXsXsXsXsXsXbXbXbXbXbXbXbXbXbXbXbXvXvXvXvX",
"vXvXvXvXvXvXvXvXvXvXvXbXvXbXbXvXvXvXvXvXvXvXvXvXvXvXvXvXvXvXvXvXvXvXvXvXvXvXvXvXvXvXvXvXvXvXvXvXvXbXbXvXbXvXvXvXvXvXvXvXvXvXvXvX",
"nXvXvXvXvXvXvXvXvXvXvXvXvXvXMXvXvXvXvXvXvXvXvXvXvXvXbXbXbXbXbXbXbXbXbXbXbXbXMXvXMXvXMXMXMXMXMXMXMXMXMXMXMXvXvXvXvXvXvXvXvXzXzXzX",
"zXzXzXzXvXvXMXMXvXvXvXvXMXMXMXMXvXvXvXvXvXvXvXvXvXvXbXbXsXsXsXbXbXNXbXbXMXMXMXMXMXMXMXMXMXMXMXMXMXMXMXMXMXMXvXvXvXvXvXzXzXzXzXzX"
};
