/* XPM */
static char *_c7e62f3354c46beffa675116ca5d6c4UibEhl95Lg9CBhwU[] = {
/* columns rows colors chars-per-pixel */
"64 64 241 2 ",
"   c #030201",
".  c #090502",
"X  c #070805",
"o  c #0C0A04",
"O  c #0C0C0A",
"+  c #070809",
"@  c #120D03",
"#  c #120E0A",
"$  c #140701",
"%  c #0E100D",
"&  c #141103",
"*  c #1B1404",
"=  c #1D1805",
"-  c #14120D",
";  c #1A150C",
":  c #1C1A0C",
">  c #141412",
",  c #1A1612",
"<  c #161815",
"1  c #1C1A15",
"2  c #1D1D1A",
"3  c #171719",
"4  c #0E1110",
"5  c #240E09",
"6  c #2C1B03",
"7  c #221B0D",
"8  c #251805",
"9  c #311E04",
"0  c #221D14",
"q  c #221E1A",
"w  c #2A1D15",
"e  c #1F211A",
"r  c #2A230E",
"t  c #34220D",
"y  c #382508",
"u  c #252114",
"i  c #2A2215",
"p  c #24221A",
"a  c #2B241A",
"s  c #2C2A1D",
"d  c #342B1C",
"f  c #382917",
"g  c #39321E",
"h  c #2E311C",
"j  c #242422",
"k  c #2B2623",
"l  c #2C2A24",
"z  c #2C2D2B",
"x  c #262628",
"c  c #332C23",
"v  c #372F24",
"b  c #3B3324",
"n  c #34322A",
"m  c #3C342B",
"M  c #3B3728",
"N  c #3D3B34",
"B  c #353534",
"V  c #2E2E30",
"C  c #442E18",
"Z  c #44351A",
"A  c #563B1B",
"S  c #42290B",
"D  c #443A28",
"F  c #433D32",
"G  c #563527",
"H  c #3F413F",
"J  c #6F4F17",
"K  c #48422C",
"L  c #554527",
"P  c #4B4334",
"I  c #48463A",
"U  c #564B37",
"Y  c #5B5138",
"T  c #4E5333",
"R  c #695329",
"E  c #685635",
"W  c #735836",
"Q  c #6A4F2B",
"!  c #6B5724",
"~  c #3D4140",
"^  c #4E4C44",
"/  c #474746",
"(  c #554E44",
")  c #5A5343",
"_  c #5C554B",
"`  c #56554C",
"'  c #5B5954",
"]  c #4E4D52",
"[  c #665C49",
"{  c #635C53",
"}  c #675F55",
"|  c #624F42",
" . c #5F605B",
".. c #6A624D",
"X. c #696557",
"o. c #776C57",
"O. c #77735D",
"+. c #756C4C",
"@. c #6A6965",
"#. c #716D63",
"$. c #746F6B",
"%. c #7C7563",
"&. c #797669",
"*. c #7E7B74",
"=. c #7C7D7A",
"-. c #747676",
";. c #6E736F",
":. c #845E1D",
">. c #836419",
",. c #835F3F",
"<. c #816C32",
"1. c #8A7550",
"2. c #837B6A",
"3. c #837D73",
"4. c #7F807C",
"5. c #7D8065",
"6. c #96865D",
"7. c #88836D",
"8. c #858475",
"9. c #8B8474",
"0. c #84837C",
"q. c #8C897B",
"w. c #8A8977",
"e. c #938D7C",
"r. c #938774",
"t. c #99917A",
"y. c #988565",
"u. c #A59575",
"i. c #B19862",
"p. c #B3995D",
"a. c #7E8681",
"s. c #838683",
"d. c #848A84",
"f. c #8C8B84",
"g. c #8C8E8B",
"h. c #878B8A",
"j. c #918A84",
"k. c #8C928C",
"l. c #94948B",
"z. c #9C9B8E",
"x. c #989586",
"c. c #959A93",
"v. c #9A9B94",
"b. c #959795",
"n. c #A49B85",
"m. c #A39D92",
"M. c #9DA29B",
"N. c #ABA594",
"B. c #A3A59C",
"V. c #A8A699",
"C. c #B3AA98",
"Z. c #B9B29C",
"A. c #ADA58A",
"S. c #9EA3A1",
"D. c #ABADA3",
"F. c #ACADAA",
"G. c #A6A7A5",
"H. c #B3ADA6",
"J. c #B4B4A6",
"K. c #BBB5A4",
"L. c #B4B5AA",
"P. c #BBBBAC",
"I. c #BBB7A8",
"U. c #BCBDB4",
"Y. c #B6B7B4",
"T. c #AFB2A9",
"R. c #CAB790",
"E. c #C4BCA8",
"W. c #C8BDAF",
"Q. c #BFC1B4",
"!. c #C5C1AD",
"~. c #C9C2AC",
"^. c #D8C8A9",
"/. c #C4C2B2",
"(. c #CBC6B3",
"). c #CDC9B6",
"_. c #CDCBBA",
"`. c #C6C7B9",
"'. c #D3CDBA",
"]. c #D5CBB4",
"[. c #D5D1BD",
"{. c #DAD3BC",
"}. c #DCD8BF",
"|. c #E6D9B9",
" X c #FCECB8",
".X c #E4CE9C",
"XX c #BFC1C0",
"oX c #C8C8C5",
"OX c #D5CEC5",
"+X c #D7D3C2",
"@X c #DBD5C3",
"#X c #DED9C4",
"$X c #D9D5CB",
"%X c #DCDBD4",
"&X c #D6D6D6",
"*X c #E2DCC5",
"=X c #E3DDCB",
"-X c #E6DAC6",
";X c #E3DED4",
":X c #E7E2CD",
">X c #EAE4CC",
",X c #E5E1C6",
"<X c #F2E4CF",
"1X c #ECE5D3",
"2X c #EEE9D4",
"3X c #ECE6D9",
"4X c #EEE9DC",
"5X c #E5E3D9",
"6X c #F1EAD6",
"7X c #F3ECDA",
"8X c #F5E9D7",
"9X c #F9F2DC",
"0X c #EBE9E4",
"qX c #EDEDED",
"wX c #E8E6E3",
"eX c #F1EEEA",
"rX c #EEF0ED",
"tX c #F5F2E3",
"yX c #FAF4E5",
"uX c #F3F3EC",
"iX c #FBF6EC",
"pX c #FEFDED",
"aX c #FBFDE4",
"sX c #F4F4F3",
"dX c #FAF5F4",
"fX c #F6F9F7",
"gX c #FDFCF4",
"hX c #F6F6F9",
"jX c #FBF6FB",
"kX c #F6FCFB",
"lX c #FFFFFB",
"zX c #FEFDFA",
"xX c #FFFFFD",
"cX c #FEFFFD",
"vX c #FFFEFF",
"bX c white",
"nX c #FEFEFF",
"mX c #FEFDFE",
"MX c #FEFEFE",
"NX c #F2EEF1",
"BX c #DEE0D5",
/* pixels */
"nXnXnXlXgXgXiXgXgX;XW.N.K.@X4XgXgXgXgXgXlXdXnXjXnXnXnXnXnXnXnXnXnXlXnXnXnXzXlXnXnXnXnXnXnXnXnXnXnXnXnXnXnXnXnXnXnXnXnXnXnXnXnXnX",
"nXrXnXuXlXgX;Xe.} P v d d v P 2.x.8.x.v.wXlXnXnXnXnXnXnXnXnXnXnXnXnXnXnXnXlXlXnXnXnXnXnXnXnXnXnXnXnXnXnXnXnXnXnXnXnXnXnXnXnXnXnX",
"fXnXsXgXgX3.b b i a b b D b i a 0 a v n { lXdXjXnXnXnXnXnXnXnXnXnXnXnXnXnXnXnXnXnXnXnXnXnXnXnXnXnXnXnXnXnXnXnXnXnXnXnXnXnXnXnXnX",
"lXgXlX%X' s F a v m F v b m a 0 l v a O 1 eXnXnXnXnXnXnXnXnXnXnXnXnXzXnXnXnXnXnXnXnXnXnXnXnXnXnXnXnXnXnXnXnXnXnXnXnXnXnXnXnXnXnX",
"lXlXwX^ c m m m 7 7 a a a a l ^ ; o # q v.sXnXnXnXnXnXnXnXnXnXnXnXnXnXnXnXnXnXnXnXnXnXnXnXnXnXnXnXnXnXnXnXnXnXnXnXnXnXnXnXnXnXnX",
"gXiX$.c P c 0 ; 0 i s 0 1 , . .   > + N nXnXsXnXnXnXnXnXnXnXnXnXnXnXnXnXnXnXnXnXnXnXnXnXnXnXnXnXnXnXnXnXnXnXnXnXnXnXnXnXnXnXnXnX",
"iXOXw m a s N ; @ - #   - z 2 + N ' z N 0XnXgXnXnXnXnXnXnXnXnXnXsXnXnXnXnXnXnXnXnXnXnXnXlXlXlXlXnXnXnXnXnXnXnXnXnXnXnXnXnXnXnXnX",
"gX#.a m 0 i ; - ; ; ; - 1 2 O - p e j 2 &XsXnXuXnXlXnXlXnXlXnXnX0XsXnXnXnXnXnXnXnXnXnXnXlXlXlXlXnXnXnXnXnXnXnXnXnXnXnXnXnXnXnXnX",
"7XF v c : 0 ; , # < - > - p X ` ;.O o s.sX0XwXlXgXlXlXlXlXgXgX .> v.lXsXnXnXnXmXnXnXnXnXlXlXlXlXnXnXnXnXnXnXnXnXnXnXnXnXnXnXnXnX",
"W.b d 0 w 0 - ; - 2 O < < O 2 oX0XwX5XgX%Xj 1 c.lXgX0XdXgXdX;X-   4.lXnXnXsXnXnXnXnXnXnXlXlXlXlXnXnXnXnXnXnXnXnXnXnXnXnXnXnXnXnX",
"z.d s @ a 0 # - O < O > < 2 z F.nXnXuXlXwXl &   $XtXtX5X;XuX0X#.X.uXgXgXlXnXnXnXnXnXnXnXlXlXlXlXnXnXnXnXnXnXnXnXnXnXnXnXnXnXnXnX",
"x.a a - 0 ; - - ; O > 2 > n n n U.5XdXlXgX%X#.I.4X5X4X3X4XtX3XtX%XU.BXuXlXnXsXnXnXnXnXnXnXlXlXlXnXnXnXnXnXnXnXnXnXnXnXnXnXnXnXnX",
"m.7 0 0 ; O < % 2 O < l < l k 1 l oXlXlXuXgXiXpXtX:X@X+X=XtX=XJ.8.w.z.B.lXsXsXnXnXnXnXnXnXnXlXlXnXnXnXnXnXnXnXnXnXnXnXnXnXnXnXnX",
"I.0 @ p - O < O - 2 < , q p 0 c l 1 0.uXgXtX3X1X=X7X1X@XE.).+X[ = h 8.f.l.lXnXnXnXnXnXnXnXnXnXnXnXnXnXnXnXnXnXnXnXnXnXnXnXnXnXnX",
"%XI # q O - O O X 2 - + , 0 0 0 q l _ gX3XiX7X9X'.O.P ..K.(.3.  o : e j.v.%XsXnXnXnXnXnXnXnXnXnXnXnXnXnXnXnXnXnXnXnXnXnXnXnXnXnX",
"lX$.; , O > X - < + % , O # p ; k @ OXgX3X4X7Xx.r * r . 9.'.o.K x.h & X.z.F.nXmXnXnXnXnXnXnXnXnXnXnXnXnXnXnXnXnXnXnXnXnXnXnXnXnX",
"jXwXk > >   2 % > < O - < # - q ; d 3XyX1X7Xx.= 8 C.n.D %.7Xe.) n.5.  T B.*.G.nXnXjXnXnXsXnXnXnXnXlXnXnXnXnXnXnXnXnXnXnXnXnXnXnX",
"nXNXG.> j <   X + X X X O < q , * b 7X7X*X9XO.o d 7.P ) (.7X'.O.M @ & X.q.l.I oXmXnXmXmXnXnXnXmXnXlXlXlXnXnXnXnXnXnXnXnXnXnXnXnX",
"nXNXnXg.  j e   % O < < O > 1 # ; d @X9X6X7XZ.O.r 8 U @XpX1X'.'.%.& K q.q.l./ j hXnXsXnXnXhXnXnXnXnXnXnXnXnXnXnXnXnXnXnXnXnXnXnX",
"jXnXsXmXg.X % < O X O O O # # 1 ; 7 ).7X7X6X9X*XN.2.~.6Xe.=X*X(.7.w.w.8.j.q.'   @.nXmXhXnXmXnXnXnXnXnXnXnXnXnXnXnXnXnXnXnXnXnXnX",
"nXjXmXnXnXb.X > > - +   # , o , - . V.1X*X1X{.~.A.t.~.*XD g U d ..x.x.8.3.l.z O X ] jXqXnXnXzXnXnXnXnXnXnXnXnXnXnXnXnXnXnXnXnXnX",
"mXnXnXnXsXzXY.< + > 2 + # 1 . - : & P 1X4X'.(.N.n.~.r.n.*X[ $ D 7.&.3.9.q.#.-       V sXnXnXnXnXnXnXnXnXnXnXnXnXnXnXnXnXnXnXnXnX",
"nXjXnXqXnXzXnXG.j   - - . - # 1 u 0   z.1X'.{.E.].>X].O.O.2.7.2.7.e.8.&.w.p   > X >   z qXmXgXnXnXnXnXnXnXnXnXnXnXnXnXnXnXnXnXnX",
"jXnXNXnXnXnXkXnXF.2 + < O ; ; ; 1 & 7 u K.2XE.~.~.{.8X].r.[ ..o.9.&.j.8.a     . +   O   @.nXsXnXnXnXnXnXnXnXnXnXnXnXnXnXnXnXnXnX",
"nXnXnXnXnXnXnXnXnXG., O   p 0 ; ; u 7 o d x.=X'.E.E.{.=XW.e.2.9.q.j.X.u   . -   + X >   O g.nXnXmXnXnXnXnXnXnXlXlXlXsXlXnXnXnXkX",
"nXnXnXnXnXnXnXnXsXnXG.o a & @ u i * * 7 * = ..~.E.~.(.E.A.r.r.e.q.I o   o o X +   O + X X 2 =.nXnXnXsXnXnXgXlXgXgXlXlXlXlXgXkXnX",
"lXlXnXnXnXnXnXnXnXlXsX$.. : b 7 = i 7 * = @ o r ..2.9.7.%.o.[ P ; o . # -     + X O     O   > s.nXjXnXnXnXlXgXgXgXdXlXgXsXlXlXrX",
"lXlXnXnXnXnXnXnXzXnXlX;X0 0 * 7 7 d b b b r @ @   @ = 8 = * @ .   . o   X O O X X X     O O X   ] qXnXqXlXlXiXgXiXgXiXgX%X*.Y.lX",
"lXlXnXnXnXnXnXnXzXnXlXuXF i ) 9.N.Z.].@XE.t.+.P 8 & @ * * @ & 0 p - . X o o + O     O >     O X   B oXnXlXgXtXgX4X@X;X#._ ^ - oX",
"lXlXnXnXnXnXnXnXnXsXlXgX_ 2.7X7X9X8X8X-X{.<X>XZ.%.D @ @ 7 0 ; ; - - 1 q , X + - O + O O O   O 2 3     *.$Xm.3.m.e.M i F &.&.1 ' ",
"lXlXnXnXnXnXnXnXnXnXlXgXI.1XyX7X8X<X<X<X-X|.{.].(.q.K = & : : - , , # O # 1 1 > < < O O 2 2 - O   > k q ; 7 M 2.} [ o.U : N s l.",
"lXlXnXnXnXnXnXnXnXlXgXiXtXpX1X8X>X8X=X-X>X-X'.'.(.).N.X.s ; ; ; , , > , - O - < > - 2 e - , 2 - # < k k ; w ( .._ { m 1 P X.; U.",
"nXnXnXnXnXnXnXnXnXnXlXgXiXtX7X7X7X6X1X1X=X#X[.).).(.).Z.O.g = * ; 1 o ; - X > < 2 2 < > 1 p q ; - m c @ a { #._ ^ 1 ^ N 2 < < k.",
"nXnXnXnXnXnXnXnXnXnXlXgXiXtX7X7X7X2X1X1X=X#X[.).).K.K.!.N.o.M 7 * @ X o O X O X O O < 2 q q , ; a s ; ; ^ *.X.l l - o B O   ;.nX",
"nXnXnXnXnXnXnXnXnXnXlXgXiXtX7X6X7X2X1X:X=X#X[.).(.E.I.K.K.N.X.u @ . o . + O X O < > - > , , , w w c p ; q k 1 . X   >   H 0XkXfX",
"nXnXnXnXnXnXnXnXnXnXlXgXiXtX7X6X6X2X1X:X=X@X'.).!.(.E.V.N.H.e.( 1 # - X   X   + X X X O , 1 1 ; q w ; o o o . X   +   4.nXnXnXnX",
"nXnXnXnXnXnXnXnXnXnXlXgXiX7X7X6X2X1X,X=X#X+X'.)._.P.J.J.V.z.x.j.I 1 +   + >   + X O O O # , , ; 0 , # # , - o O O < Y.nXnXqXnXkX",
"nXnXnXnXnXnXnXnXnXnXlXiXtX7X7X6X2X>X=X*X#X[._.(./.I.J.J.B.l.l.l.0.H O   + O         X   X - , 1 , 0 , # o     O   d.nXnXnXnXnXnX",
"nXnXnXnXnXnXnXnXnXnXgXiXtX7X7X6X>X,X*X#X+X[.)./.P.P.L.V.z.l.g.4.v.-./ z %   2 / B >     - , ; , q 1 O   O 4 O O   oXkXhXnXhXnXnX",
"nXnXnXnXnXnXnXnXnXnXgXiXtX7X6X6X>X,X*X}.[.'.)././.D.V.D.v.f.f.l.=.h.s.-.~ z b.nXnXb.k   . o - q > q > X   X     x hXnXnXnXnXmXnX",
"nXnXnXnXnXnXnXnXnXnXlXgXtX7X7X2X>X,X#X{.'.)./.P.I.D.B.B.c.g.d.d.k.-.a.b.-.@.$XlXlXlXwX/   . # > j O O O X +     -.kXnXnXnXmXnXhX",
"nXnXnXnXnXnXnXnXnXnXlXgXtX7X6X2X>X*X}.[._.(.!.I.L.D.B.M.b.g.d.d.-.b.d.=.=.@.3.%XlXeXlXuX' O . - X j O   O   X > &XnXkXmXnXhXnXnX",
"nXnXnXnXnXnXnXnXnXnXlXgXiX7X6X2X:X*X+X[.)./.P.J.J.D.B.v.l.h.d.s.f.0.d.=.@.f.X.( 0XlX0XlXgX@.    < <     3   O XXnXnXsXnXnXnXnXnX",
"nXnXnXnXnXnXnXnXnXnXlXgXiX7X7X2X:X=X+X'.)./.I.J.T.B.M.c.k.h.s.s.f.0.0.*.$.&.b   { lXgXlXeXnXY.B   X     X ] &XnXzXfXnXnXnXnXnXnX",
"nXnXnXnXnXnXnXnXnXnXlXgXiX7X7X1X:X=X+X'.)./.I.J.D.B.v.c.k.d.a.s.0.3.j.3._ w ; ; i gXlXwXnXjXnXnXoXd.=.g.oXnXfXzXnXzXnXnXsXnXnXnX",
"nXnXnXnXnXnXnXnXnXnXlXgXiXtX7X1X:X=X@X'.`./.P.L.D.B.c.c.k.s.a.s.j.3.2.U b 7 a w $ OXlXlXlXnXNXmXzXzXkXnXnXkXnXnXnXfXnXnXnXnXlXnX",
"nXnXnXnXnXnXnXnXnXnXlXgXiXtX7X1X:X=X+X_.`./.P.L.D.B.c.l.k.s.a.s.3.3.( * D P 7 a a } lXlXnXsXnXnXkXnXnXqXnXnXqXnXkXzXgXlXlXlXlXlX",
"lXlXnXnXnXnXnXnXnXnXlXgXiXtX7X1X=X#X+X_.`.Q.P.L.D.M.c.k.k.s.s.0.%.g F F w D 7 i i d 0XdXdXnXnXnXnXnXnXnXkXnXnXzXkXnXnXfXzXgXnXlX",
"gXgXlXnXnXnXnXnXnXnXjXlXlXiX3X3X=X*X+XoX`.U.Y.T.G.S.b.b.g.f.0._ | t t D i 0 d i i u m.gXlXjXnXnXnXnXnXnXnXnXnXnXnXnXnXnXnXnXnXnX",
"gXgXlXnXnXnXnXnXnXnXgXgXC.*XyX|.*X@X'._.`.U.L.F.G.S.b.v.f.&._ i t C t 8 w s u 0 ; 7 X.gXlXnXmXnXnXnXnXnXnXnXnXnXnXnXnXnXnXnXnXnX",
"nXnXnXnXnXnXlXgXiXpX9Xu.6.<. X X|.|.].~.!.U.L.T.B.B.l.3.) v d w 6 t t f F n n _ I N F ;XlXnXmXnXnXnXnXnXnXnXnXnXnXnXnXnXnXnXnXnX",
"nXnXnXnXnXlXgXgXpX9X6.W <.! p..X|.|.].^.~.I.C.N.N.q.[ D t 8 6 6 f C D v F ^ F 2 q ; 1 f.lXnXnXnXnXnXnXnXnXnXnXnXnXnXnXnXnXnXnXnX",
"nXnXnXnXnXlXgXpXaX^.R i.:.>.>.p.R.^.^.E.R.n.r.7.U D 6 6 9 9 f C C f D P n > X       X k U.nXnXnXnXnXnXnXnXnXnXnXnXnXnXnXnXnXnXnX",
"kXkXnXnXnXlXgXgXyXu.Q 1.1.J :.J ! W W Q L Z y t * 6 8 6 9 6 S A f ..( ; X % O O < - .   @.kXnXnXnXnXnXnXnXnXnXnXnXnXnXnXnXnXnXnX",
"nXnXnXnXnXnXnXjXgXr.8 C W ,.Q A W W E Q L L L L L L y y y y S C 2.Y 0 . < 3 O O   o .   ` nXkXkXnXnXnXnXnXnXnXnXnXnXnXnXnXnXnXnX",
"kXnXnXnXnXnXnXnXjXq.5 w 5 G G W A L Q E E E Y L L E L C y S Q o.) &   < % 4 3 O O o o   ^ fXnXnXnXnXnXnXnXnXnXnXnXnXnXnXnXnXnXnX",
"lXlXlXnXnXnXnXnXjXF.# w 5 $ f | Y Y Z Z K U Y L g Z Z Z Z Y +.[ @ & - - % < >     . #   N lXkXnXnXnXnXnXnXnXnXnXnXnXnXnXnXnXnXnX",
"lXlXlXnXnXnXnXnXnXqXN . # w . ; f f g D d 7 g g U b i d D Y Y 7 1 O + e O   # n { X.{ ) F 0XkXkXnXnXnXnXnXnXnXnXnXnXnXnXnXnXnXnX",
"lXlXlXnXnXnXlXlXuXlXL.p & X & & @ * i a U _ X.I P M d 7 @ i P s   ; > O . N *.H.N.n.2.[ X.lXlXkXnXnXnXnXnXnXnXnXnXnXnXnXnXnXnXnX",
"nXnXnXnXnXlXlXlXgXgXpXtXw.X.T T I c o ^ gXgXiXgX4X$XU.m.#.' ^ o   > ; X I z.K.n.t.y.o.U o.gXfXnXnXnXnXnXnXnXnXnXnXnXnXnXnXnXnXnX",
"nXnXnXnXnXlXlXgXgXtXpX`.O.7.A.O.n 2 ' U.nXgXnXqXlXsXdXlXlXlXeXF.z   X 2 f.I.Z.u.A.u.+.+...x.nXnXnXnXnXnXnXnXnXnXnXnXnXnXnXnXnXnX",
"nXnXnXnXnXnXlXlXlXgXtX3X%.%.%.e.F.qXnXsXnXdXnXnXnXnXnXnXzXnXnXnXsX-.z < X.%.2.u.u.y.1.E D i H.nXnXnXnXnXnXnXnXnXnXnXnXnXnXnXnXnX",
"nXnXnXnXnXnXnXnXmXnXnXjXlXdXjXlXnXnXhXmXnXnXzXzXnXnXjXmXnXnXnXzXnXjXsX$XK.t.+.6.R R W y 6 . } nXnXnXnXnXnXnXnXnXnXnXnXnXnXnXnXnX",
"nXnXnXnXnXnXnXnXnXnXmXmXmXjXmXjXmXnXnXnXhXnXnXmXnXnXmXnXnXmXnXnXmXnXdXgXpXaX6.R R J R A [ %.W.nXnXnXnXnXnXnXnXnXnXnXnXnXnXnXnXnX"
};
