/* XPM */
static char *_e1ffac47c9b4c1e917d65338865cc32eMworX0ZknkMKzpZ[] = {
/* columns rows colors chars-per-pixel */
"64 64 238 2 ",
"   c #5B3100",
".  c #533000",
"X  c #6B3A00",
"o  c #6F501A",
"O  c #735A1D",
"+  c #7A5D1C",
"@  c #7C5E15",
"#  c #6D4307",
"$  c #7E611E",
"%  c #7B5E22",
"&  c #745D2A",
"*  c #6D5C26",
"=  c #69622E",
"-  c #7D6223",
";  c #79632C",
":  c #766532",
">  c #786631",
",  c #7C6438",
"<  c #796C39",
"1  c #796C38",
"2  c #7A7237",
"3  c #825E11",
"4  c #815C0C",
"5  c #86651B",
"6  c #906119",
"7  c #977113",
"8  c #805F29",
"9  c #826425",
"0  c #826429",
"q  c #84692C",
"w  c #8D6D2C",
"e  c #8A6A22",
"r  c #946E27",
"t  c #9E792A",
"y  c #957428",
"u  c #856B32",
"i  c #9A7732",
"p  c #997934",
"a  c #8A703D",
"s  c #A47F2E",
"d  c #89734A",
"f  c #857846",
"g  c #8B714B",
"h  c #AD852B",
"j  c #A78639",
"k  c #AB863A",
"l  c #AA8939",
"z  c #B18B36",
"x  c #BB953B",
"c  c #848448",
"v  c #8D915E",
"b  c #988954",
"n  c #B48A49",
"m  c #B69349",
"M  c #A0805A",
"N  c #B99C52",
"B  c #A99151",
"V  c #959763",
"C  c #998165",
"Z  c #B0976E",
"A  c #A6A46B",
"S  c #AAA775",
"D  c #ADB17D",
"F  c #B6B47B",
"G  c #B6B071",
"H  c #C19D4A",
"J  c #D49C5F",
"K  c #CBA34B",
"L  c #C9A548",
"P  c #D1AB4F",
"I  c #CBA451",
"U  c #CBAB58",
"Y  c #D3AC51",
"T  c #DBB45A",
"R  c #D9B459",
"E  c #E5BC5B",
"W  c #D99765",
"Q  c #C9B56C",
"!  c #D2AE72",
"~  c #D1B36E",
"^  c #E4BB64",
"/  c #E6BE6B",
"(  c #FBBD6D",
")  c #F9B46F",
"_  c #EDA67D",
"`  c #F4AB73",
"'  c #F7A67C",
"]  c #F6AA7A",
"[  c #FAAB7B",
"{  c #F7A67B",
"}  c #E0BC72",
"|  c #FCBC74",
" . c #F9B678",
".. c #ECAA6E",
"X. c #FBCD5E",
"o. c #F8CD59",
"O. c #FBD15E",
"+. c #C1C47F",
"@. c #DBD07E",
"#. c #D8C277",
"$. c #ECC367",
"%. c #F5CD65",
"&. c #FCCD63",
"*. c #F2C66B",
"=. c #FEC56C",
"-. c #F4CC6C",
";. c #FDCD6B",
":. c #F7C665",
">. c #FDD164",
",. c #F5D26E",
"<. c #FDD26B",
"1. c #F9D367",
"2. c #E4C678",
"3. c #FEC472",
"4. c #F2CC73",
"5. c #FCCD71",
"6. c #F8CA7C",
"7. c #EAD27B",
"8. c #EAD476",
"9. c #F4D273",
"0. c #FDD373",
"q. c #F8D87A",
"w. c #BBBF82",
"e. c #B6BF95",
"r. c #B3BF99",
"t. c #B5B386",
"y. c #C2AD90",
"u. c #C9B598",
"i. c #CFB389",
"p. c #FAA584",
"a. c #FBA983",
"s. c #FEA58B",
"d. c #FEA98B",
"f. c #F7A580",
"g. c #BCC387",
"h. c #B5C58D",
"j. c #BBC58C",
"k. c #B5CB8E",
"l. c #BCC98D",
"z. c #BFC885",
"x. c #AFCB91",
"c. c #B5C594",
"v. c #B9C695",
"b. c #B6CB93",
"n. c #B9CA94",
"m. c #B5C499",
"M. c #BBC69B",
"N. c #B4CB99",
"B. c #BACA99",
"V. c #B3CB90",
"C. c #BECBA1",
"Z. c #BCC7A1",
"A. c #C1C483",
"S. c #C4C986",
"D. c #C4CB8B",
"F. c #CCCB8B",
"G. c #C9C786",
"H. c #D4CD83",
"J. c #D4CD89",
"K. c #DCD082",
"L. c #D6D18B",
"P. c #DBD48C",
"I. c #DFDC8D",
"U. c #C2CB95",
"Y. c #C3CD9A",
"T. c #CFCF99",
"R. c #D1CF92",
"E. c #D3D493",
"W. c #DEDB97",
"Q. c #CBD49D",
"!. c #E9CB82",
"~. c #F3CE80",
"^. c #E6D584",
"/. c #E8D687",
"(. c #F2D484",
"). c #F8D683",
"_. c #F2DB85",
"`. c #F4D78A",
"'. c #EFCF9E",
"]. c #E4DB92",
"[. c #E7DA96",
"{. c #F1DE92",
"}. c #FBD99B",
"|. c #F8D692",
" X c #C3CCA3",
".X c #C8CCA4",
"XX c #C6C8A5",
"oX c #CAD1AC",
"OX c #C5D0A6",
"+X c #CED9B4",
"@X c #D1D4B5",
"#X c #D2DAB5",
"$X c #DADDBC",
"%X c #D3D9BC",
"&X c #D8CEAD",
"*X c #E0CDAD",
"=X c #F6DBA6",
"-X c #F3D7B0",
";X c #DDE3BC",
":X c #FDE1AD",
">X c #FFEBAD",
",X c #E7E9BD",
"<X c #FEE4BA",
"1X c #FEE7B3",
"2X c #DADBC3",
"3X c #E8DAC4",
"4X c #DCE1C3",
"5X c #E3E5C3",
"6X c #ECEBCB",
"7X c #E5E9C7",
"8X c #FFE5C6",
"9X c #FFEAC4",
"0X c #FFE6CB",
"qX c #FEEACE",
"wX c #F6E3C3",
"eX c #F2F1CF",
"rX c #FFF4CD",
"tX c #EAEBD1",
"yX c #EAEBD6",
"uX c #F3ECD7",
"iX c #FDECD5",
"pX c #FDE7DD",
"aX c #F6EDDC",
"sX c #FCEBDC",
"dX c #FCE6D1",
"fX c #F3F2D3",
"gX c #FDF3D4",
"hX c #F5F4DB",
"jX c #FBF2DD",
"kX c #F6F9DC",
"lX c #ECF2D0",
"zX c #FDEDE4",
"xX c #FEEEE9",
"cX c #F9EBE3",
"vX c #FDF2E4",
"bX c #FCF9E4",
"nX c #FEF1E9",
"mX c #FBF7E9",
/* pixels */
"b.b.b.b.b.b.b.b.b.b.b.b.b.b.b.b.b.b.b.b.b.b.n.n.n.n.b.b.b.b.b.b.b.b.b.b.b.b.b.b.b.b.b.b.b.b.b.b.b.b.b.b.b.b.b.b.b.b.b.b.b.b.b.b.",
"b.b.b.b.b.b.b.b.b.b.b.b.b.b.b.b.b.b.b.b.b.b.b.n.n.n.b.b.b.b.b.b.b.b.b.b.b.b.b.b.b.b.b.b.b.b.b.b.b.b.b.b.b.b.b.b.b.b.b.b.b.b.b.b.",
"b.b.b.b.b.b.b.b.b.b.b.b.b.b.b.b.b.b.b.b.b.b.b.b.b.b.b.b.b.b.b.b.b.b.b.b.b.b.b.b.b.b.b.b.b.b.b.b.b.b.b.b.b.b.b.b.b.b.b.b.b.b.b.b.",
"b.b.b.b.b.b.b.b.b.b.b.b.b.b.b.b.b.b.b.b.b.b.b.b.b.b.b.b.b.b.b.b.b.b.b.b.b.b.b.b.b.b.b.b.b.b.b.b.b.b.b.b.b.b.b.b.b.b.b.b.b.b.b.b.",
"b.b.b.b.b.b.b.b.b.b.b.b.b.b.b.b.b.b.b.b.b.N.N.b.b.b.b.b.b.b.n.n.b.b.b.b.b.b.b.b.b.b.b.b.b.b.b.b.b.b.b.b.b.b.b.b.b.b.b.b.b.b.b.b.",
"b.b.b.b.b.b.b.b.b.b.b.b.b.b.b.b.b.b.n.b.N.N.N.N.b.b.b.b.N.b.n.k.b.b.b.b.b.b.b.b.b.b.b.b.b.b.b.b.b.b.b.b.b.b.b.b.b.b.b.b.b.b.b.b.",
"b.b.b.b.b.b.b.b.b.b.b.b.b.b.b.b.b.b.n.b.b.N.N.b.b.b.b.N.N.N.b.b.b.b.b.b.b.b.b.b.b.b.b.b.b.b.b.b.b.b.b.b.b.b.b.b.b.b.b.b.b.b.b.b.",
"b.b.b.b.b.b.b.b.b.b.b.b.b.b.b.b.b.b.b.b.b.b.b.b.b.b.b.N.N.b.b.b.b.b.b.b.b.b.b.b.b.b.b.b.b.b.b.b.b.b.b.b.b.b.b.b.b.b.b.b.b.b.b.b.",
"b.b.b.b.b.b.b.b.b.b.b.b.b.b.b.b.b.b.b.b.b.b.b.n.k.k.b.b.b.N.b.n.b.b.b.b.b.b.b.b.b.b.b.b.b.b.b.b.b.b.b.b.b.b.b.b.b.b.b.b.b.b.b.b.",
"b.b.b.b.b.b.b.b.b.b.b.b.b.b.b.b.b.b.b.b.b.b.b.k.n.k.b.b.b.b.n.b.b.b.b.b.b.b.b.b.b.b.b.b.b.b.b.b.b.b.b.b.b.b.b.b.b.b.b.b.b.b.b.b.",
"b.b.b.b.b.b.b.b.b.b.b.b.b.b.b.b.b.b.b.b.b.b.b.n.n.b.b.b.b.b.n.n.b.b.b.b.b.b.b.b.b.b.b.b.b.b.b.b.b.b.b.b.b.b.b.b.b.b.b.b.b.b.b.b.",
"b.b.b.b.b.b.b.b.b.b.b.b.b.b.b.b.b.b.b.b.b.b.b.b.b.b.b.b.n.n.b.b.b.b.b.b.b.b.b.b.b.b.b.b.b.b.b.b.b.b.b.b.b.b.b.b.b.b.b.b.b.b.b.b.",
"b.b.b.b.b.b.b.b.b.b.b.b.b.b.b.b.b.b.b.b.b.b.b.N.N.N.b.b.n.k.b.N.b.b.b.b.b.b.b.b.b.b.b.b.b.b.b.b.b.b.b.b.b.b.b.b.b.b.b.b.b.b.b.b.",
"b.b.b.b.b.b.b.b.b.b.b.b.b.b.b.b.b.b.b.b.b.b.b.b.N.N.b.l.S.z.j.n.b.b.b.b.b.b.b.b.b.b.b.b.b.b.b.b.b.b.b.b.b.b.b.b.b.b.b.b.b.b.b.b.",
"b.b.b.b.b.b.b.b.b.b.b.b.b.b.b.b.b.b.b.b.b.n.b.b.b.b.S.J.K.K.H.+.k.b.b.b.b.b.b.b.b.b.b.b.b.b.b.b.b.b.b.b.b.b.b.b.b.b.b.b.b.b.b.b.",
"b.b.b.b.b.b.b.b.b.b.b.b.b.b.b.b.b.b.b.b.n.n.b.b.b.k.E.].7.7./.L.l.b.b.b.b.b.b.b.b.b.b.b.b.b.b.n.l.l.l.k.b.b.b.b.b.b.b.b.b.b.b.b.",
"b.b.b.n.b.k.b.b.b.b.b.b.b.n.b.b.b.b.b.n.b.N.b.b.b.k.E.].^.(.#.G.l.b.n.b.n.n.b.b.b.N.b.b.c.n.h.D.H.@.H.A.n.b.N.b.b.b.b.b.b.b.b.b.",
"N.b.b.n.b.k.b.b.b.b.N.b.b.n.b.b.b.b.n.b.b.b.b.b.b.b.l.G.H.^.Q 2 g.U.g.n.h.B.n.n.N.b.N.b.b.l.Q.W.^.7./.P.U.b.b.b.b.b.b.b.b.b.b.b.",
"b.b.b.b.b.b.b.b.b.b.b.N.b.b.b.b.b.b.b.b.b.n.n.n.N.N.n.g.g.A.R.A 2 F.A.l.l.l.v.v.B.N.b.n.B.U.A G ^.8.^.P.l.b.b.n.b.b.b.b.b.b.n.n.",
"b.b.b.b.b.b.b.b.N.b.N.N.b.b.b.b.b.b.b.b.n.n.l.g.l.D.D.E.P.P.[.^.N !./.L.L.L.J.F.F.D.S.S.w.c c F K.@.H.G.k.b.n.b.b.b.b.b.b.b.b.n.",
"b.b.b.b.b.b.b.b.b.b.b.b.b.b.b.b.b.b.b.b.l.j.F.P./.(.).q.,.,.-.-.0.-.,.9.-.9.9.9.8.8.8.7.j B R.D.j.j.U.n.b.b.n.k.b.b.b.n.N.N.b.b.",
"b.b.b.b.b.b.b.n.b.b.b.b.b.b.b.b.b.b.k.l.F.].{.(.9.-.;.&.X.o.&.&.X.>.&.&.&.X.&.O.O.1.%.-.4.).^.L.D.n.c.N.b.b.b.b.b.b.n.n.N.N.b.b.",
"k.b.b.N.b.b.n.v.n.n.n.b.b.b.b.b.b.l.F.].(.9.-.,.%.%.&.>.X.>.>.&.>.&.&.%.%.<.1.1.O.o.>.;.-.-.9.9._.I.D.h.b.b.x.b.b.b.n.b.N.b.b.b.",
"k.b.b.N.b.b.b.n.n.n.b.b.b.b.b.n.g.E.{.q.-.&.&.&.&.&.&.1.%.%.1.<.>.&.>.>.>.%.<.1.O.X.&.&.%.&.X.&.%.q.].D.j.b.b.b.b.n.n.b.b.b.b.k.",
"n.n.b.b.b.b.b.b.b.k.k.b.b.N.b.l.I._.9.%.&.>.&.;.;.;.0.0.<.0.0.;.&.&.&.X.O.X.O.&.X.&.&.&.&.&.&.&.&.-.4.{.D.h.b.b.n.n.b.b.b.b.n.n.",
"n.b.b.b.b.b.b.b.b.b.b.c.B.c.h.W.{.-.%.&.;.=.( ( ( | 3.6.^ x Y -.&.X.<.<.>.>.X.>.;.0.0.;.;.;.&.&.&.&.;.9.[.D.k.b.b.b.b.b.b.b.b.b.",
"n.B.c.b.b.b.b.b.N.m.M.C. X.X[.{.-.%.&.;.| { a.' { ] ] ..# .   K <.>.R h x $.&.%.I r t / 5.=.=.;.&.>.&.-.(.J.g.n.b.b.b.b.k.b.b.b.",
"b.b.b.b.b.b.c.C.+X7XfXhXfXrX>X2.;.X.>.=.] s.d.d.d.p.d._ n i k *.<.<.P 7 7 E %.;.6   X J  .` ) ( ;.<.&.;.4.^.A.n.b.N.b.b.b.b.N.N.",
"n.n.b.n.m. X4XhXbXmXmXzXsX9X`.5.;.&.&.=.[ a.s.d.s.d.s.' 6.q.0.>.&.&.<.<.>.>.X.;.| W _ a.f.a.' [ | =.;.&.%._.S.b.b.b.b.b.b.b.b.b.",
"k.b.B.c.$XhXbXmXcXzXnXzXpX8X`.-.:.;.&.;.| ] [ a.{ [ [  .=.&.&.X.&.X.X.X.o.o.X.;.| ] d.d.d.d.s.f.` 3.;.&.%.q.S.b.b.b.b.b.b.b.b.b.",
"n.n.c.+XkXaXzXzXzXnXzXzXzX0X}.5.&.X.<.%.;.=.( | | ( =.=.<.&.>.&.X.X.&.X.O.O.&.;.( ` f.d.s.s.s.' ` 3.&.%.-._.S.b.b.b.b.k.n.b.b.b.",
"b.n.m.7XvXnXzXzXnXsXnXzXzXiX:X~.-.%.1.0.<.;.5.5.;.&.&.X.X.X.&.&.X.X.&.&.>.>.>.;.;.(  .] [ [ ]  .6.5.&.%.4.{.T.B.N.N.c.n.n.n.b.b.",
"b.b.Z.tXvXzXzXzXzXzXzXzXzXsX0X:X(.4.9.^ P T 5.-.&.X.&.&.&.&.>.o.X.X.X.X.&.X.&.&.&.&.;.=.3.3.3.5.<.;.&.%.6.>XgXhXtX4XoXM.v.b.b.N.",
"b.N.m.2XmXzXzXzXzXzXzXzXzXzXsX0X:X}.N 3 3 4 h -.&.X.&.&.&.&.>.>.X.X.&.&.&.X.X.X.>.&.&.&.<.<.>.>.X.>.%.4.}.9XsXmXvXvXbXhX#XM.c.b.",
"k.n.e.2XnXcXxXxXzXnXzXzXnXzXzXsXiX8Xa % 9 5 5 $.<.>.&.&.&.&.<.>.>.>.X.X.&.X.&.>.%.<.<.;.;.&.&.>.>.&.4.|.<XiXzXzXzXnXzXnXbX7XC.c.",
"c.B.5XvXzXzXzXzXzXnXnXmXzXnXzXzXzXpXy., ; - N ).5.;.;.&.;.<.&.%.1.>.&.X.&.>.>.>.<.1.0.0.5.9.<.-.-.6.}.<XiXzXzXxXzXzXxXxXzXbXlXB.",
"XX6XvXsXcXzXzXzXzXzXzXzXxXxXzXzXxXxXnX3Xd b >X2./ -.0.0.<.<.<.<.<.<.;.&.&.X.o.o.O.o.<.L y y n !.}.<XqXsXvXzXzXzXnXzXzXzXcXjXfXY.",
"@XjXsXzXzXzXzXpXsXzXzXzXxXzXzXzXzXxXzXvXZ f ! q 5 y s z H Y T E $.*.-.-.5.;.<.&.;.9.T @ - ; o Z gXiXzXzXzXzXnXzXzXzXnXnXvXjXeX X",
"3XvXzXzXzXsXpXvXsXsXzXzXzXzXzXzXzXnXzXsX*X, & ; 0 9 9 9 9 + e p i i j j l l l t ! 1Xi.O & & d *XjXaXnXnXvXsXvXnXnXnXxXcXzXvX7XM.",
"@XhXjXaXzXzXsXpXpXsXzXzXzXzXzXzXzXzXpXqX-XB w 9 $ 9 9 0 q q q u q 9 w q w w w % M u.g d Z u.qXjXsXnXnXzXnXvXsXzXzXnXxXnXvX7XM.v.",
"m.;XkXhXaXzXzXzXzXpXpXzXzXzXzXzXzXzXdX<X(.-.$.K x z t e 5 $ $ + - - % % 8 0 - ; g C u.qXbXvXvXzXzXzXxXxXxXzXzXzXzXzXnXyX@Xm.n.b.",
"B.v.#XhXvXzXzXzXzXzXzXzXzXzXzXzXzXiXiX=X4.&.&.<.<.<.-.$.T U H m j p i i i r y 9 y.jXvXvXsXzXzXzXzXzXxXxXxXzXzXzXzXcXmX%Xr.N.h.n.",
"b.b.m.oX6XhXsXnXzXzXzXsXsXcXzXzXzXsX8X'.6.0.<.&.&.X.&.<.<.<.<.<.<.;.-.:.-.:.$.} -XsXsXnXzXzXnXzXzXzXzXzXzXzXzXzXzXzXaXtXOXc.B.b.",
"b.b.B.v.e.XX5X6XuXjXvXvXvXjXjXaXjXgXwXZ m I R *.-.<.<.;.%.%.&.X.X.X.X.X.&.%.-.|.9XpXnXcXnXnXcXnXzXzXzXzXzXzXsXsXzXzXsXkX;Xv.B.B.",
"b.b.b.n.n.c.c.B. XoX@X$X$X5X5X5X5X;X7Xt.* - 9 w j m I T ^ $.-.<.<.<.<.1.1.9.~.:XiXzXzXnXzXzXzXzXzXzXzXzXzXzXsXpXpXpXpXuX6XM.b.b.",
"b.b.b.k.b.b.b.b.c.c.c.m.m.v.v.v.c.c.M.#XS = > ; % + @ 5 5 5 y z x L P R T Q =XrXiXnXxXxXzXzXzXzXpXpXsXsXsXsXpXpXpXpXsXjX5Xv.n.k.",
"b.b.b.b.b.b.b.b.b.b.n.n.n.n.B.B.b.n.B.v.Y.D f 1 < u q - 0 - % % % O + O 2 G ,XeXvXnXzXzXzXsXpXpXpXpXcXsXpXpXpXpXpXsXhX7XZ.c.n.n.",
"n.n.b.b.b.b.N.b.b.b.b.b.b.b.b.b.b.b.n.n.v.U.U.F < < > ; > > : : : f f V g.U.e..X$XuXaXvXaXjXgXiXsXaXaXaXiXsXsXsXjXtX%XM.m.N.b.k.",
"b.b.b.b.b.b.b.b.b.b.b.b.b.b.b.b.b.n.n.n.b.v.n.U.< = 1 v S S A D t.h.U.Y.B.b.b.B.m.v.C.oX#X;X,X7X6XfXfXeX6X6X5X$XoXC.m.c.B.b.b.b.",
"b.b.b.b.b.b.b.b.b.b.b.b.b.b.b.b.b.b.b.b.b.n.n.n.V v D Y.U.U.Y.B.n.n.b.b.b.b.b.b.b.b.b.c.c.c.v.v. X X X XY.B.B.c.n.b.n.b.b.b.b.b.",
"b.b.b.b.b.b.b.b.b.b.b.b.b.b.b.b.b.b.b.b.b.b.b.b.Y.Y.U.v.n.b.h.b.b.b.b.b.b.n.b.b.b.b.b.b.B.B.B.B.v.v.v.v.v.v.c.n.c.b.n.b.b.b.b.b.",
"b.b.b.b.b.b.b.b.b.b.b.b.b.b.b.b.b.b.b.b.b.b.b.b.n.h.n.n.b.b.b.b.b.b.b.b.b.b.b.b.b.b.n.b.n.n.c.c.B.n.n.n.n.b.B.n.B.n.b.b.b.b.b.b.",
"b.b.b.b.b.b.b.b.b.b.b.b.b.b.b.b.b.b.b.b.b.b.b.b.n.b.n.n.b.b.b.b.b.b.b.b.b.b.b.b.b.b.b.b.b.b.b.b.b.b.b.b.n.b.b.b.b.b.b.b.b.b.b.b.",
"b.b.b.b.b.b.b.b.b.b.b.b.b.b.b.b.b.b.b.b.b.b.b.n.b.b.b.b.b.b.b.b.b.b.b.b.n.n.b.b.b.b.b.b.b.b.b.b.b.b.b.b.b.b.b.b.b.b.b.b.b.b.b.b.",
"b.b.b.b.b.b.b.b.b.b.b.b.b.b.b.b.n.n.n.b.b.b.b.b.c.n.n.b.b.b.b.b.b.b.b.b.b.b.b.b.b.b.b.b.b.b.b.b.b.b.b.b.b.b.b.b.b.b.b.b.b.b.b.b.",
"b.b.b.b.b.b.b.b.b.b.b.b.b.b.b.b.n.n.n.b.b.b.b.b.b.b.b.b.n.b.b.b.b.b.b.b.b.b.b.b.b.b.b.b.b.b.b.b.b.b.b.b.b.b.b.b.b.b.b.b.b.b.b.b.",
"b.b.b.b.b.b.b.b.b.b.b.b.b.b.b.b.b.b.b.b.b.b.b.b.b.b.b.b.b.b.b.b.b.b.b.b.b.b.b.b.b.b.b.b.b.b.b.b.b.b.b.b.b.b.b.b.b.b.b.b.b.b.b.b.",
"b.b.b.b.b.b.b.b.b.b.b.b.b.b.b.b.b.b.b.b.b.b.b.b.b.b.b.b.b.b.b.b.b.b.b.b.b.b.b.b.b.b.b.b.b.b.b.b.b.b.b.b.b.b.b.b.b.b.b.b.b.b.b.b.",
"b.b.b.b.b.b.b.b.b.b.b.b.b.b.b.b.b.b.b.b.b.b.b.b.b.b.b.b.b.b.b.b.b.b.b.b.b.b.b.b.b.b.b.b.b.b.b.b.b.b.b.b.b.b.b.b.b.b.b.b.b.b.b.b.",
"b.b.b.b.b.b.b.b.b.b.b.b.b.b.b.b.b.b.b.b.b.b.b.b.b.b.b.b.b.b.b.b.b.b.b.b.b.b.b.b.b.b.b.b.b.b.b.b.b.b.b.b.b.b.b.b.b.b.b.b.b.b.b.b.",
"b.b.b.b.b.b.b.b.b.b.b.b.b.b.b.b.b.b.b.b.b.b.b.b.b.b.b.b.b.b.b.b.b.b.b.b.b.b.b.b.b.b.b.b.b.b.b.b.b.b.b.b.b.b.b.b.b.b.b.b.b.b.b.b.",
"b.b.b.b.b.b.b.b.b.b.b.b.b.b.b.b.b.b.b.b.b.b.b.b.b.b.b.b.b.b.b.b.b.b.b.b.b.b.b.b.b.b.b.b.b.b.b.b.b.b.b.b.b.b.b.b.b.b.b.b.b.b.b.b.",
"b.b.b.b.b.b.b.b.b.b.b.b.b.b.b.b.b.b.b.b.b.b.b.b.b.b.b.b.b.b.b.b.b.b.b.b.b.b.b.b.b.b.b.b.b.b.b.b.b.b.b.b.b.b.b.b.b.b.b.b.b.b.b.b.",
"b.b.b.b.b.b.b.b.b.b.b.b.b.b.b.b.b.b.b.b.b.b.b.b.b.b.b.b.b.b.b.b.b.b.b.b.b.b.b.b.b.b.b.b.b.b.b.b.b.b.b.b.b.b.b.b.b.b.b.b.b.b.b.b."
};
