/* XPM */
static char *_9dff46723d74306f06e559c565c91c7zdrv4HOsnjhGH8db[] = {
/* columns rows colors chars-per-pixel */
"64 64 213 2 ",
"   c #964C19",
".  c #9B4E18",
"X  c #9B531E",
"o  c #98581F",
"O  c #B14F0E",
"+  c #A74F1A",
"@  c #B34F13",
"#  c #AE5114",
"$  c #A4511C",
"%  c #AB541D",
"&  c #B45315",
"*  c #B95417",
"=  c #B5541B",
"-  c #B9541B",
";  c #B6581D",
":  c #BB5B1C",
">  c #B75917",
",  c #BF601C",
"<  c #964F21",
"1  c #8A5221",
"2  c #965525",
"3  c #9C5424",
"4  c #9C5C2C",
"5  c #975A2A",
"6  c #A25422",
"7  c #AD5422",
"8  c #AE5B24",
"9  c #A45D2A",
"0  c #AA5D28",
"q  c #B45521",
"w  c #BB5520",
"e  c #B15B23",
"r  c #BE5B23",
"t  c #B25B28",
"y  c #9C6B3A",
"u  c #9B6434",
"i  c #9D6226",
"p  c #A86127",
"a  c #BE6321",
"s  c #BB6927",
"d  c #B4642C",
"f  c #BB6A2D",
"g  c #B96529",
"h  c #A36532",
"j  c #A26E3B",
"k  c #A86A38",
"l  c #B76A34",
"z  c #AA723E",
"x  c #A5723C",
"c  c #BF7133",
"v  c #B77032",
"b  c #C15C1D",
"n  c #C05D21",
"m  c #C36323",
"M  c #CB6525",
"N  c #C56925",
"B  c #CD6D25",
"V  c #C46329",
"C  c #C36C2C",
"Z  c #CD6C2A",
"A  c #D16F25",
"S  c #D26E2A",
"D  c #CE7124",
"F  c #CE712B",
"G  c #C5752E",
"H  c #D17226",
"J  c #D3722B",
"K  c #D8762B",
"L  c #D5792D",
"P  c #DA7D2D",
"I  c #C76C35",
"U  c #CB7233",
"Y  c #CD743A",
"T  c #C77A3D",
"R  c #CB7C3E",
"E  c #C47439",
"W  c #D47332",
"Q  c #D67936",
"!  c #DB7E31",
"~  c #D47A3D",
"^  c #DA7D3C",
"/  c #9E7A4A",
"(  c #AA6C41",
")  c #A46B40",
"_  c #A37343",
"`  c #AC7444",
"'  c #AC794B",
"]  c #A87748",
"[  c #B37E4E",
"{  c #BB7B4B",
"}  c #A87E53",
"|  c #B37E52",
" . c #CC7B40",
".. c #D57D43",
"X. c #DD7F42",
"o. c #E27F44",
"O. c #DE8233",
"+. c #DE8832",
"@. c #DC823E",
"#. c #E0812F",
"$. c #E28634",
"%. c #E28834",
"&. c #E38739",
"*. c #E38938",
"=. c #B8814F",
"-. c #AA8658",
";. c #B58252",
":. c #B68658",
">. c #BA8857",
",. c #BA8F64",
"<. c #BC9768",
"1. c #AF9967",
"2. c #BEA376",
"3. c #CD8143",
"4. c #DB8143",
"5. c #DD8449",
"6. c #D68043",
"7. c #C28E5B",
"8. c #E08245",
"9. c #C79968",
"0. c #C8A878",
"q. c #D1AA7C",
"w. c #D3A77A",
"e. c #C6B07F",
"r. c #D4B07E",
"t. c #CDAE80",
"y. c #D8AD82",
"u. c #CDBC8B",
"i. c #CDB787",
"p. c #D9BC8C",
"a. c #D4B889",
"s. c #DDBF99",
"d. c #E0BA8D",
"f. c #B5C48E",
"g. c #BAC58F",
"h. c #B4CA8E",
"j. c #B5C693",
"k. c #BAC592",
"l. c #B5CB93",
"z. c #B9CA94",
"x. c #B7C799",
"c. c #BCC699",
"v. c #B6CB99",
"b. c #BACC99",
"n. c #CFC48E",
"m. c #C3C995",
"M. c #CDCB95",
"N. c #C4CB9B",
"B. c #CBCD9B",
"V. c #C4C595",
"C. c #D5C395",
"Z. c #DCC494",
"A. c #D1CC96",
"S. c #D2CD9B",
"D. c #DBC99B",
"F. c #D5C69A",
"G. c #CAD19E",
"H. c #CFD097",
"J. c #E2CD9F",
"K. c #E4C499",
"L. c #E1D19E",
"P. c #CBCEA1",
"I. c #D3CFA2",
"U. c #DACEA1",
"Y. c #CCD3A2",
"T. c #D3D4A4",
"R. c #DAD4A4",
"E. c #D2D8A7",
"W. c #D4D5AB",
"Q. c #D5DAAA",
"!. c #DADAAA",
"~. c #DFDEB0",
"^. c #EACDAD",
"/. c #FACFAD",
"(. c #E2DCAE",
"). c #E6D4AA",
"_. c #F5D6AE",
"`. c #F9D3AF",
"'. c #EDD6B6",
"]. c #E3DDB1",
"[. c #ECDDB4",
"{. c #ECDBBC",
"}. c #F3DCB5",
"|. c #F9DDB6",
" X c #F2DDB9",
".X c #FEDEBA",
"XX c #FAD3B2",
"oX c #DFE1B2",
"OX c #E4E1B4",
"+X c #EBE2B6",
"@X c #ECE5BA",
"#X c #EEE9BC",
"$X c #F4E0B6",
"%X c #F4E4BC",
"&X c #FBE4BC",
"*X c #F4E9BE",
"=X c #FCE9BF",
"-X c #EDE3C5",
";X c #EFE8CC",
":X c #EEE7CA",
">X c #F4E4C4",
",X c #FCE6C3",
"<X c #F6E9C2",
"1X c #FCE9C3",
"2X c #F3E6CA",
"3X c #F4E9CD",
"4X c #FCECCB",
"5X c #F8E7C9",
"6X c #FFF0CE",
"7X c #F7ECD0",
"8X c #FBEED2",
"9X c #FEF2D5",
"0X c #FFF4D8",
/* pixels */
"l.l.l.l.z.l.l.l.l.l.l.l.l.l.z.z.z.l.l.l.z.z.l.l.l.l.l.l.l.l.l.l.l.l.l.l.l.l.l.l.z.z.z.z.l.l.l.l.l.l.l.z.z.l.l.l.l.l.z.z.l.l.l.l.",
"l.l.l.l.z.l.l.l.l.l.l.l.l.z.z.z.z.l.l.l.l.l.l.l.l.l.l.l.l.l.l.l.l.l.l.l.l.l.l.l.z.z.z.z.l.l.l.l.l.l.l.l.l.l.l.l.l.l.z.l.l.l.l.l.",
"l.l.l.l.z.l.l.l.l.l.z.z.z.z.z.l.l.l.l.l.l.l.l.l.l.z.z.z.z.z.z.z.z.l.z.z.l.z.z.z.l.l.l.l.z.l.l.l.l.l.l.z.z.z.z.z.z.z.z.l.l.l.l.l.",
"l.l.l.z.z.z.z.l.l.l.z.z.z.z.l.l.l.l.l.l.l.l.l.l.l.z.z.z.z.z.z.j.z.z.z.z.v.v.z.z.l.l.l.l.l.l.l.l.l.l.z.z.z.z.z.z.z.z.l.l.l.l.l.l.",
"l.l.l.z.z.z.z.z.l.l.l.l.l.l.z.l.l.l.l.l.l.z.z.l.l.l.l.l.l.z.z.z.z.z.l.l.z.z.z.z.l.l.l.l.l.l.l.l.z.z.z.z.z.l.l.l.l.l.l.l.l.z.z.z.",
"l.l.l.l.z.z.z.z.l.l.l.l.l.l.l.l.l.l.l.l.l.l.l.l.l.l.l.l.l.l.l.l.l.l.l.l.z.z.z.l.l.l.l.l.l.l.l.l.z.z.z.z.z.l.l.l.l.l.l.l.l.z.z.z.",
"z.z.z.l.l.l.l.z.z.z.z.z.l.l.h.h.l.l.l.l.l.l.l.l.l.l.l.z.l.l.l.h.l.l.l.l.l.l.l.h.l.l.l.l.l.z.z.z.l.l.z.z.l.l.l.l.l.l.l.l.l.z.z.z.",
"v.z.z.l.l.l.l.z.z.z.z.z.l.l.l.l.l.l.l.l.l.l.k.k.k.k.m.B.B.B.H.M.B.B.B.M.M.M.M.m.g.z.l.l.l.z.z.z.l.l.z.z.l.l.l.l.l.z.z.l.l.l.l.l.",
"v.v.l.l.l.l.l.l.l.l.l.l.l.l.z.l.z.z.j.j.k.N.I.U.D.Z.a.w.9.9.>.;.;.;.=.>.7.9.w.r.p.F.S.N.b.j.l.l.l.l.l.l.l.l.l.z.z.z.l.l.l.l.l.l.",
"z.z.l.l.l.l.l.v.l.j.l.l.l.z.v.j.k.V.I.R.D.i.<.-._ h 4 X . . $ $ $ $ $ $ $ $ 6 4 u ] -.2.u.S.M.m.g.z.l.l.l.l.z.j.z.z.z.l.l.l.l.h.",
"z.k.l.l.l.l.v.j.b.z.l.v.z.j.c.I.).K.0.[ k 0 8 g s s C C C N m : - ; ; q 8 e q 7 7 % $ $ 9 ` 9.p.U.N.l.h.l.l.z.z.z.z.z.z.l.l.l.h.",
"z.z.l.l.z.z.z.z.j.z.v.f.m.R.J.0.' h p f U W K K H H H H H J J J S M n : = = = - - - - - q $ 6 4 -.t.S.N.z.l.z.j.z.z.z.z.l.l.l.l.",
"l.l.z.z.z.l.l.z.l.z.j.W.J.9.h $ s G U F F H H H H H H H D D A Z A J J Z m - & = = - w - = = q 7 6 3 ` q.U.N.j.v.z.z.z.l.l.l.l.l.",
"l.l.z.l.z.z.l.j.f.m.(.0.u 3 V J H D H ! O.$.*.$.&.$.$.$.O.! P L D B B H J J N - - = & = ; ; ; = - q 7 2 ] u.T.k.k.l.l.l.l.l.l.l.",
"l.l.l.h.l.v.z.k.I.J.'   g F F H K P $.$.*.%.$.*.$.$.&.*.&.&.*.$.$.O.P H A A A Z : & & : ; & = = = & w q $ 4 ,.L.m.z.l.l.z.l.l.l.",
"l.l.l.l.l.j.x.I.K.y X C J A H P &.&.&.$.$.%.%.$.$.$.$.$.$.$.%.%.%.%.%.$.! K H H J m > & & = - = > = - = r 7 X _ Z.M.v.x.z.z.z.l.",
"l.l.z.l.l.j.W.s.5 % C W B L $.&.&.&.$.$.$.$.%.%.$.$.$.$.%.%.%.%.%.%.%.$.%.&.! K D H B b : - @ - - & > & = ; ; $ 4 y.T.j.z.l.z.l.",
"l.l.l.z.f.T.J.5 % Z W B L $.$.*.*.%.$.$.$.$.$.$.$.$.$.$.$.%.%.%.%.%.%.$.$.*.%.$.P D D K Z M m - * & = ; = & - - 7 2 t.R.k.z.z.l.",
"z.v.z.z.N.).u % m A J B P *.$.%.+.+.+.%.$.$.$.$.$.$.$.$.$.$.$.$.$.%.$.$.$.$.%.%.*.P D D F J W S M b = = q = w - q t 2 y.S.l.l.l.",
"v.z.z.k.$X} $ : A J H A P *.$.%.%.%.%.%.$.$.$.$.$.$.$.$.$.$.$.$.$.$.$.%.%.$.$.$.$.*.P D H J Z A S S V = w = = - w = 7 4 C.N.l.l.",
"l.v.j.!.y.< e : J F A A K $.*.%.$.$.$.$.$.$.$.$.%.%.%.%.%.%.$.$.%.$.$.$.%.%.%.%.*.%.$.L B H A H A J W n = = = = & & r 6 _ ).g.l.",
"l.z.k.[.k 7 # : J F H H B P &.*.$.$.*.*.$.$.$.%.$.%.%.%.%.%.$.%.$.%.$.%.$.$.$.%.$.O.*.! H H H H H B J m & = = = * - - 7 2 w.B.l.",
"l.z.Y.u.X ; = & Z J H H H H J ! &.*.%.*.&.$.$.$.$.$.%.%.%.+.%.$.$.%.*.%.$.$.$.$.$.&.$.K B A A A H F F : & = - - = = q q 6 [ R.j.",
"l.j.E.0.  m I ; & m Z J J H J Z J L ! O.O.$.$.&.&.&.&.*.*.*.&.$.O.$.$.#.$.$.&.$.$.! K B A H J J S J N & = ; - - = ; = % $ z S.j.",
"x.x.Y.t.  r ~ ~ m # & m V Z W J S A J Z F D H J J K K K K K J H H A A H H H H H H H H H H H J Z Z n & & = = = & = > a U I ` R.x.",
"v.v.z.R.j   t ..4.Z = # > - > b M M Z S F F F F A H S S S S J J A J W J A J J J A J J N N N , : > = - & & > : a F W Q 5.l :.R.j.",
"l.l.j.N.F.} 2 . f @.@.F Z N : : > & O & > : : : : : b b b b b b m r r n : : : : - & & = & & # & = > : m N J Q ^ Q ^ o.I 1 p.N.z.",
"l.l.l.j.c.U.t.;.i o p v T  .T 3.R R E I g ; = & & & @ & & & & @ & # # & & = : r V I I Y U Y Y Y ~ ..4.4.4.4.4.6... .0 o e.T.f.l.",
"l.l.l.z.z.z.N.B.n.e.1.-./ y y y y j k l E ..X.Q W Z N m m m m m a N Z U Q ^ 4.8.5...I t t 8 d d l f f d d d 0 9 2 5 / u.B.f.z.l.",
"z.l.l.z.l.l.v.l.z.N.P.P.F.C.u.u.u.i.q.9.z 3 6 f E E R R  . .T T T T E c c f d p 9 9 z { z ` x x j x z ` ' [ :.,.0.u.T.z.l.l.l.l.",
"z.l.l.l.l.l.l.l.h.z.k.j.k.k.k.k.z.m.m.M.C.Z.<._ ) k ( ( ( ` ] ' ' ' | ;.>.7.9.w.d.K._.&XD.S.S.A.A.M.M.B.S.S.B.B.m.m.f.l.l.h.l.j.",
"l.z.j.z.l.l.l.l.l.l.z.v.l.l.l.l.l.l.l.k.V.+X[.|.XX`././.`.`._._..X.X.X|..X|.|.&X&X%X).].Q.k.j.z.l.l.z.l.l.l.l.l.l.l.z.h.h.l.l.b.",
"l.l.l.l.l.l.l.l.l.l.z.z.l.l.l.l.l.l.l.l.Y.].[.}.^.'.,X X'.'.%X X,X,X>X{.%X). X}.}.}. X+X@XN.v.v.l.l.l.z.z.l.l.l.l.l.l.l.l.l.l.l.",
"l.l.l.l.l.l.l.l.l.l.l.l.l.l.l.l.z.z.l.z.!.+X,X'. X>X8X-X2X{.8X9X4X>X>X2X4X%X<X&X|.}.=X=X#XoXc.j.z.l.l.z.l.l.l.l.l.l.l.l.l.l.l.l.",
"l.l.l.l.l.l.l.l.l.l.l.l.l.l.l.l.l.b.j.G.@X*X X X4X4X8X-X9X2X9X0X8X8X5X2X4X4X6X4X}.}.1X=X%X#XE.k.z.l.l.l.l.l.l.l.l.l.l.l.l.l.l.l.",
"l.l.l.l.l.l.l.l.l.l.l.l.l.l.l.l.l.z.k.!.#X1X X1X9X9X5X-X0X9X9X9X9X0X8X4X9X4X4X4X&X&X=X&X1X%X#XP.j.z.l.l.l.l.l.l.l.l.l.l.l.l.l.l.",
"l.l.l.l.l.l.l.l.l.l.l.l.l.l.l.l.b.j.B.@X<X,X4X4X4X9X5X8X0X0X0X9X9X8X9X0X0X4X4X4X4X,X=X1X1X*X%XOXN.j.l.l.l.l.l.l.l.l.l.l.l.l.l.l.",
"l.l.l.l.l.l.l.l.l.l.l.l.l.l.l.l.z.m.(.%X1X,X4X4X9X0X9X9X9X9X9X9X9X9X9X9X0X9X9X4X4X4X,X,X&X1X&X%X!.j.l.l.l.l.l.l.l.l.l.l.l.l.l.z.",
"l.l.l.l.l.l.l.l.l.l.l.l.l.l.z.z.k.T.%X<X1X1X>X9X9X9X9X9X0X0X0X9X9X0X0X3X0X0X9X8X4X4X4X1X&X&X1X&X#XB.z.l.l.z.z.l.l.l.l.l.l.l.l.z.",
"l.l.l.l.l.l.l.l.l.l.l.l.l.l.z.z.B.@X%X,X1X>X>X9X9X9X8X9X9X0X9X9X0X9X9X3X8X9X0X9X8X4X4X4X X}.&X=X%XOXk.l.z.z.z.l.l.l.l.l.l.l.l.z.",
"l.l.l.l.l.l.l.l.l.z.l.l.l.l.z.c.].[.%X>X4X1X2X8X9X3X7X0X0X8X0X9X9X0X8X3X8X3X9X8X5X4X4X4X&X}..X&X&X#XE.j.b.z.l.l.l.l.l.l.l.l.l.l.",
"l.l.l.l.l.l.l.l.l.l.l.l.l.z.k.T.]. X1X>X4X5X9X8X9X7X9X0X9X3X9X0X3X9X7X3X9X2X9X3X2X4X4X1X&X}.&X}.&X*X~.N.k.z.z.l.l.l.l.l.l.l.l.l.",
"l.l.l.l.l.l.l.l.l.l.l.l.z.z.N.OX[.%X4X>X4X5X9X7X8X4X8X8X9X3X0X0X2X9X3X3X0X2X0X8X2X8X2X1X1X}.=X|.|.&X+X!.k.z.z.z.l.l.l.l.l.l.l.l.",
"l.l.l.l.l.l.l.l.l.z.l.l.l.j.E.+X X1X4X>X9X5X3X3X3X4X8X7X9X7X9X9X3X9X3X3X8X2X8X7X3X9X2X,X1X}.=X=X|.}.[.OXN.z.z.z.z.l.l.l.l.l.l.l.",
"l.l.l.l.l.l.l.l.z.z.l.l.z.k.OX[.}.1X1X>X4X2X2X3X2X7X8X7X3X3X8X9X3X8X2X2X2X2X:X3X3X0X5X>X1X%X|.&X}.}.[.+XY.z.z.z.z.z.l.l.l.l.l.l.",
"l.l.l.l.l.l.l.l.z.l.l.l.l.Y.+X[.}.%X%X>X2X2X3X3X2X2X2X2X2X3X3X7X2X3X2X3X2X3X:X3X3X8X2X%X,X}.}.}.|.}. X+XQ.z.l.l.z.z.l.l.l.l.l.l.",
"l.l.l.l.l.l.z.z.z.l.l.l.j.E.+X X X X>X>X>X5X3X3X3X;X;X:X2X4X2X2X5X3X2X3X2X2X2X2X5X2X>X%X%X X}.}.}.}. X[.Q.l.l.l.l.z.l.l.l.l.l.l.",
"l.l.l.l.l.l.z.l.z.l.l.l.z.T.[. X X&X1X>X5X4X5X2X2X:X3X2X3X4X3X2X5X2X3X2X2X2X8X8X5X5X4X,X%X X=X}.}.}.}.+XQ.l.l.l.l.l.l.l.l.l.l.l.",
"l.l.l.l.l.l.l.l.l.l.l.z.k.Y.#X[. X&X4X>X4X5X5X5X2X3X7X8X7X8X8X3X8X:X3X2X3X3X3X0X2X4X>X1X=X$X=X&X|.}. X+XN.z.l.l.l.l.l.l.l.l.l.l.",
"l.l.l.l.l.l.l.l.l.l.l.z.k.N.].#X X&X1X%X4X4X4X4X4X3X8X9X4X9X9X4X8X3X9X8X8X3X5X4X>X4X%X&X}.&X=X|.}. X+XOXz.z.l.l.l.l.l.l.l.l.l.l.",
"l.l.l.l.l.l.l.l.l.l.z.z.z.k.B.].%X=X,X%X1X1X>X4X4X5X4X9X4X4X9X5X4X2X4X2X4X2X,X4X,X1X X&X}.=X=X&X$X%XOXN.k.j.l.l.l.l.l.l.l.l.l.l.",
"l.l.l.l.l.l.l.l.l.l.l.z.z.k.k.N.(.@X<X*X<X>X X,X4X,X4X4X4X4X6X4X6X>X4X2X4X4X,X1X1X&X}.&X&X=X=X=X*X].B.k.z.z.l.l.l.l.l.l.l.l.l.l.",
"l.l.l.l.l.l.l.l.l.l.l.l.z.z.z.k.k.G.Q.OX*X<X%X,X,X,X,X,X,X,X,X1X<X%X,X,X1X1X,X,X1X&X&X<X<X1X%XOXT.N.k.z.z.l.l.l.l.l.l.l.l.l.l.l.",
"l.l.l.l.l.l.l.l.l.l.l.l.l.z.z.z.l.l.j.z.G.!.].+X%X&X&X&X1X<X<X1X1X<X<X=X<X<X<X1X<X%X*X+X!.E.B.c.j.j.b.z.l.l.z.l.l.l.l.l.l.l.l.l.",
"l.l.l.l.l.l.l.l.l.l.l.l.l.l.l.l.l.l.l.l.l.f.z.m.N.G.Y.T.Q.Q.Q.Q.Q.Q.!.!.!.R.T.T.T.B.N.z.l.l.z.z.l.l.l.l.l.z.j.z.l.l.l.l.l.l.l.l.",
"l.l.l.l.l.l.l.l.l.l.l.l.l.l.l.l.l.l.l.l.l.l.l.l.l.h.l.j.k.k.z.f.k.f.k.g.k.g.k.g.k.f.l.l.l.l.l.l.l.l.l.l.z.l.z.l.l.l.l.l.l.l.l.l.",
"l.l.l.l.l.l.l.l.l.l.l.l.l.l.l.l.z.z.l.l.l.l.l.l.l.l.l.z.z.z.z.z.z.z.z.z.z.z.z.z.z.l.l.l.l.l.z.z.l.l.l.l.l.l.l.l.l.l.l.l.l.l.l.l.",
"l.l.l.l.l.l.l.l.l.l.l.l.l.l.l.l.z.z.l.l.l.l.l.l.l.l.l.l.l.l.l.l.z.z.l.l.l.l.l.l.l.l.l.l.l.l.z.z.l.l.l.l.l.l.l.l.l.l.l.l.l.l.z.z.",
"l.l.l.l.l.l.l.l.l.l.z.l.l.l.l.l.z.z.z.z.l.l.l.l.l.l.l.l.l.l.l.l.z.z.z.l.l.l.l.l.l.l.l.l.l.z.z.z.l.l.l.l.l.l.l.l.l.l.l.l.l.l.z.z.",
"l.l.l.l.l.l.l.l.z.l.l.l.l.l.l.l.z.z.z.z.l.l.l.l.l.l.l.l.l.l.l.l.z.z.z.z.l.l.l.l.l.l.l.l.l.l.z.z.l.l.l.l.l.l.l.l.l.l.l.l.l.l.l.l.",
"l.l.l.l.l.l.l.l.l.l.l.l.l.l.l.l.l.l.l.l.l.l.l.l.l.l.l.l.l.l.l.l.l.l.l.l.l.l.l.l.l.l.l.l.l.l.l.l.l.l.l.l.l.l.l.l.l.l.l.l.l.l.l.l.",
"l.l.l.l.l.l.l.l.l.l.l.l.l.l.l.l.l.l.l.l.l.l.l.l.l.l.l.l.l.l.l.l.l.l.l.l.l.l.l.l.l.l.l.l.l.l.l.l.l.l.l.l.l.l.l.l.l.l.l.l.l.l.l.l.",
"l.l.l.l.l.l.l.l.l.l.l.l.l.l.l.l.l.l.l.l.l.l.z.z.z.z.l.l.l.l.l.l.l.l.l.l.l.l.l.l.z.z.l.l.l.l.l.l.l.l.l.l.l.l.l.l.l.l.z.l.l.l.l.l.",
"l.l.l.l.l.l.l.l.l.l.l.l.l.l.l.l.l.l.l.l.l.l.z.z.z.z.l.l.l.l.l.l.l.l.l.l.l.l.l.l.z.z.l.l.l.l.l.l.l.l.l.l.l.l.l.l.z.z.z.l.l.l.l.l."
};
