/* XPM */
static char *e7353aebf34c4c37a5ba297f4f6d190aApxE8UGDdgwJkCdA[] = {
/* columns rows colors chars-per-pixel */
"64 64 19 1 ",
"  c #E6E3DE",
". c #E7E4DF",
"X c #E8E5E0",
"o c #E9E6E1",
"O c #EAE7E2",
"+ c #EBE8E3",
"@ c #ECE9E4",
"# c #EDEAE5",
"$ c #EEEBE6",
"% c #EFECE7",
"& c #F0EDE8",
"* c #F1EEE9",
"= c #F2EFEA",
"- c #F3F0EB",
"; c #F4F1EC",
": c #F5F2ED",
"> c #F6F3EE",
", c #F7F4EF",
"< c #F8F5F0",
/* pixels */
"  .OOOO+$$$++OOOOOOOO+++$$%%%$$$%%%&&&&&%%%%%%$$%$$$&&&%&&&&&&%%",
"O++$$$$$%$$$$$++OO+$++$$$$%%%$$$$$$$$$%%%%%%%%%%%$$$&&&%&&&&&&&&",
"$$$$$$$$%%$$$$$O$$$$$$$$$$%%%%$$$%%&&&&&%%%%&%%%%$$$&&&%&&&&&&&&",
"$$$$$$$$$$$$$$$+$$$$$$$$$$$%%%$$&&&&&--;%%%%&&&&&%$$&&%$$$$$%%%%",
"$$+$+++OOO+$$$$$$$$$$$$$$$$%%%%%$$$$%%&&%%%&&&&&&%$$&&%$$$$$$$%%",
"$$$$$$$$+$$$%&&&$$$$$$+$$$$%%%%%$$$$%%%%%%%&&&&&&%$%%&%$$$$%%&&&",
"$$$$$$$$$$$$%%%%$$$$$$$$$$$%%&%%&&&&%%%%%%&&&&&&&&%%%%$$$$$$%%&&",
"$$+$+$++$$$$$$$+%%$$$$$$$$$%%&&&$$$$$+++%%&&&&&-&&%%%%$$O++$$$$$",
"$$$$$&&&$$$%%$$+++OO+$%&&&&%%$$$$$%%%%&&$$$$$$$+%%%&--&&&&&%$$$$",
"OO+++$$$$$%&&&%$&&&&&&&&%%%%$$$$$$$$$$%%&&%%$$$$$$$%&%$$$$$$$$%&",
"OOO+O$$$$$%%%&&&%%%%%$$$%%%%$$$$$$$$$$$$&&&%%$$$%$$$$$$O$$$$$$$%",
"$$$$$$$$$$$$$$%&$$$$$$$+&&&%%%%%$$$$$%%%$$$$$$$$&&%%&&%$&&%$$$$$",
"$$$$$$%%$$$$$$%&$%&&--&&&&&&&&&&%%%&&&&&$$$$%&&&&&%%&&&&-&&&%$$$",
"$$$$$$$$$$%%%&&&%&&&-;;;&&&&&&&&&&&&&&&&$$%&&&-;%$$$%&&&&&&&&&&&",
"$$$+++$$$$%%&&%$$$$$$%&&$$$%%%&&%%&&&&&&&&&&&&--&$$$$%%%&%%%%&&&",
"$$$$$$$$$$$$%$$+&%$$$$$%$$$$$$$$$$%%%%&&&&&&&%&&-&$$$%%$&&&%$$$$",
"$$$$$++O$$$%%&&&%%%%%%%%&%$$$$&&&&&%%$$$&&&&&&&&%&&--&&%$$$$%&&&",
"OO+$$$$%$$$%%&&&&&&&&&&&&&%%$$$$&&&&&&&&&&&&&&&&$$%&&%$$$$$%%&&&",
"OO+$$$%&$$$%%&&&%%%%%%%%%%%&&&%%%%&&&&&&%&&&&&&&%%%%%%%%$$%%%&&&",
"$$$$$$$$%%%%%%%%$$$$$$$$$$%&&&&&%&&&&&&&%%%&&&&&&&&&&&&&&&&&&%%%",
"$$$$$$%%&&&%%$$$$$$$$$$$$%&&&&&%&&&%%&%%%%%&&&&&&&&&&&&&&&&&&&%%",
"+$$$%&&&&&&&$$$$%%%%%%%%--&&&%$$&&&%$%$$%&&&&&&&%%%%%%%%&&&&&&&&",
"+$$$%&&&&&%%%%$$&&&&&&&&-&&&&%%%&&&&%%&&&&&&&&&&$$%&&%$$&&&&&&&&",
"&&&%%$$$$$$%%&&&%%%%%%%%%%$%&&;;%%&&&&&&&&&&&&&&%&&--&&%&&&&&&&&",
"$$$$$$$$$%&&&&&&&&$$$$$+$$%&&&&&&&&&&-&&&&&&&&&&&&&&&&&&&&&&%%%%",
"O+++$$$$$$%%&%%%&&%%&&&%$$%&&%$$&&&&&&&&&&&&&&&&&&&&&&&&&&&&&&&&",
"O++$$$%%%%&&%%$$%$$%&&&&&&&&&%$$&&&&&&&&%%%%%%%%%%%%%%%%&&&&---;",
"$$$%%&&&&&&&&&&&$$$$&&&&&&&&&&&&&&&&&&&&&&&&&&&&&&&&&&&&&&&&--;;",
"&&&&$%%%$%&&&&&&&%$$&&%$&&&&&&--&&&&&&&&&&&&&&&&&&&&&&&&%%&&&&&-",
"%$$$$$$$$$$%&&&&-&&&&&&%$$$$%&&&&&&&&&&&&&&&&-&&&&&&&&&&$$%%&&&&",
"$$$$$$$$$$%%&&%%-&&&&&&&%%$$$$%&&&&&&&;-&&&&&&&&&&&&&&&&%%%%%%%%",
"$$$$%%&&&&&&&&&%&%%%&&&%&&&%$$%&%&&&&-;;&&&&&&&&&&&&&&&&&&&&%%%%",
"$%&-;;;;&&%%%&&&&&&&&&&&&&&&--;;-&&&&%$$&$$$%&%$&&&&&%%%&&--&---",
"&&&&&&&&&&%%%&&&&&&&&&&&%&&&&&&&&&&&&%%$&&&&&&&&&&&&&&&&%%%%&&&&",
"&&&&&&&&&&%%%%%&&&&&&&&&$$$%&&&&&&&&&&&&;-&&-;-&&&&&&&&&$$$%%%%&",
"$$$%&&&-&&%%$%%%&&&&&&&&$$$%&&&&&&&&-----&&&--&&&&&&&&&&&&&&&&&&",
"&%&&&&-;&%%$$$%%%%%%%%%&%%%&&&&&&&&&&---&&%&&&&%-&&&&&&&&&&;;;-;",
"-&&&&&&%$$$$$%&&$$$$$$$$&&&&&&&-&&%&&&&&&%%%&&&%--&&&&&&&&&&--&-",
"&&&&&%$$$$$$$%&&%%%%%%&&&&&&&&&-&&&&&&&&&&&&&-&&----&-&&&&&&&--&",
"$$%&&&%$$$$$$&&&------;;%%&&&&&&;;;;;;;;;;--;;;-&&&&&&&&&&&&-;;-",
"&&&&&&&&&&&&&&&&%&&&&&&&&&%%&&&&&&&-&-----------%%%&&&&&;;;;;;;;",
"%&&&&&&&&&&&&&&&%&&&&&&&&&&&&&------&&&&&&&&&&&&--------&&-&&&&&",
"$$%%%%%%&&&&&&&&%&&&&&&&&&---;&&;-&-&&-&&&&&&&&&--&&&&&%%%&&&&&%",
"$$%%%%%%%%%%%%%%&&&&&&&&$%&&&&&&&&&&&&--;;;;;;;;&&&&&&&%&&&&&&&&",
"&&&&&&&&&&&&&&&&&&&&&&&&$%&&&&&&%&&&-;;;;;;;;;;;----;;;;--&&&&--",
"&&&&&&&&&&&&&&&&&&&&;-&&&&----&&%&&&-;;;;;;;;;;;&&&--;;;-&&&&&&-",
"&&&&&&&&--&&&&&&&&-;;;&&&&&&&&;;&&&&&&&-&&&&&&&&&&&&&&&&-&&&&&&-",
"&&&&&&&&--&&&&&&&&-;;;&&&&%%%&&&;;-&&&&&--------;;;;;--&;;&&&&;;",
"--&&&%%%&&&&&&%$$$&&&&%%&&--;---;;;;---&&&&&&&&&&&-&&&&%&-;;;&%$",
"--&&&-;;&&&---&&$%&&&&&&&&&&&&&&;;;;--------;;;;&&&&&&&&&&---&&$",
"-&&&&&;;&&&---&&&&&&&&&&&&&&&&&&----;;;;---;;;;;&&&&-;;;-------&",
"-&&$$$%%&&&&&---&&&&&--&&--;;;;-&---;;;;&&&&--------;;;;;;;;;;;,",
"&%$$$$$$&&&&&&&&&&&&&---&-;;;;;;&---;;;;&&&----;;;;;;---;;;;;;,<",
"$$%&&---&&&%&&&&&&&&&&-;&&&----&----;;;;;;;;;;;;;;;;--&&;-&&&;;;",
"%&&;;;;;-&&&&&&&&&&&&-;;&&------;;;;----;;;;;;;;----------&&&-;;",
"&-;,,;-&;;-&&&&&&&&&&&&;-;;;;;;;;;;;---&----;;;;&&&&--;;;;;;;;;;",
"&&&&&--;&&&&-;;;&;;;;;-&----;;;;&&&&--;;----;;;;;;;;;;;;;;;;;;;;",
"&&&&&&----&---;;;;;;;;;;----;;;;;;;;;;;;----;;;;;;;;;;;;;;;;;;;,",
"&&&&&&&&--------;;;;;;;;----;;;;;;;;;;;;----;;;;;;;;;;;;---;;;;;",
"&&&&&&&&------&&;;;-&-;;----;;;;&&-;;;;,----;;;;;;;;;;;;;;;;;;;;",
"&&&&&&&&------&&-&&&&&&-----;;;;------------;;;;--------,,,,,<<<",
"&-&&&&-;---------&&&&&-;----;;;;;;;-&&%%----;;;;&&&&&&&&;;;;;;;;",
"-----;;;&&&-;-;;--;;;;------;;;;;;;;-&&&----;;;;--------&&&&;---",
"---;;;;;&&&&-;;;;;;,,;;;----;;;;---;;;;;----;;;;;;;;;;;;;;;,<<,<"
};
